<?xml version="1.0" encoding="UTF-8" standalone="no"?>
<!DOCTYPE svg PUBLIC "-//W3C//DTD SVG 1.1//EN"
 "http://www.w3.org/Graphics/SVG/1.1/DTD/svg11.dtd">
<!-- Generated by graphviz version 2.38.0 (20140413.2041)
 -->
<!-- Title: proofgraph Pages: 1 -->
<svg width="393pt" height="548pt"
 viewBox="0.00 0.00 393.00 548.00" xmlns="http://www.w3.org/2000/svg" xmlns:xlink="http://www.w3.org/1999/xlink">
<g id="graph0" class="graph" transform="scale(1 1) rotate(0) translate(4 544)">
<title>proofgraph</title>
<polygon fill="white" stroke="none" points="-4,4 -4,-544 389,-544 389,4 -4,4"/>
<!-- node_0 -->
<g id="node1" class="node"><title>node_0</title>
<polygon fill="none" stroke="#000000" points="170,-40 18,-40 18,-4 170,-4 170,-40"/>
<polygon fill="none" stroke="#000000" points="174,-44 14,-44 14,-0 174,-0 174,-44"/>
<text text-anchor="middle" x="94" y="-19.2" font-family="Consolas" font-size="11.00" fill="#000000">(revolution&#45;nn e14 x1):0</text>
</g>
<!-- node_1 -->
<g id="node2" class="node"><title>node_1</title>
<polygon fill="none" stroke="#000000" points="151,-102 37,-102 37,-66 151,-66 151,-102"/>
<polygon fill="none" stroke="#000000" points="155,-106 33,-106 33,-62 155,-62 155,-106"/>
<text text-anchor="middle" x="94" y="-81.2" font-family="Consolas" font-size="11.00" fill="#000000">(whq e4 e5 e2):1</text>
</g>
<!-- node_2 -->
<g id="node3" class="node"><title>node_2</title>
<polygon fill="none" stroke="#000000" points="148,-164 40,-164 40,-128 148,-128 148,-164"/>
<polygon fill="none" stroke="#000000" points="152,-168 36,-168 36,-124 152,-124 152,-168"/>
<text text-anchor="middle" x="94" y="-143.2" font-family="Consolas" font-size="11.00" fill="#000000">(thing e13 x3):2</text>
</g>
<!-- node_4 -->
<g id="node5" class="node"><title>node_4</title>
<polygon fill="none" stroke="#000000" points="381,-164 273,-164 273,-128 381,-128 381,-164"/>
<polygon fill="none" stroke="#000000" points="385,-168 269,-168 269,-124 385,-124 385,-168"/>
<text text-anchor="middle" x="327" y="-143.2" font-family="Consolas" font-size="11.00" fill="#000000">(thing e10 x4):4</text>
</g>
<!-- node_2&#45;&gt;node_4 -->
<g id="edge1" class="edge"><title>node_2&#45;&gt;node_4</title>
<path fill="none" stroke="#000000" stroke-dasharray="1,5" d="M152.101,-146C187.64,-146 233.189,-146 268.755,-146"/>
<text text-anchor="middle" x="228.5" y="-160" font-family="Consolas" font-size="10.00" fill="#000000">e13=e10</text>
<text text-anchor="middle" x="228.5" y="-149" font-family="Consolas" font-size="10.00" fill="#000000">x3=x4</text>
</g>
<!-- node_3 -->
<g id="node4" class="node"><title>node_3</title>
<polygon fill="none" stroke="#000000" points="184,-226 4,-226 4,-190 184,-190 184,-226"/>
<polygon fill="none" stroke="#000000" points="188,-230 0,-230 0,-186 188,-186 188,-230"/>
<text text-anchor="middle" x="94" y="-205.2" font-family="Consolas" font-size="11.00" fill="#000000">(revolve&#45;vb e1 x3 u11 u12):3</text>
</g>
<!-- node_7 -->
<g id="node6" class="node"><title>node_7</title>
<polygon fill="none" stroke="#000000" points="149,-288 39,-288 39,-252 149,-252 149,-288"/>
<polygon fill="none" stroke="#000000" points="153,-292 35,-292 35,-248 153,-248 153,-292"/>
<text text-anchor="middle" x="94" y="-267.2" font-family="Consolas" font-size="11.00" fill="#000000">(else&#45;rb x4 u9):7</text>
</g>
<!-- node_8 -->
<g id="node7" class="node"><title>node_8</title>
<polygon fill="none" stroke="#000000" points="165.5,-350 22.5,-350 22.5,-314 165.5,-314 165.5,-350"/>
<polygon fill="none" stroke="#000000" points="169.5,-354 18.5,-354 18.5,-310 169.5,-310 169.5,-354"/>
<text text-anchor="middle" x="94" y="-329.2" font-family="Consolas" font-size="11.00" fill="#000000">(around&#45;in e8 e1 x4):8</text>
</g>
<!-- node_9 -->
<g id="node8" class="node"><title>node_9</title>
<polygon fill="none" stroke="#000000" points="161,-412 27,-412 27,-376 161,-376 161,-412"/>
<polygon fill="none" stroke="#000000" points="165,-416 23,-416 23,-372 165,-372 165,-416"/>
<text text-anchor="middle" x="94" y="-391.2" font-family="Consolas" font-size="11.00" fill="#000000">(time&#45;rel e7 e1 x2):9</text>
</g>
<!-- node_10 -->
<g id="node9" class="node"><title>node_10</title>
<polygon fill="none" stroke="#000000" points="167.5,-474 20.5,-474 20.5,-438 167.5,-438 167.5,-474"/>
<polygon fill="none" stroke="#000000" points="171.5,-478 16.5,-478 16.5,-434 171.5,-434 171.5,-478"/>
<text text-anchor="middle" x="94" y="-453.2" font-family="Consolas" font-size="11.00" fill="#000000">(be&#45;vb e2 x1 u6 e1):10</text>
</g>
<!-- node_11 -->
<g id="node10" class="node"><title>node_11</title>
<polygon fill="none" stroke="#000000" points="165.5,-536 22.5,-536 22.5,-500 165.5,-500 165.5,-536"/>
<polygon fill="none" stroke="#000000" points="169.5,-540 18.5,-540 18.5,-496 169.5,-496 169.5,-540"/>
<text text-anchor="middle" x="94" y="-515.2" font-family="Consolas" font-size="11.00" fill="#000000">(unit&#45;of&#45;time e5 x2):11</text>
</g>
</g>
</svg>
