<?xml version="1.0" encoding="UTF-8" standalone="no"?>
<!DOCTYPE svg PUBLIC "-//W3C//DTD SVG 1.1//EN"
 "http://www.w3.org/Graphics/SVG/1.1/DTD/svg11.dtd">
<!-- Generated by graphviz version 2.38.0 (20140413.2041)
 -->
<!-- Title: proofgraph Pages: 1 -->
<svg width="365pt" height="672pt"
 viewBox="0.00 0.00 365.00 672.00" xmlns="http://www.w3.org/2000/svg" xmlns:xlink="http://www.w3.org/1999/xlink">
<g id="graph0" class="graph" transform="scale(1 1) rotate(0) translate(4 668)">
<title>proofgraph</title>
<polygon fill="white" stroke="none" points="-4,4 -4,-668 361,-668 361,4 -4,4"/>
<!-- node_0 -->
<g id="node1" class="node"><title>node_0</title>
<polygon fill="none" stroke="#000000" points="151.5,-40 8.5,-40 8.5,-4 151.5,-4 151.5,-40"/>
<polygon fill="none" stroke="#000000" points="155.5,-44 4.5,-44 4.5,-0 155.5,-0 155.5,-44"/>
<text text-anchor="middle" x="80" y="-19.2" font-family="Consolas" font-size="11.00" fill="#000000">(complete&#45;adj s1 x1):0</text>
</g>
<!-- node_1 -->
<g id="node2" class="node"><title>node_1</title>
<polygon fill="none" stroke="#000000" points="156,-102 4,-102 4,-66 156,-66 156,-102"/>
<polygon fill="none" stroke="#000000" points="160,-106 0,-106 0,-62 160,-62 160,-106"/>
<text text-anchor="middle" x="80" y="-81.2" font-family="Consolas" font-size="11.00" fill="#000000">(revolution&#45;nn e13 x1):1</text>
</g>
<!-- node_2 -->
<g id="node3" class="node"><title>node_2</title>
<polygon fill="none" stroke="#000000" points="141,-164 19,-164 19,-128 141,-128 141,-164"/>
<polygon fill="none" stroke="#000000" points="145,-168 15,-168 15,-124 145,-124 145,-168"/>
<text text-anchor="middle" x="80" y="-143.2" font-family="Consolas" font-size="11.00" fill="#000000">(of&#45;in e12 x1 x2):2</text>
</g>
<!-- node_3 -->
<g id="node4" class="node"><title>node_3</title>
<polygon fill="none" stroke="#000000" points="155.5,-226 4.5,-226 4.5,-190 155.5,-190 155.5,-226"/>
<polygon fill="none" stroke="#000000" points="159.5,-230 0.5,-230 0.5,-186 159.5,-186 159.5,-230"/>
<text text-anchor="middle" x="80" y="-205.2" font-family="Consolas" font-size="11.00" fill="#000000">(around&#45;in e11 x1 x3):3</text>
</g>
<!-- node_4 -->
<g id="node5" class="node"><title>node_4</title>
<polygon fill="none" stroke="#000000" points="138,-288 22,-288 22,-252 138,-252 138,-288"/>
<polygon fill="none" stroke="#000000" points="142,-292 18,-292 18,-248 142,-248 142,-292"/>
<text text-anchor="middle" x="80" y="-267.2" font-family="Consolas" font-size="11.00" fill="#000000">(card e10 x4 1):4</text>
</g>
<!-- node_5 -->
<g id="node6" class="node"><title>node_5</title>
<polygon fill="none" stroke="#000000" points="140,-350 20,-350 20,-314 140,-314 140,-350"/>
<polygon fill="none" stroke="#000000" points="144,-354 16,-354 16,-310 144,-310 144,-354"/>
<text text-anchor="middle" x="80" y="-329.2" font-family="Consolas" font-size="11.00" fill="#000000">(earth&#45;nn e9 x4):5</text>
</g>
<!-- node_9 -->
<g id="node10" class="node"><title>node_9</title>
<polygon fill="none" stroke="#000000" points="353,-350 233,-350 233,-314 353,-314 353,-350"/>
<polygon fill="none" stroke="#000000" points="357,-354 229,-354 229,-310 357,-310 357,-354"/>
<text text-anchor="middle" x="293" y="-329.2" font-family="Consolas" font-size="11.00" fill="#000000">(earth&#45;nn e4 x2):9</text>
</g>
<!-- node_5&#45;&gt;node_9 -->
<g id="edge1" class="edge"><title>node_5&#45;&gt;node_9</title>
<path fill="none" stroke="#000000" stroke-dasharray="1,5" d="M144.021,-332C170.858,-332 202.098,-332 228.939,-332"/>
<text text-anchor="middle" x="194.5" y="-346" font-family="Consolas" font-size="10.00" fill="#000000">x2=x4</text>
<text text-anchor="middle" x="194.5" y="-335" font-family="Consolas" font-size="10.00" fill="#000000">e9=e4</text>
</g>
<!-- node_6 -->
<g id="node7" class="node"><title>node_6</title>
<polygon fill="none" stroke="#000000" points="155,-412 5,-412 5,-376 155,-376 155,-412"/>
<polygon fill="none" stroke="#000000" points="159,-416 1,-416 1,-372 159,-372 159,-416"/>
<text text-anchor="middle" x="80" y="-391.2" font-family="Consolas" font-size="11.00" fill="#000000">(take&#45;vb e1 x1 x4 u8):6</text>
</g>
<!-- node_7 -->
<g id="node8" class="node"><title>node_7</title>
<polygon fill="none" stroke="#000000" points="137,-474 23,-474 23,-438 137,-438 137,-474"/>
<polygon fill="none" stroke="#000000" points="141,-478 19,-478 19,-434 141,-434 141,-478"/>
<text text-anchor="middle" x="80" y="-453.2" font-family="Consolas" font-size="11.00" fill="#000000">(year&#45;nn e7 x5):7</text>
</g>
<!-- node_8 -->
<g id="node9" class="node"><title>node_8</title>
<polygon fill="none" stroke="#000000" points="139,-536 21,-536 21,-500 139,-500 139,-536"/>
<polygon fill="none" stroke="#000000" points="143,-540 17,-540 17,-496 143,-496 143,-540"/>
<text text-anchor="middle" x="80" y="-515.2" font-family="Consolas" font-size="11.00" fill="#000000">(on&#45;in e6 e1 x5):8</text>
</g>
<!-- node_12 -->
<g id="node11" class="node"><title>node_12</title>
<polygon fill="none" stroke="#000000" points="128,-598 32,-598 32,-562 128,-562 128,-598"/>
<polygon fill="none" stroke="#000000" points="132,-602 28,-602 28,-558 132,-558 132,-602"/>
<text text-anchor="middle" x="80" y="-577.2" font-family="Consolas" font-size="11.00" fill="#000000">(loc e5 x2):12</text>
</g>
<!-- node_13 -->
<g id="node12" class="node"><title>node_13</title>
<polygon fill="none" stroke="#000000" points="139,-660 21,-660 21,-624 139,-624 139,-660"/>
<polygon fill="none" stroke="#000000" points="143,-664 17,-664 17,-620 143,-620 143,-664"/>
<text text-anchor="middle" x="80" y="-639.2" font-family="Consolas" font-size="11.00" fill="#000000">(sun&#45;nn e3 x3):13</text>
</g>
</g>
</svg>
