<?xml version="1.0" encoding="UTF-8" standalone="no"?>
<!DOCTYPE svg PUBLIC "-//W3C//DTD SVG 1.1//EN"
 "http://www.w3.org/Graphics/SVG/1.1/DTD/svg11.dtd">
<!-- Generated by graphviz version 2.38.0 (20140413.2041)
 -->
<!-- Title: proofgraph Pages: 1 -->
<svg width="189pt" height="300pt"
 viewBox="0.00 0.00 189.00 300.00" xmlns="http://www.w3.org/2000/svg" xmlns:xlink="http://www.w3.org/1999/xlink">
<g id="graph0" class="graph" transform="scale(1 1) rotate(0) translate(4 296)">
<title>proofgraph</title>
<polygon fill="white" stroke="none" points="-4,4 -4,-296 185,-296 185,4 -4,4"/>
<!-- node_0 -->
<g id="node1" class="node"><title>node_0</title>
<polygon fill="none" stroke="#000000" points="149.5,-40 31.5,-40 31.5,-4 149.5,-4 149.5,-40"/>
<polygon fill="none" stroke="#000000" points="153.5,-44 27.5,-44 27.5,-0 153.5,-0 153.5,-44"/>
<text text-anchor="middle" x="90.5" y="-19.2" font-family="Consolas" font-size="11.00" fill="#000000">(plant&#45;nn e7 x1):0</text>
</g>
<!-- node_1 -->
<g id="node2" class="node"><title>node_1</title>
<polygon fill="none" stroke="#000000" points="157,-102 24,-102 24,-66 157,-66 157,-102"/>
<polygon fill="none" stroke="#000000" points="161,-106 20,-106 20,-62 161,-62 161,-106"/>
<text text-anchor="middle" x="90.5" y="-81.2" font-family="Consolas" font-size="11.00" fill="#000000">(sunlight&#45;nn e6 x2):1</text>
</g>
<!-- node_2 -->
<g id="node3" class="node"><title>node_2</title>
<polygon fill="none" stroke="#000000" points="173,-164 8,-164 8,-128 173,-128 173,-164"/>
<polygon fill="none" stroke="#000000" points="177,-168 4,-168 4,-124 177,-124 177,-168"/>
<text text-anchor="middle" x="90.5" y="-143.2" font-family="Consolas" font-size="11.00" fill="#000000">(require&#45;vb e1 x1 x2 u5):2</text>
</g>
<!-- node_3 -->
<g id="node4" class="node"><title>node_3</title>
<polygon fill="none" stroke="#000000" points="177,-226 4,-226 4,-190 177,-190 177,-226"/>
<polygon fill="none" stroke="#000000" points="181,-230 0,-230 0,-186 181,-186 181,-230"/>
<text text-anchor="middle" x="90.5" y="-205.2" font-family="Consolas" font-size="11.00" fill="#000000">(photosynthesis&#45;nn e4 x3):3</text>
</g>
<!-- node_4 -->
<g id="node5" class="node"><title>node_4</title>
<polygon fill="none" stroke="#000000" points="150,-288 31,-288 31,-252 150,-252 150,-288"/>
<polygon fill="none" stroke="#000000" points="154,-292 27,-292 27,-248 154,-248 154,-292"/>
<text text-anchor="middle" x="90.5" y="-267.2" font-family="Consolas" font-size="11.00" fill="#000000">(for&#45;in e3 e1 x3):4</text>
</g>
</g>
</svg>
