<?xml version="1.0" encoding="UTF-8" standalone="no"?>
<!DOCTYPE svg PUBLIC "-//W3C//DTD SVG 1.1//EN"
 "http://www.w3.org/Graphics/SVG/1.1/DTD/svg11.dtd">
<!-- Generated by graphviz version 2.38.0 (20140413.2041)
 -->
<!-- Title: proofgraph Pages: 1 -->
<svg width="387pt" height="858pt"
 viewBox="0.00 0.00 387.00 858.00" xmlns="http://www.w3.org/2000/svg" xmlns:xlink="http://www.w3.org/1999/xlink">
<g id="graph0" class="graph" transform="scale(1 1) rotate(0) translate(4 854)">
<title>proofgraph</title>
<polygon fill="white" stroke="none" points="-4,4 -4,-854 383,-854 383,4 -4,4"/>
<!-- node_0 -->
<g id="node1" class="node"><title>node_0</title>
<polygon fill="none" stroke="#000000" points="155.5,-40 13.5,-40 13.5,-4 155.5,-4 155.5,-40"/>
<polygon fill="none" stroke="#000000" points="159.5,-44 9.5,-44 9.5,-3.55271e-15 159.5,-3.55271e-15 159.5,-44"/>
<text text-anchor="middle" x="84.5" y="-19.2" font-family="Consolas" font-size="11.00" fill="#000000">(rainbow&#45;nn e19 x1):0</text>
</g>
<!-- node_1 -->
<g id="node2" class="node"><title>node_1</title>
<polygon fill="none" stroke="#000000" points="165,-102 4,-102 4,-66 165,-66 165,-102"/>
<polygon fill="none" stroke="#000000" points="169,-106 1.42109e-14,-106 1.42109e-14,-62 169,-62 169,-106"/>
<text text-anchor="middle" x="84.5" y="-81.2" font-family="Consolas" font-size="11.00" fill="#000000">(form&#45;vb e1 x2 x1 u18):1</text>
</g>
<!-- node_2 -->
<g id="node3" class="node"><title>node_2</title>
<polygon fill="none" stroke="#000000" points="160,-164 9,-164 9,-128 160,-128 160,-164"/>
<polygon fill="none" stroke="#000000" points="164,-168 5,-168 5,-124 164,-124 164,-168"/>
<text text-anchor="middle" x="84.5" y="-143.2" font-family="Consolas" font-size="11.00" fill="#000000">(refraction&#45;nn e17 x2):2</text>
</g>
<!-- node_3 -->
<g id="node4" class="node"><title>node_3</title>
<polygon fill="none" stroke="#000000" points="145,-226 24,-226 24,-190 145,-190 145,-226"/>
<polygon fill="none" stroke="#000000" points="149,-230 20,-230 20,-186 149,-186 149,-230"/>
<text text-anchor="middle" x="84.5" y="-205.2" font-family="Consolas" font-size="11.00" fill="#000000">(light&#45;nn e16 x3):3</text>
</g>
<!-- node_5 -->
<g id="node6" class="node"><title>node_5</title>
<polygon fill="none" stroke="#000000" points="375,-226 254,-226 254,-190 375,-190 375,-226"/>
<polygon fill="none" stroke="#000000" points="379,-230 250,-230 250,-186 379,-186 379,-230"/>
<text text-anchor="middle" x="314.5" y="-205.2" font-family="Consolas" font-size="11.00" fill="#000000">(light&#45;nn e14 x4):5</text>
</g>
<!-- node_3&#45;&gt;node_5 -->
<g id="edge1" class="edge"><title>node_3&#45;&gt;node_5</title>
<path fill="none" stroke="#000000" stroke-dasharray="1,5" d="M149.011,-208C180.502,-208 218.436,-208 249.935,-208"/>
<text text-anchor="middle" x="209.5" y="-222" font-family="Consolas" font-size="10.00" fill="#000000">e16=e14</text>
<text text-anchor="middle" x="209.5" y="-211" font-family="Consolas" font-size="10.00" fill="#000000">x3=x4</text>
</g>
<!-- node_4 -->
<g id="node5" class="node"><title>node_4</title>
<polygon fill="none" stroke="#000000" points="145.5,-288 23.5,-288 23.5,-252 145.5,-252 145.5,-288"/>
<polygon fill="none" stroke="#000000" points="149.5,-292 19.5,-292 19.5,-248 149.5,-248 149.5,-292"/>
<text text-anchor="middle" x="84.5" y="-267.2" font-family="Consolas" font-size="11.00" fill="#000000">(of&#45;in e15 x2 x3):4</text>
</g>
<!-- node_8 -->
<g id="node7" class="node"><title>node_8</title>
<polygon fill="none" stroke="#000000" points="162.5,-350 6.5,-350 6.5,-314 162.5,-314 162.5,-350"/>
<polygon fill="none" stroke="#000000" points="166.5,-354 2.5,-354 2.5,-310 166.5,-310 166.5,-354"/>
<text text-anchor="middle" x="84.5" y="-329.2" font-family="Consolas" font-size="11.00" fill="#000000">(split&#45;vb e2 x1 x4 u13):8</text>
</g>
<!-- node_9 -->
<g id="node8" class="node"><title>node_9</title>
<polygon fill="none" stroke="#000000" points="147.5,-412 21.5,-412 21.5,-376 147.5,-376 147.5,-412"/>
<polygon fill="none" stroke="#000000" points="151.5,-416 17.5,-416 17.5,-372 151.5,-372 151.5,-416"/>
<text text-anchor="middle" x="84.5" y="-391.2" font-family="Consolas" font-size="11.00" fill="#000000">(imp e6 e10 e12):9</text>
</g>
<!-- node_10 -->
<g id="node9" class="node"><title>node_10</title>
<polygon fill="none" stroke="#000000" points="154.5,-474 14.5,-474 14.5,-438 154.5,-438 154.5,-474"/>
<polygon fill="none" stroke="#000000" points="158.5,-478 10.5,-478 10.5,-434 158.5,-434 158.5,-478"/>
<text text-anchor="middle" x="84.5" y="-453.2" font-family="Consolas" font-size="11.00" fill="#000000">(into&#45;in e12 e2 x5):10</text>
</g>
<!-- node_11 -->
<g id="node10" class="node"><title>node_11</title>
<polygon fill="none" stroke="#000000" points="150,-536 19,-536 19,-500 150,-500 150,-536"/>
<polygon fill="none" stroke="#000000" points="154,-540 15,-540 15,-496 154,-496 154,-540"/>
<text text-anchor="middle" x="84.5" y="-515.2" font-family="Consolas" font-size="11.00" fill="#000000">(by&#45;in e11 e1 e2):11</text>
</g>
<!-- node_12 -->
<g id="node11" class="node"><title>node_12</title>
<polygon fill="none" stroke="#000000" points="150,-598 19,-598 19,-562 150,-562 150,-598"/>
<polygon fill="none" stroke="#000000" points="154,-602 15,-602 15,-558 154,-558 154,-602"/>
<text text-anchor="middle" x="84.5" y="-577.2" font-family="Consolas" font-size="11.00" fill="#000000">(color&#45;nn e10 x5):12</text>
</g>
<!-- node_13 -->
<g id="node12" class="node"><title>node_13</title>
<polygon fill="none" stroke="#000000" points="142.5,-660 26.5,-660 26.5,-624 142.5,-624 142.5,-660"/>
<polygon fill="none" stroke="#000000" points="146.5,-664 22.5,-664 22.5,-620 146.5,-620 146.5,-664"/>
<text text-anchor="middle" x="84.5" y="-639.2" font-family="Consolas" font-size="11.00" fill="#000000">(card e9 x5 2):13</text>
</g>
<!-- node_19 -->
<g id="node16" class="node"><title>node_19</title>
<polygon fill="none" stroke="#000000" points="372.5,-660 256.5,-660 256.5,-624 372.5,-624 372.5,-660"/>
<polygon fill="none" stroke="#000000" points="376.5,-664 252.5,-664 252.5,-620 376.5,-620 376.5,-664"/>
<text text-anchor="middle" x="314.5" y="-639.2" font-family="Consolas" font-size="11.00" fill="#000000">(card e4 x6 2):19</text>
</g>
<!-- node_13&#45;&gt;node_19 -->
<g id="edge2" class="edge"><title>node_13&#45;&gt;node_19</title>
<path fill="none" stroke="#000000" stroke-dasharray="1,5" d="M146.6,-642C179.313,-642 219.493,-642 252.232,-642"/>
<text text-anchor="middle" x="209.5" y="-656" font-family="Consolas" font-size="10.00" fill="#000000">x5=x6</text>
<text text-anchor="middle" x="209.5" y="-645" font-family="Consolas" font-size="10.00" fill="#000000">e9=e4</text>
</g>
<!-- node_14 -->
<g id="node13" class="node"><title>node_14</title>
<polygon fill="none" stroke="#000000" points="133.5,-722 35.5,-722 35.5,-686 133.5,-686 133.5,-722"/>
<polygon fill="none" stroke="#000000" points="137.5,-726 31.5,-726 31.5,-682 137.5,-682 137.5,-726"/>
<text text-anchor="middle" x="84.5" y="-701.2" font-family="Consolas" font-size="11.00" fill="#000000">(not e7 e8):14</text>
</g>
<!-- node_15 -->
<g id="node14" class="node"><title>node_15</title>
<polygon fill="none" stroke="#000000" points="149,-784 20,-784 20,-748 149,-748 149,-784"/>
<polygon fill="none" stroke="#000000" points="153,-788 16,-788 16,-744 153,-744 153,-788"/>
<text text-anchor="middle" x="84.5" y="-763.2" font-family="Consolas" font-size="11.00" fill="#000000">(equal e8 x5 x6):15</text>
</g>
<!-- node_16 -->
<g id="node15" class="node"><title>node_16</title>
<polygon fill="none" stroke="#000000" points="146.5,-846 22.5,-846 22.5,-810 146.5,-810 146.5,-846"/>
<polygon fill="none" stroke="#000000" points="150.5,-850 18.5,-850 18.5,-806 150.5,-806 150.5,-850"/>
<text text-anchor="middle" x="84.5" y="-825.2" font-family="Consolas" font-size="11.00" fill="#000000">(color&#45;nn e5 x6):16</text>
</g>
</g>
</svg>
