<?xml version="1.0" encoding="UTF-8" standalone="no"?>
<!DOCTYPE svg PUBLIC "-//W3C//DTD SVG 1.1//EN"
 "http://www.w3.org/Graphics/SVG/1.1/DTD/svg11.dtd">
<!-- Generated by graphviz version 2.38.0 (20140413.2041)
 -->
<!-- Title: proofgraph Pages: 1 -->
<svg width="375pt" height="672pt"
 viewBox="0.00 0.00 375.00 672.00" xmlns="http://www.w3.org/2000/svg" xmlns:xlink="http://www.w3.org/1999/xlink">
<g id="graph0" class="graph" transform="scale(1 1) rotate(0) translate(4 668)">
<title>proofgraph</title>
<polygon fill="white" stroke="none" points="-4,4 -4,-668 371,-668 371,4 -4,4"/>
<!-- node_0 -->
<g id="node1" class="node"><title>node_0</title>
<polygon fill="none" stroke="#000000" points="140,-40 15,-40 15,-4 140,-4 140,-40"/>
<polygon fill="none" stroke="#000000" points="144,-44 11,-44 11,-3.55271e-15 144,-3.55271e-15 144,-44"/>
<text text-anchor="middle" x="77.5" y="-19.2" font-family="Consolas" font-size="11.00" fill="#000000">(pluto&#45;nn e13 x1):0</text>
</g>
<!-- node_1 -->
<g id="node2" class="node"><title>node_1</title>
<polygon fill="none" stroke="#000000" points="127,-102 28,-102 28,-66 127,-66 127,-102"/>
<polygon fill="none" stroke="#000000" points="131,-106 24,-106 24,-62 131,-62 131,-106"/>
<text text-anchor="middle" x="77.5" y="-81.2" font-family="Consolas" font-size="11.00" fill="#000000">(org e14 x1):1</text>
</g>
<!-- node_2 -->
<g id="node3" class="node"><title>node_2</title>
<polygon fill="none" stroke="#000000" points="137,-164 18,-164 18,-128 137,-128 137,-164"/>
<polygon fill="none" stroke="#000000" points="141,-168 14,-168 14,-124 141,-124 141,-168"/>
<text text-anchor="middle" x="77.5" y="-143.2" font-family="Consolas" font-size="11.00" fill="#000000">(ninth&#45;adj s1 x3):2</text>
</g>
<!-- node_3 -->
<g id="node4" class="node"><title>node_3</title>
<polygon fill="none" stroke="#000000" points="140.5,-226 14.5,-226 14.5,-190 140.5,-190 140.5,-226"/>
<polygon fill="none" stroke="#000000" points="144.5,-230 10.5,-230 10.5,-186 144.5,-186 144.5,-230"/>
<text text-anchor="middle" x="77.5" y="-205.2" font-family="Consolas" font-size="11.00" fill="#000000">(imp e9 e10 e12):3</text>
</g>
<!-- node_4 -->
<g id="node5" class="node"><title>node_4</title>
<polygon fill="none" stroke="#000000" points="151,-288 4,-288 4,-252 151,-252 151,-288"/>
<polygon fill="none" stroke="#000000" points="155,-292 0,-292 0,-248 155,-248 155,-292"/>
<text text-anchor="middle" x="77.5" y="-267.2" font-family="Consolas" font-size="11.00" fill="#000000">(close&#45;adj e12 x3 x5):4</text>
</g>
<!-- node_5 -->
<g id="node6" class="node"><title>node_5</title>
<polygon fill="none" stroke="#000000" points="130.5,-350 24.5,-350 24.5,-314 130.5,-314 130.5,-350"/>
<polygon fill="none" stroke="#000000" points="134.5,-354 20.5,-354 20.5,-310 134.5,-310 134.5,-354"/>
<text text-anchor="middle" x="77.5" y="-329.2" font-family="Consolas" font-size="11.00" fill="#000000">(not e10 e11):5</text>
</g>
<!-- node_6 -->
<g id="node7" class="node"><title>node_6</title>
<polygon fill="none" stroke="#000000" points="142,-412 13,-412 13,-376 142,-376 142,-412"/>
<polygon fill="none" stroke="#000000" points="146,-416 9,-416 9,-372 146,-372 146,-416"/>
<text text-anchor="middle" x="77.5" y="-391.2" font-family="Consolas" font-size="11.00" fill="#000000">(equal e11 x5 x3):6</text>
</g>
<!-- node_8 -->
<g id="node9" class="node"><title>node_8</title>
<polygon fill="none" stroke="#000000" points="359.5,-443 237.5,-443 237.5,-407 359.5,-407 359.5,-443"/>
<polygon fill="none" stroke="#000000" points="363.5,-447 233.5,-447 233.5,-403 363.5,-403 363.5,-447"/>
<text text-anchor="middle" x="298.5" y="-422.2" font-family="Consolas" font-size="11.00" fill="#000000">(equal e7 x2 x3):8</text>
</g>
<!-- node_6&#45;&gt;node_8 -->
<g id="edge1" class="edge"><title>node_6&#45;&gt;node_8</title>
<path fill="none" stroke="#000000" stroke-dasharray="1,5" d="M146.293,-403.596C174.055,-407.526 206.023,-412.051 233.393,-415.925"/>
<text text-anchor="middle" x="192.5" y="-426" font-family="Consolas" font-size="10.00" fill="#000000">x5=x2</text>
<text text-anchor="middle" x="192.5" y="-415" font-family="Consolas" font-size="10.00" fill="#000000">e11=e7</text>
</g>
<!-- node_11 -->
<g id="node10" class="node"><title>node_11</title>
<polygon fill="none" stroke="#000000" points="363,-381 234,-381 234,-345 363,-345 363,-381"/>
<polygon fill="none" stroke="#000000" points="367,-385 230,-385 230,-341 367,-341 367,-385"/>
<text text-anchor="middle" x="298.5" y="-360.2" font-family="Consolas" font-size="11.00" fill="#000000">(equal e6 x1 x2):11</text>
</g>
<!-- node_6&#45;&gt;node_11 -->
<g id="edge2" class="edge"><title>node_6&#45;&gt;node_11</title>
<path fill="none" stroke="#000000" stroke-dasharray="1,5" d="M146.056,-375.172C155.061,-373.155 164.216,-371.349 173,-370 191.295,-367.189 211.257,-365.475 229.732,-364.439"/>
<text text-anchor="middle" x="192.5" y="-395" font-family="Consolas" font-size="10.00" fill="#000000">x1=x5</text>
<text text-anchor="middle" x="192.5" y="-384" font-family="Consolas" font-size="10.00" fill="#000000">x3=x2</text>
<text text-anchor="middle" x="192.5" y="-373" font-family="Consolas" font-size="10.00" fill="#000000">e11=e6</text>
</g>
<!-- node_7 -->
<g id="node8" class="node"><title>node_7</title>
<polygon fill="none" stroke="#000000" points="135.5,-474 19.5,-474 19.5,-438 135.5,-438 135.5,-474"/>
<polygon fill="none" stroke="#000000" points="139.5,-478 15.5,-478 15.5,-434 139.5,-434 139.5,-478"/>
<text text-anchor="middle" x="77.5" y="-453.2" font-family="Consolas" font-size="11.00" fill="#000000">(to&#45;in e8 x3 x4):7</text>
</g>
<!-- node_19 -->
<g id="node11" class="node"><title>node_19</title>
<polygon fill="none" stroke="#000000" points="143.5,-536 11.5,-536 11.5,-500 143.5,-500 143.5,-536"/>
<polygon fill="none" stroke="#000000" points="147.5,-540 7.5,-540 7.5,-496 147.5,-496 147.5,-540"/>
<text text-anchor="middle" x="77.5" y="-515.2" font-family="Consolas" font-size="11.00" fill="#000000">(planet&#45;nn e5 x2):19</text>
</g>
<!-- node_20 -->
<g id="node12" class="node"><title>node_20</title>
<polygon fill="none" stroke="#000000" points="136.5,-598 18.5,-598 18.5,-562 136.5,-562 136.5,-598"/>
<polygon fill="none" stroke="#000000" points="140.5,-602 14.5,-602 14.5,-558 140.5,-558 140.5,-602"/>
<text text-anchor="middle" x="77.5" y="-577.2" font-family="Consolas" font-size="11.00" fill="#000000">(sun&#45;nn e3 x4):20</text>
</g>
<!-- node_21 -->
<g id="node13" class="node"><title>node_21</title>
<polygon fill="none" stroke="#000000" points="125.5,-660 29.5,-660 29.5,-624 125.5,-624 125.5,-660"/>
<polygon fill="none" stroke="#000000" points="129.5,-664 25.5,-664 25.5,-620 129.5,-620 129.5,-664"/>
<text text-anchor="middle" x="77.5" y="-639.2" font-family="Consolas" font-size="11.00" fill="#000000">(loc e4 x4):21</text>
</g>
</g>
</svg>
