<?xml version="1.0" encoding="UTF-8" standalone="no"?>
<!DOCTYPE svg PUBLIC "-//W3C//DTD SVG 1.1//EN"
 "http://www.w3.org/Graphics/SVG/1.1/DTD/svg11.dtd">
<!-- Generated by graphviz version 2.38.0 (20140413.2041)
 -->
<!-- Title: proofgraph Pages: 1 -->
<svg width="181pt" height="920pt"
 viewBox="0.00 0.00 181.00 920.00" xmlns="http://www.w3.org/2000/svg" xmlns:xlink="http://www.w3.org/1999/xlink">
<g id="graph0" class="graph" transform="scale(1 1) rotate(0) translate(4 916)">
<title>proofgraph</title>
<polygon fill="white" stroke="none" points="-4,4 -4,-916 177,-916 177,4 -4,4"/>
<!-- node_0 -->
<g id="node1" class="node"><title>node_0</title>
<polygon fill="none" stroke="#000000" points="140.5,-40 32.5,-40 32.5,-4 140.5,-4 140.5,-40"/>
<polygon fill="none" stroke="#000000" points="144.5,-44 28.5,-44 28.5,-0 144.5,-0 144.5,-44"/>
<text text-anchor="middle" x="86.5" y="-19.2" font-family="Consolas" font-size="11.00" fill="#000000">(thing e20 x1):0</text>
</g>
<!-- node_1 -->
<g id="node2" class="node"><title>node_1</title>
<polygon fill="none" stroke="#000000" points="169,-102 4,-102 4,-66 169,-66 169,-102"/>
<polygon fill="none" stroke="#000000" points="173,-106 0,-106 0,-62 173,-62 173,-106"/>
<text text-anchor="middle" x="86.5" y="-81.2" font-family="Consolas" font-size="11.00" fill="#000000">(bear&#45;vb e1 u18 x1 u19):1</text>
</g>
<!-- node_2 -->
<g id="node3" class="node"><title>node_2</title>
<polygon fill="none" stroke="#000000" points="147,-164 26,-164 26,-128 147,-128 147,-164"/>
<polygon fill="none" stroke="#000000" points="151,-168 22,-168 22,-124 151,-124 151,-168"/>
<text text-anchor="middle" x="86.5" y="-143.2" font-family="Consolas" font-size="11.00" fill="#000000">(small&#45;adj s1 x2):2</text>
</g>
<!-- node_3 -->
<g id="node4" class="node"><title>node_3</title>
<polygon fill="none" stroke="#000000" points="149.5,-226 23.5,-226 23.5,-190 149.5,-190 149.5,-226"/>
<polygon fill="none" stroke="#000000" points="153.5,-230 19.5,-230 19.5,-186 153.5,-186 153.5,-230"/>
<text text-anchor="middle" x="86.5" y="-205.2" font-family="Consolas" font-size="11.00" fill="#000000">(town&#45;nn e17 x2):3</text>
</g>
<!-- node_4 -->
<g id="node5" class="node"><title>node_4</title>
<polygon fill="none" stroke="#000000" points="147,-288 26,-288 26,-252 147,-252 147,-288"/>
<polygon fill="none" stroke="#000000" points="151,-292 22,-292 22,-248 151,-248 151,-292"/>
<text text-anchor="middle" x="86.5" y="-267.2" font-family="Consolas" font-size="11.00" fill="#000000">(in&#45;in e16 e1 x2):4</text>
</g>
<!-- node_5 -->
<g id="node6" class="node"><title>node_5</title>
<polygon fill="none" stroke="#000000" points="146,-350 27,-350 27,-314 146,-314 146,-350"/>
<polygon fill="none" stroke="#000000" points="150,-354 23,-354 23,-310 150,-310 150,-354"/>
<text text-anchor="middle" x="86.5" y="-329.2" font-family="Consolas" font-size="11.00" fill="#000000">(female e15 x1):5</text>
</g>
<!-- node_6 -->
<g id="node7" class="node"><title>node_6</title>
<polygon fill="none" stroke="#000000" points="164,-412 9,-412 9,-376 164,-376 164,-412"/>
<polygon fill="none" stroke="#000000" points="168,-416 5,-416 5,-372 168,-372 168,-416"/>
<text text-anchor="middle" x="86.5" y="-391.2" font-family="Consolas" font-size="11.00" fill="#000000">(go&#45;vb e2 x3 u13 u14):6</text>
</g>
<!-- node_7 -->
<g id="node8" class="node"><title>node_7</title>
<polygon fill="none" stroke="#000000" points="153.5,-474 19.5,-474 19.5,-438 153.5,-438 153.5,-474"/>
<polygon fill="none" stroke="#000000" points="157.5,-478 15.5,-478 15.5,-434 157.5,-434 157.5,-478"/>
<text text-anchor="middle" x="86.5" y="-453.2" font-family="Consolas" font-size="11.00" fill="#000000">(imp e10 e11 e12):7</text>
</g>
<!-- node_8 -->
<g id="node9" class="node"><title>node_8</title>
<polygon fill="none" stroke="#000000" points="159,-536 14,-536 14,-500 159,-500 159,-536"/>
<polygon fill="none" stroke="#000000" points="163,-540 10,-540 10,-496 163,-496 163,-540"/>
<text text-anchor="middle" x="86.5" y="-515.2" font-family="Consolas" font-size="11.00" fill="#000000">(Location e12 e2 x5):8</text>
</g>
<!-- node_9 -->
<g id="node10" class="node"><title>node_9</title>
<polygon fill="none" stroke="#000000" points="155.5,-598 17.5,-598 17.5,-562 155.5,-562 155.5,-598"/>
<polygon fill="none" stroke="#000000" points="159.5,-602 13.5,-602 13.5,-558 159.5,-558 159.5,-602"/>
<text text-anchor="middle" x="86.5" y="-577.2" font-family="Consolas" font-size="11.00" fill="#000000">(location&#45;rb e11 x5):9</text>
</g>
<!-- node_10 -->
<g id="node11" class="node"><title>node_10</title>
<polygon fill="none" stroke="#000000" points="165.5,-660 7.5,-660 7.5,-624 165.5,-624 165.5,-660"/>
<polygon fill="none" stroke="#000000" points="169.5,-664 3.5,-664 3.5,-620 169.5,-620 169.5,-664"/>
<text text-anchor="middle" x="86.5" y="-639.2" font-family="Consolas" font-size="11.00" fill="#000000">(take&#45;vb e3 x1 x3 u9):10</text>
</g>
<!-- node_11 -->
<g id="node12" class="node"><title>node_11</title>
<polygon fill="none" stroke="#000000" points="149.5,-722 23.5,-722 23.5,-686 149.5,-686 149.5,-722"/>
<polygon fill="none" stroke="#000000" points="153.5,-726 19.5,-726 19.5,-682 153.5,-682 153.5,-726"/>
<text text-anchor="middle" x="86.5" y="-701.2" font-family="Consolas" font-size="11.00" fill="#000000">(while e8 e3 e1):11</text>
</g>
<!-- node_12 -->
<g id="node13" class="node"><title>node_12</title>
<polygon fill="none" stroke="#000000" points="159.5,-784 13.5,-784 13.5,-748 159.5,-748 159.5,-784"/>
<polygon fill="none" stroke="#000000" points="163.5,-788 9.5,-788 9.5,-744 163.5,-744 163.5,-788"/>
<text text-anchor="middle" x="86.5" y="-763.2" font-family="Consolas" font-size="11.00" fill="#000000">(midnight&#45;nn e7 x4):12</text>
</g>
<!-- node_13 -->
<g id="node14" class="node"><title>node_13</title>
<polygon fill="none" stroke="#000000" points="147.5,-846 25.5,-846 25.5,-810 147.5,-810 147.5,-846"/>
<polygon fill="none" stroke="#000000" points="151.5,-850 21.5,-850 21.5,-806 151.5,-806 151.5,-850"/>
<text text-anchor="middle" x="86.5" y="-825.2" font-family="Consolas" font-size="11.00" fill="#000000">(of&#45;in e6 x3 x4):13</text>
</g>
<!-- node_14 -->
<g id="node15" class="node"><title>node_14</title>
<polygon fill="none" stroke="#000000" points="148,-908 25,-908 25,-872 148,-872 148,-908"/>
<polygon fill="none" stroke="#000000" points="152,-912 21,-912 21,-868 152,-868 152,-912"/>
<text text-anchor="middle" x="86.5" y="-887.2" font-family="Consolas" font-size="11.00" fill="#000000">(train&#45;nn e5 x3):14</text>
</g>
</g>
</svg>
