<?xml version="1.0" encoding="UTF-8" standalone="no"?>
<!DOCTYPE svg PUBLIC "-//W3C//DTD SVG 1.1//EN"
 "http://www.w3.org/Graphics/SVG/1.1/DTD/svg11.dtd">
<!-- Generated by graphviz version 2.38.0 (20140413.2041)
 -->
<!-- Title: proofgraph Pages: 1 -->
<svg width="142pt" height="486pt"
 viewBox="0.00 0.00 142.00 486.00" xmlns="http://www.w3.org/2000/svg" xmlns:xlink="http://www.w3.org/1999/xlink">
<g id="graph0" class="graph" transform="scale(1 1) rotate(0) translate(4 482)">
<title>proofgraph</title>
<polygon fill="white" stroke="none" points="-4,4 -4,-482 138,-482 138,4 -4,4"/>
<!-- node_0 -->
<g id="node1" class="node"><title>node_0</title>
<polygon fill="none" stroke="#000000" points="130,-40 4,-40 4,-4 130,-4 130,-40"/>
<polygon fill="none" stroke="#000000" points="134,-44 0,-44 0,-0 134,-0 134,-44"/>
<text text-anchor="middle" x="67" y="-19.2" font-family="Consolas" font-size="11.00" fill="#000000">(poison&#45;nn e8 x2):0</text>
</g>
<!-- node_1 -->
<g id="node2" class="node"><title>node_1</title>
<polygon fill="none" stroke="#000000" points="116,-102 18,-102 18,-66 116,-66 116,-102"/>
<polygon fill="none" stroke="#000000" points="120,-106 14,-106 14,-62 120,-62 120,-106"/>
<text text-anchor="middle" x="67" y="-81.2" font-family="Consolas" font-size="11.00" fill="#000000">(nam e9 x2):1</text>
</g>
<!-- node_2 -->
<g id="node3" class="node"><title>node_2</title>
<polygon fill="none" stroke="#000000" points="128,-164 6,-164 6,-128 128,-128 128,-164"/>
<polygon fill="none" stroke="#000000" points="132,-168 2,-168 2,-124 132,-124 132,-168"/>
<text text-anchor="middle" x="67" y="-143.2" font-family="Consolas" font-size="11.00" fill="#000000">(equal e7 x1 x2):2</text>
</g>
<!-- node_3 -->
<g id="node4" class="node"><title>node_3</title>
<polygon fill="none" stroke="#000000" points="118.5,-226 15.5,-226 15.5,-190 118.5,-190 118.5,-226"/>
<polygon fill="none" stroke="#000000" points="122.5,-230 11.5,-230 11.5,-186 122.5,-186 122.5,-230"/>
<text text-anchor="middle" x="67" y="-205.2" font-family="Consolas" font-size="11.00" fill="#000000">(kill&#45;vb e6 x1):3</text>
</g>
<!-- node_4 -->
<g id="node5" class="node"><title>node_4</title>
<polygon fill="none" stroke="#000000" points="128,-288 6,-288 6,-252 128,-252 128,-288"/>
<polygon fill="none" stroke="#000000" points="132,-292 2,-292 2,-248 132,-248 132,-292"/>
<text text-anchor="middle" x="67" y="-267.2" font-family="Consolas" font-size="11.00" fill="#000000">(eaten&#45;nn e5 x3):4</text>
</g>
<!-- node_5 -->
<g id="node6" class="node"><title>node_5</title>
<polygon fill="none" stroke="#000000" points="124,-350 10,-350 10,-314 124,-314 124,-350"/>
<polygon fill="none" stroke="#000000" points="128,-354 6,-354 6,-310 128,-310 128,-354"/>
<text text-anchor="middle" x="67" y="-329.2" font-family="Consolas" font-size="11.00" fill="#000000">(in&#45;in e4 x1 x3):5</text>
</g>
<!-- node_6 -->
<g id="node7" class="node"><title>node_6</title>
<polygon fill="none" stroke="#000000" points="119,-412 15,-412 15,-376 119,-376 119,-412"/>
<polygon fill="none" stroke="#000000" points="123,-416 11,-416 11,-372 123,-372 123,-416"/>
<text text-anchor="middle" x="67" y="-391.2" font-family="Consolas" font-size="11.00" fill="#000000">(when e3 x1):6</text>
</g>
<!-- node_7 -->
<g id="node8" class="node"><title>node_7</title>
<polygon fill="none" stroke="#000000" points="117,-474 17,-474 17,-438 117,-438 117,-474"/>
<polygon fill="none" stroke="#000000" points="121,-478 13,-478 13,-434 121,-434 121,-478"/>
<text text-anchor="middle" x="67" y="-453.2" font-family="Consolas" font-size="11.00" fill="#000000">(topic x1 u2):7</text>
</g>
</g>
</svg>
