<?xml version="1.0" encoding="UTF-8" standalone="no"?>
<!DOCTYPE svg PUBLIC "-//W3C//DTD SVG 1.1//EN"
 "http://www.w3.org/Graphics/SVG/1.1/DTD/svg11.dtd">
<!-- Generated by graphviz version 2.38.0 (20140413.2041)
 -->
<!-- Title: proofgraph Pages: 1 -->
<svg width="180pt" height="486pt"
 viewBox="0.00 0.00 180.00 486.00" xmlns="http://www.w3.org/2000/svg" xmlns:xlink="http://www.w3.org/1999/xlink">
<g id="graph0" class="graph" transform="scale(1 1) rotate(0) translate(4 482)">
<title>proofgraph</title>
<polygon fill="white" stroke="none" points="-4,4 -4,-482 176,-482 176,4 -4,4"/>
<!-- node_0 -->
<g id="node1" class="node"><title>node_0</title>
<polygon fill="none" stroke="#000000" points="140,-40 32,-40 32,-4 140,-4 140,-40"/>
<polygon fill="none" stroke="#000000" points="144,-44 28,-44 28,-0 144,-0 144,-44"/>
<text text-anchor="middle" x="86" y="-19.2" font-family="Consolas" font-size="11.00" fill="#000000">(thing e13 x1):0</text>
</g>
<!-- node_1 -->
<g id="node2" class="node"><title>node_1</title>
<polygon fill="none" stroke="#000000" points="156,-102 16,-102 16,-66 156,-66 156,-102"/>
<polygon fill="none" stroke="#000000" points="160,-106 12,-106 12,-62 160,-62 160,-106"/>
<text text-anchor="middle" x="86" y="-81.2" font-family="Consolas" font-size="11.00" fill="#000000">(sunlight&#45;nn e12 x3):1</text>
</g>
<!-- node_2 -->
<g id="node3" class="node"><title>node_2</title>
<polygon fill="none" stroke="#000000" points="147,-164 25,-164 25,-128 147,-128 147,-164"/>
<polygon fill="none" stroke="#000000" points="151,-168 21,-168 21,-124 151,-124 151,-168"/>
<text text-anchor="middle" x="86" y="-143.2" font-family="Consolas" font-size="11.00" fill="#000000">(of&#45;in e11 x2 x3):2</text>
</g>
<!-- node_3 -->
<g id="node4" class="node"><title>node_3</title>
<polygon fill="none" stroke="#000000" points="151.5,-226 20.5,-226 20.5,-190 151.5,-190 151.5,-226"/>
<polygon fill="none" stroke="#000000" points="155.5,-230 16.5,-230 16.5,-186 155.5,-186 155.5,-230"/>
<text text-anchor="middle" x="86" y="-205.2" font-family="Consolas" font-size="11.00" fill="#000000">(cause&#45;nn e10 x2):3</text>
</g>
<!-- node_4 -->
<g id="node5" class="node"><title>node_4</title>
<polygon fill="none" stroke="#000000" points="140.5,-288 31.5,-288 31.5,-252 140.5,-252 140.5,-288"/>
<polygon fill="none" stroke="#000000" points="144.5,-292 27.5,-292 27.5,-248 144.5,-248 144.5,-292"/>
<text text-anchor="middle" x="86" y="-267.2" font-family="Consolas" font-size="11.00" fill="#000000">(card e9 x2 2):4</text>
</g>
<!-- node_5 -->
<g id="node6" class="node"><title>node_5</title>
<polygon fill="none" stroke="#000000" points="168,-350 4,-350 4,-314 168,-314 168,-350"/>
<polygon fill="none" stroke="#000000" points="172,-354 0,-354 0,-310 172,-310 172,-354"/>
<text text-anchor="middle" x="86" y="-329.2" font-family="Consolas" font-size="11.00" fill="#000000">(absorb&#45;vb e1 x1 x2 u8):5</text>
</g>
<!-- node_6 -->
<g id="node7" class="node"><title>node_6</title>
<polygon fill="none" stroke="#000000" points="161,-412 11,-412 11,-376 161,-376 161,-412"/>
<polygon fill="none" stroke="#000000" points="165,-416 7,-416 7,-372 165,-372 165,-416"/>
<text text-anchor="middle" x="86" y="-391.2" font-family="Consolas" font-size="11.00" fill="#000000">(heat&#45;vb e3 e1 u6 u7):6</text>
</g>
<!-- node_7 -->
<g id="node8" class="node"><title>node_7</title>
<polygon fill="none" stroke="#000000" points="165,-474 7,-474 7,-438 165,-438 165,-474"/>
<polygon fill="none" stroke="#000000" points="169,-478 3,-478 3,-434 169,-434 169,-478"/>
<text text-anchor="middle" x="86" y="-453.2" font-family="Consolas" font-size="11.00" fill="#000000">(object&#45;vb e2 e1 u5 e3):7</text>
</g>
</g>
</svg>
