<?xml version="1.0" encoding="UTF-8" standalone="no"?>
<!DOCTYPE svg PUBLIC "-//W3C//DTD SVG 1.1//EN"
 "http://www.w3.org/Graphics/SVG/1.1/DTD/svg11.dtd">
<!-- Generated by graphviz version 2.38.0 (20140413.2041)
 -->
<!-- Title: proofgraph Pages: 1 -->
<svg width="369pt" height="734pt"
 viewBox="0.00 0.00 369.00 734.00" xmlns="http://www.w3.org/2000/svg" xmlns:xlink="http://www.w3.org/1999/xlink">
<g id="graph0" class="graph" transform="scale(1 1) rotate(0) translate(4 730)">
<title>proofgraph</title>
<polygon fill="white" stroke="none" points="-4,4 -4,-730 365,-730 365,4 -4,4"/>
<!-- node_0 -->
<g id="node1" class="node"><title>node_0</title>
<polygon fill="none" stroke="#000000" points="147,-40 26,-40 26,-4 147,-4 147,-40"/>
<polygon fill="none" stroke="#000000" points="151,-44 22,-44 22,-0 151,-0 151,-44"/>
<text text-anchor="middle" x="86.5" y="-19.2" font-family="Consolas" font-size="11.00" fill="#000000">(joan&#45;nn e17 x1):0</text>
</g>
<!-- node_1 -->
<g id="node2" class="node"><title>node_1</title>
<polygon fill="none" stroke="#000000" points="136,-102 37,-102 37,-66 136,-66 136,-102"/>
<polygon fill="none" stroke="#000000" points="140,-106 33,-106 33,-62 140,-62 140,-106"/>
<text text-anchor="middle" x="86.5" y="-81.2" font-family="Consolas" font-size="11.00" fill="#000000">(per e18 x1):1</text>
</g>
<!-- node_6 -->
<g id="node7" class="node"><title>node_6</title>
<polygon fill="none" stroke="#000000" points="357,-102 258,-102 258,-66 357,-66 357,-102"/>
<polygon fill="none" stroke="#000000" points="361,-106 254,-106 254,-62 361,-62 361,-106"/>
<text text-anchor="middle" x="307.5" y="-81.2" font-family="Consolas" font-size="11.00" fill="#000000">(per e12 x2):6</text>
</g>
<!-- node_1&#45;&gt;node_6 -->
<g id="edge1" class="edge"><title>node_1&#45;&gt;node_6</title>
<path fill="none" stroke="#000000" stroke-dasharray="1,5" d="M140.235,-84C174.661,-84 219.434,-84 253.844,-84"/>
<text text-anchor="middle" x="213.5" y="-98" font-family="Consolas" font-size="10.00" fill="#000000">x1=x2</text>
<text text-anchor="middle" x="213.5" y="-87" font-family="Consolas" font-size="10.00" fill="#000000">e18=e12</text>
</g>
<!-- node_2 -->
<g id="node3" class="node"><title>node_2</title>
<polygon fill="none" stroke="#000000" points="168.5,-164 4.5,-164 4.5,-128 168.5,-128 168.5,-164"/>
<polygon fill="none" stroke="#000000" points="172.5,-168 0.5,-168 0.5,-124 172.5,-124 172.5,-168"/>
<text text-anchor="middle" x="86.5" y="-143.2" font-family="Consolas" font-size="11.00" fill="#000000">(make&#45;vb e1 x1 u16 e3):2</text>
</g>
<!-- node_3 -->
<g id="node4" class="node"><title>node_3</title>
<polygon fill="none" stroke="#000000" points="146,-226 27,-226 27,-190 146,-190 146,-226"/>
<polygon fill="none" stroke="#000000" points="150,-230 23,-230 23,-186 150,-186 150,-230"/>
<text text-anchor="middle" x="86.5" y="-205.2" font-family="Consolas" font-size="11.00" fill="#000000">(female e15 x1):3</text>
</g>
<!-- node_4 -->
<g id="node5" class="node"><title>node_4</title>
<polygon fill="none" stroke="#000000" points="168,-288 5,-288 5,-252 168,-252 168,-288"/>
<polygon fill="none" stroke="#000000" points="172,-292 1,-292 1,-248 172,-248 172,-292"/>
<text text-anchor="middle" x="86.5" y="-267.2" font-family="Consolas" font-size="11.00" fill="#000000">(give&#45;vb e2 x1 u13 u14):4</text>
</g>
<!-- node_5 -->
<g id="node6" class="node"><title>node_5</title>
<polygon fill="none" stroke="#000000" points="152,-350 21,-350 21,-314 152,-314 152,-350"/>
<polygon fill="none" stroke="#000000" points="156,-354 17,-354 17,-310 156,-310 156,-354"/>
<text text-anchor="middle" x="86.5" y="-329.2" font-family="Consolas" font-size="11.00" fill="#000000">(susan&#45;nn e11 x2):5</text>
</g>
<!-- node_9 -->
<g id="node8" class="node"><title>node_9</title>
<polygon fill="none" stroke="#000000" points="169,-412 4,-412 4,-376 169,-376 169,-412"/>
<polygon fill="none" stroke="#000000" points="173,-416 0,-416 0,-372 173,-372 173,-416"/>
<text text-anchor="middle" x="86.5" y="-391.2" font-family="Consolas" font-size="11.00" fill="#000000">(thank&#45;vb e4 x1 x2 u10):9</text>
</g>
<!-- node_10 -->
<g id="node9" class="node"><title>node_10</title>
<polygon fill="none" stroke="#000000" points="146,-474 27,-474 27,-438 146,-438 146,-474"/>
<polygon fill="none" stroke="#000000" points="150,-478 23,-478 23,-434 150,-434 150,-478"/>
<text text-anchor="middle" x="86.5" y="-453.2" font-family="Consolas" font-size="11.00" fill="#000000">(imp e7 e8 e9):10</text>
</g>
<!-- node_11 -->
<g id="node10" class="node"><title>node_11</title>
<polygon fill="none" stroke="#000000" points="149.5,-536 23.5,-536 23.5,-500 149.5,-500 149.5,-536"/>
<polygon fill="none" stroke="#000000" points="153.5,-540 19.5,-540 19.5,-496 153.5,-496 153.5,-540"/>
<text text-anchor="middle" x="86.5" y="-515.2" font-family="Consolas" font-size="11.00" fill="#000000">(for&#45;in e9 e4 x3):11</text>
</g>
<!-- node_12 -->
<g id="node11" class="node"><title>node_12</title>
<polygon fill="none" stroke="#000000" points="151,-598 22,-598 22,-562 151,-562 151,-598"/>
<polygon fill="none" stroke="#000000" points="155,-602 18,-602 18,-558 155,-558 155,-602"/>
<text text-anchor="middle" x="86.5" y="-577.2" font-family="Consolas" font-size="11.00" fill="#000000">(equal e8 x3 x4):12</text>
</g>
<!-- node_13 -->
<g id="node12" class="node"><title>node_13</title>
<polygon fill="none" stroke="#000000" points="148.5,-660 24.5,-660 24.5,-624 148.5,-624 148.5,-660"/>
<polygon fill="none" stroke="#000000" points="152.5,-664 20.5,-664 20.5,-620 152.5,-620 152.5,-664"/>
<text text-anchor="middle" x="86.5" y="-639.2" font-family="Consolas" font-size="11.00" fill="#000000">(sure&#45;adj e3 e4):13</text>
</g>
<!-- node_14 -->
<g id="node13" class="node"><title>node_14</title>
<polygon fill="none" stroke="#000000" points="147,-722 26,-722 26,-686 147,-686 147,-722"/>
<polygon fill="none" stroke="#000000" points="151,-726 22,-726 22,-682 151,-682 151,-726"/>
<text text-anchor="middle" x="86.5" y="-701.2" font-family="Consolas" font-size="11.00" fill="#000000">(help&#45;nn e6 x4):14</text>
</g>
</g>
</svg>
