<?xml version="1.0" encoding="UTF-8" standalone="no"?>
<!DOCTYPE svg PUBLIC "-//W3C//DTD SVG 1.1//EN"
 "http://www.w3.org/Graphics/SVG/1.1/DTD/svg11.dtd">
<!-- Generated by graphviz version 2.38.0 (20140413.2041)
 -->
<!-- Title: proofgraph Pages: 1 -->
<svg width="163pt" height="610pt"
 viewBox="0.00 0.00 163.00 610.00" xmlns="http://www.w3.org/2000/svg" xmlns:xlink="http://www.w3.org/1999/xlink">
<g id="graph0" class="graph" transform="scale(1 1) rotate(0) translate(4 606)">
<title>proofgraph</title>
<polygon fill="white" stroke="none" points="-4,4 -4,-606 159,-606 159,4 -4,4"/>
<!-- node_0 -->
<g id="node1" class="node"><title>node_0</title>
<polygon fill="none" stroke="#000000" points="137,-40 18,-40 18,-4 137,-4 137,-40"/>
<polygon fill="none" stroke="#000000" points="141,-44 14,-44 14,-0 141,-0 141,-44"/>
<text text-anchor="middle" x="77.5" y="-19.2" font-family="Consolas" font-size="11.00" fill="#000000">(star&#45;nn e10 x1):0</text>
</g>
<!-- node_1 -->
<g id="node2" class="node"><title>node_1</title>
<polygon fill="none" stroke="#000000" points="141.5,-102 13.5,-102 13.5,-66 141.5,-66 141.5,-102"/>
<polygon fill="none" stroke="#000000" points="145.5,-106 9.5,-106 9.5,-62 145.5,-62 145.5,-106"/>
<text text-anchor="middle" x="77.5" y="-81.2" font-family="Consolas" font-size="11.00" fill="#000000">(source&#45;nn e9 x3):1</text>
</g>
<!-- node_2 -->
<g id="node3" class="node"><title>node_2</title>
<polygon fill="none" stroke="#000000" points="135,-164 20,-164 20,-128 135,-128 135,-164"/>
<polygon fill="none" stroke="#000000" points="139,-168 16,-168 16,-124 139,-124 139,-168"/>
<text text-anchor="middle" x="77.5" y="-143.2" font-family="Consolas" font-size="11.00" fill="#000000">(light&#45;adj s2 x4):2</text>
</g>
<!-- node_3 -->
<g id="node4" class="node"><title>node_3</title>
<polygon fill="none" stroke="#000000" points="141.5,-226 13.5,-226 13.5,-190 141.5,-190 141.5,-226"/>
<polygon fill="none" stroke="#000000" points="145.5,-230 9.5,-230 9.5,-186 145.5,-186 145.5,-230"/>
<text text-anchor="middle" x="77.5" y="-205.2" font-family="Consolas" font-size="11.00" fill="#000000">(energy&#45;nn e8 x4):3</text>
</g>
<!-- node_4 -->
<g id="node5" class="node"><title>node_4</title>
<polygon fill="none" stroke="#000000" points="135,-288 20,-288 20,-252 135,-252 135,-288"/>
<polygon fill="none" stroke="#000000" points="139,-292 16,-292 16,-248 139,-248 139,-292"/>
<text text-anchor="middle" x="77.5" y="-267.2" font-family="Consolas" font-size="11.00" fill="#000000">(of&#45;in e7 x3 x4):4</text>
</g>
<!-- node_5 -->
<g id="node6" class="node"><title>node_5</title>
<polygon fill="none" stroke="#000000" points="138.5,-350 16.5,-350 16.5,-314 138.5,-314 138.5,-350"/>
<polygon fill="none" stroke="#000000" points="142.5,-354 12.5,-354 12.5,-310 142.5,-310 142.5,-354"/>
<text text-anchor="middle" x="77.5" y="-329.2" font-family="Consolas" font-size="11.00" fill="#000000">(equal e6 x1 x3):5</text>
</g>
<!-- node_6 -->
<g id="node7" class="node"><title>node_6</title>
<polygon fill="none" stroke="#000000" points="143,-412 12,-412 12,-376 143,-376 143,-412"/>
<polygon fill="none" stroke="#000000" points="147,-416 8,-416 8,-372 147,-372 147,-416"/>
<text text-anchor="middle" x="77.5" y="-391.2" font-family="Consolas" font-size="11.00" fill="#000000">(nuclear&#45;adj s1 x2):6</text>
</g>
<!-- node_7 -->
<g id="node8" class="node"><title>node_7</title>
<polygon fill="none" stroke="#000000" points="145,-474 10,-474 10,-438 145,-438 145,-474"/>
<polygon fill="none" stroke="#000000" points="149,-478 6,-478 6,-434 149,-434 149,-478"/>
<text text-anchor="middle" x="77.5" y="-453.2" font-family="Consolas" font-size="11.00" fill="#000000">(reaction&#45;nn e5 x2):7</text>
</g>
<!-- node_8 -->
<g id="node9" class="node"><title>node_8</title>
<polygon fill="none" stroke="#000000" points="132,-536 23,-536 23,-500 132,-500 132,-536"/>
<polygon fill="none" stroke="#000000" points="136,-540 19,-540 19,-496 136,-496 136,-540"/>
<text text-anchor="middle" x="77.5" y="-515.2" font-family="Consolas" font-size="11.00" fill="#000000">(card e4 x2 2):8</text>
</g>
<!-- node_9 -->
<g id="node10" class="node"><title>node_9</title>
<polygon fill="none" stroke="#000000" points="151,-598 4,-598 4,-562 151,-562 151,-598"/>
<polygon fill="none" stroke="#000000" points="155,-602 0,-602 0,-558 155,-558 155,-602"/>
<text text-anchor="middle" x="77.5" y="-577.2" font-family="Consolas" font-size="11.00" fill="#000000">(through&#45;in e3 e9 x2):9</text>
</g>
</g>
</svg>
