<?xml version="1.0" encoding="UTF-8" standalone="no"?>
<!DOCTYPE svg PUBLIC "-//W3C//DTD SVG 1.1//EN"
 "http://www.w3.org/Graphics/SVG/1.1/DTD/svg11.dtd">
<!-- Generated by graphviz version 2.38.0 (20140413.2041)
 -->
<!-- Title: proofgraph Pages: 1 -->
<svg width="186pt" height="362pt"
 viewBox="0.00 0.00 186.00 362.00" xmlns="http://www.w3.org/2000/svg" xmlns:xlink="http://www.w3.org/1999/xlink">
<g id="graph0" class="graph" transform="scale(1 1) rotate(0) translate(4 358)">
<title>proofgraph</title>
<polygon fill="white" stroke="none" points="-4,4 -4,-358 182,-358 182,4 -4,4"/>
<!-- node_0 -->
<g id="node1" class="node"><title>node_0</title>
<polygon fill="none" stroke="#000000" points="161.5,-40 16.5,-40 16.5,-4 161.5,-4 161.5,-40"/>
<polygon fill="none" stroke="#000000" points="165.5,-44 12.5,-44 12.5,-0 165.5,-0 165.5,-44"/>
<text text-anchor="middle" x="89" y="-19.2" font-family="Consolas" font-size="11.00" fill="#000000">(conductor&#45;nn e8 x1):0</text>
</g>
<!-- node_1 -->
<g id="node2" class="node"><title>node_1</title>
<polygon fill="none" stroke="#000000" points="138,-102 40,-102 40,-66 138,-66 138,-102"/>
<polygon fill="none" stroke="#000000" points="142,-106 36,-106 36,-62 142,-62 142,-106"/>
<text text-anchor="middle" x="89" y="-81.2" font-family="Consolas" font-size="11.00" fill="#000000">(nam e9 x1):1</text>
</g>
<!-- node_2 -->
<g id="node3" class="node"><title>node_2</title>
<polygon fill="none" stroke="#000000" points="153,-164 25,-164 25,-128 153,-128 153,-164"/>
<polygon fill="none" stroke="#000000" points="157,-168 21,-168 21,-124 157,-124 157,-168"/>
<text text-anchor="middle" x="89" y="-143.2" font-family="Consolas" font-size="11.00" fill="#000000">(person&#45;nn e7 x2):2</text>
</g>
<!-- node_3 -->
<g id="node4" class="node"><title>node_3</title>
<polygon fill="none" stroke="#000000" points="160.5,-226 17.5,-226 17.5,-190 160.5,-190 160.5,-226"/>
<polygon fill="none" stroke="#000000" points="164.5,-230 13.5,-230 13.5,-186 164.5,-186 164.5,-230"/>
<text text-anchor="middle" x="89" y="-205.2" font-family="Consolas" font-size="11.00" fill="#000000">(orchestra&#45;nn e6 x3):3</text>
</g>
<!-- node_4 -->
<g id="node5" class="node"><title>node_4</title>
<polygon fill="none" stroke="#000000" points="174,-288 4,-288 4,-252 174,-252 174,-288"/>
<polygon fill="none" stroke="#000000" points="178,-292 0,-292 0,-248 178,-248 178,-292"/>
<text text-anchor="middle" x="89" y="-267.2" font-family="Consolas" font-size="11.00" fill="#000000">(conduct&#45;vb e2 x2 x3 u5):4</text>
</g>
<!-- node_5 -->
<g id="node6" class="node"><title>node_5</title>
<polygon fill="none" stroke="#000000" points="150,-350 28,-350 28,-314 150,-314 150,-350"/>
<polygon fill="none" stroke="#000000" points="154,-354 24,-354 24,-310 154,-310 154,-354"/>
<text text-anchor="middle" x="89" y="-329.2" font-family="Consolas" font-size="11.00" fill="#000000">(equal e4 x1 x2):5</text>
</g>
</g>
</svg>
