<?xml version="1.0" encoding="UTF-8" standalone="no"?>
<!DOCTYPE svg PUBLIC "-//W3C//DTD SVG 1.1//EN"
 "http://www.w3.org/Graphics/SVG/1.1/DTD/svg11.dtd">
<!-- Generated by graphviz version 2.38.0 (20140413.2041)
 -->
<!-- Title: proofgraph Pages: 1 -->
<svg width="178pt" height="362pt"
 viewBox="0.00 0.00 178.00 362.00" xmlns="http://www.w3.org/2000/svg" xmlns:xlink="http://www.w3.org/1999/xlink">
<g id="graph0" class="graph" transform="scale(1 1) rotate(0) translate(4 358)">
<title>proofgraph</title>
<polygon fill="white" stroke="none" points="-4,4 -4,-358 174,-358 174,4 -4,4"/>
<!-- node_0 -->
<g id="node1" class="node"><title>node_0</title>
<polygon fill="none" stroke="#000000" points="146,-40 24,-40 24,-4 146,-4 146,-40"/>
<polygon fill="none" stroke="#000000" points="150,-44 20,-44 20,-0 150,-0 150,-44"/>
<text text-anchor="middle" x="85" y="-19.2" font-family="Consolas" font-size="11.00" fill="#000000">(white&#45;adj s1 x1):0</text>
</g>
<!-- node_1 -->
<g id="node2" class="node"><title>node_1</title>
<polygon fill="none" stroke="#000000" points="147,-102 23,-102 23,-66 147,-66 147,-102"/>
<polygon fill="none" stroke="#000000" points="151,-106 19,-106 19,-62 151,-62 151,-106"/>
<text text-anchor="middle" x="85" y="-81.2" font-family="Consolas" font-size="11.00" fill="#000000">(object&#45;nn e6 x1):1</text>
</g>
<!-- node_2 -->
<g id="node3" class="node"><title>node_2</title>
<polygon fill="none" stroke="#000000" points="140,-164 30,-164 30,-128 140,-128 140,-164"/>
<polygon fill="none" stroke="#000000" points="144,-168 26,-168 26,-124 144,-124 144,-168"/>
<text text-anchor="middle" x="85" y="-143.2" font-family="Consolas" font-size="11.00" fill="#000000">(imp e3 s2 e1):2</text>
</g>
<!-- node_3 -->
<g id="node4" class="node"><title>node_3</title>
<polygon fill="none" stroke="#000000" points="166,-226 4,-226 4,-190 166,-190 166,-226"/>
<polygon fill="none" stroke="#000000" points="170,-230 0,-230 0,-186 170,-186 170,-230"/>
<text text-anchor="middle" x="85" y="-205.2" font-family="Consolas" font-size="11.00" fill="#000000">(reflect&#45;vb e1 x1 x2 u5):3</text>
</g>
<!-- node_4 -->
<g id="node5" class="node"><title>node_4</title>
<polygon fill="none" stroke="#000000" points="147.5,-288 22.5,-288 22.5,-252 147.5,-252 147.5,-288"/>
<polygon fill="none" stroke="#000000" points="151.5,-292 18.5,-292 18.5,-248 151.5,-248 151.5,-292"/>
<text text-anchor="middle" x="85" y="-267.2" font-family="Consolas" font-size="11.00" fill="#000000">(visible&#45;adj s2 x2):4</text>
</g>
<!-- node_5 -->
<g id="node6" class="node"><title>node_5</title>
<polygon fill="none" stroke="#000000" points="141.5,-350 28.5,-350 28.5,-314 141.5,-314 141.5,-350"/>
<polygon fill="none" stroke="#000000" points="145.5,-354 24.5,-354 24.5,-310 145.5,-310 145.5,-354"/>
<text text-anchor="middle" x="85" y="-329.2" font-family="Consolas" font-size="11.00" fill="#000000">(light&#45;nn e4 x2):5</text>
</g>
</g>
</svg>
