<?xml version="1.0" encoding="UTF-8" standalone="no"?>
<!DOCTYPE svg PUBLIC "-//W3C//DTD SVG 1.1//EN"
 "http://www.w3.org/Graphics/SVG/1.1/DTD/svg11.dtd">
<!-- Generated by graphviz version 2.38.0 (20140413.2041)
 -->
<!-- Title: proofgraph Pages: 1 -->
<svg width="180pt" height="176pt"
 viewBox="0.00 0.00 180.00 176.00" xmlns="http://www.w3.org/2000/svg" xmlns:xlink="http://www.w3.org/1999/xlink">
<g id="graph0" class="graph" transform="scale(1 1) rotate(0) translate(4 172)">
<title>proofgraph</title>
<polygon fill="white" stroke="none" points="-4,4 -4,-172 176,-172 176,4 -4,4"/>
<!-- node_0 -->
<g id="node1" class="node"><title>node_0</title>
<polygon fill="none" stroke="#000000" points="147,-40 25,-40 25,-4 147,-4 147,-40"/>
<polygon fill="none" stroke="#000000" points="151,-44 21,-44 21,-0 151,-0 151,-44"/>
<text text-anchor="middle" x="86" y="-19.2" font-family="Consolas" font-size="11.00" fill="#000000">(prism&#45;nn e5 x1):0</text>
</g>
<!-- node_1 -->
<g id="node2" class="node"><title>node_1</title>
<polygon fill="none" stroke="#000000" points="142.5,-102 29.5,-102 29.5,-66 142.5,-66 142.5,-102"/>
<polygon fill="none" stroke="#000000" points="146.5,-106 25.5,-106 25.5,-62 146.5,-62 146.5,-106"/>
<text text-anchor="middle" x="86" y="-81.2" font-family="Consolas" font-size="11.00" fill="#000000">(light&#45;nn e4 x2):1</text>
</g>
<!-- node_2 -->
<g id="node3" class="node"><title>node_2</title>
<polygon fill="none" stroke="#000000" points="168,-164 4,-164 4,-128 168,-128 168,-164"/>
<polygon fill="none" stroke="#000000" points="172,-168 0,-168 0,-124 172,-124 172,-168"/>
<text text-anchor="middle" x="86" y="-143.2" font-family="Consolas" font-size="11.00" fill="#000000">(refract&#45;vb e1 x1 x2 u3):2</text>
</g>
</g>
</svg>
