<?xml version="1.0" encoding="UTF-8" standalone="no"?>
<!DOCTYPE svg PUBLIC "-//W3C//DTD SVG 1.1//EN"
 "http://www.w3.org/Graphics/SVG/1.1/DTD/svg11.dtd">
<!-- Generated by graphviz version 2.38.0 (20140413.2041)
 -->
<!-- Title: proofgraph Pages: 1 -->
<svg width="184pt" height="362pt"
 viewBox="0.00 0.00 184.00 362.00" xmlns="http://www.w3.org/2000/svg" xmlns:xlink="http://www.w3.org/1999/xlink">
<g id="graph0" class="graph" transform="scale(1 1) rotate(0) translate(4 358)">
<title>proofgraph</title>
<polygon fill="white" stroke="none" points="-4,4 -4,-358 180,-358 180,4 -4,4"/>
<!-- node_0 -->
<g id="node1" class="node"><title>node_0</title>
<polygon fill="none" stroke="#000000" points="147,-40 29,-40 29,-4 147,-4 147,-40"/>
<polygon fill="none" stroke="#000000" points="151,-44 25,-44 25,-0 151,-0 151,-44"/>
<text text-anchor="middle" x="88" y="-19.2" font-family="Consolas" font-size="11.00" fill="#000000">(solar&#45;adj s1 x1):0</text>
</g>
<!-- node_1 -->
<g id="node2" class="node"><title>node_1</title>
<polygon fill="none" stroke="#000000" points="148,-102 28,-102 28,-66 148,-66 148,-102"/>
<polygon fill="none" stroke="#000000" points="152,-106 24,-106 24,-62 152,-62 152,-106"/>
<text text-anchor="middle" x="88" y="-81.2" font-family="Consolas" font-size="11.00" fill="#000000">(panel&#45;nn e7 x1):1</text>
</g>
<!-- node_2 -->
<g id="node3" class="node"><title>node_2</title>
<polygon fill="none" stroke="#000000" points="154.5,-164 21.5,-164 21.5,-128 154.5,-128 154.5,-164"/>
<polygon fill="none" stroke="#000000" points="158.5,-168 17.5,-168 17.5,-124 158.5,-124 158.5,-168"/>
<text text-anchor="middle" x="88" y="-143.2" font-family="Consolas" font-size="11.00" fill="#000000">(sunlight&#45;nn e6 x2):2</text>
</g>
<!-- node_3 -->
<g id="node4" class="node"><title>node_3</title>
<polygon fill="none" stroke="#000000" points="172,-226 4,-226 4,-190 172,-190 172,-226"/>
<polygon fill="none" stroke="#000000" points="176,-230 0,-230 0,-186 176,-186 176,-230"/>
<text text-anchor="middle" x="88" y="-205.2" font-family="Consolas" font-size="11.00" fill="#000000">(convert&#45;vb e1 x1 x2 u5):3</text>
</g>
<!-- node_4 -->
<g id="node5" class="node"><title>node_4</title>
<polygon fill="none" stroke="#000000" points="159.5,-288 16.5,-288 16.5,-252 159.5,-252 159.5,-288"/>
<polygon fill="none" stroke="#000000" points="163.5,-292 12.5,-292 12.5,-248 163.5,-248 163.5,-292"/>
<text text-anchor="middle" x="88" y="-267.2" font-family="Consolas" font-size="11.00" fill="#000000">(electricity&#45;nn e4 x3):4</text>
</g>
<!-- node_5 -->
<g id="node6" class="node"><title>node_5</title>
<polygon fill="none" stroke="#000000" points="150.5,-350 25.5,-350 25.5,-314 150.5,-314 150.5,-350"/>
<polygon fill="none" stroke="#000000" points="154.5,-354 21.5,-354 21.5,-310 154.5,-310 154.5,-354"/>
<text text-anchor="middle" x="88" y="-329.2" font-family="Consolas" font-size="11.00" fill="#000000">(into&#45;in e3 e1 x3):5</text>
</g>
</g>
</svg>
