<?xml version="1.0" encoding="UTF-8" standalone="no"?>
<!DOCTYPE svg PUBLIC "-//W3C//DTD SVG 1.1//EN"
 "http://www.w3.org/Graphics/SVG/1.1/DTD/svg11.dtd">
<!-- Generated by graphviz version 2.38.0 (20140413.2041)
 -->
<!-- Title: proofgraph Pages: 1 -->
<svg width="174pt" height="424pt"
 viewBox="0.00 0.00 174.00 424.00" xmlns="http://www.w3.org/2000/svg" xmlns:xlink="http://www.w3.org/1999/xlink">
<g id="graph0" class="graph" transform="scale(1 1) rotate(0) translate(4 420)">
<title>proofgraph</title>
<polygon fill="white" stroke="none" points="-4,4 -4,-420 170,-420 170,4 -4,4"/>
<!-- node_0 -->
<g id="node1" class="node"><title>node_0</title>
<polygon fill="none" stroke="#000000" points="149,-40 17,-40 17,-4 149,-4 149,-40"/>
<polygon fill="none" stroke="#000000" points="153,-44 13,-44 13,-0 153,-0 153,-44"/>
<text text-anchor="middle" x="83" y="-19.2" font-family="Consolas" font-size="11.00" fill="#000000">(country&#45;nn e9 x1):0</text>
</g>
<!-- node_1 -->
<g id="node2" class="node"><title>node_1</title>
<polygon fill="none" stroke="#000000" points="137.5,-102 28.5,-102 28.5,-66 137.5,-66 137.5,-102"/>
<polygon fill="none" stroke="#000000" points="141.5,-106 24.5,-106 24.5,-62 141.5,-62 141.5,-106"/>
<text text-anchor="middle" x="83" y="-81.2" font-family="Consolas" font-size="11.00" fill="#000000">(card e8 x1 2):1</text>
</g>
<!-- node_2 -->
<g id="node3" class="node"><title>node_2</title>
<polygon fill="none" stroke="#000000" points="154.5,-164 11.5,-164 11.5,-128 154.5,-128 154.5,-164"/>
<polygon fill="none" stroke="#000000" points="158.5,-168 7.5,-168 7.5,-124 158.5,-124 158.5,-168"/>
<text text-anchor="middle" x="83" y="-143.2" font-family="Consolas" font-size="11.00" fill="#000000">(around&#45;in e7 x1 x2):2</text>
</g>
<!-- node_3 -->
<g id="node4" class="node"><title>node_3</title>
<polygon fill="none" stroke="#000000" points="162,-226 4,-226 4,-190 162,-190 162,-226"/>
<polygon fill="none" stroke="#000000" points="166,-230 0,-230 0,-186 166,-186 166,-230"/>
<text text-anchor="middle" x="83" y="-205.2" font-family="Consolas" font-size="11.00" fill="#000000">(speak&#45;vb e1 x1 u6 e2):3</text>
</g>
<!-- node_4 -->
<g id="node5" class="node"><title>node_4</title>
<polygon fill="none" stroke="#000000" points="147,-288 19,-288 19,-252 147,-252 147,-288"/>
<polygon fill="none" stroke="#000000" points="151,-292 15,-292 15,-248 151,-248 151,-292"/>
<text text-anchor="middle" x="83" y="-267.2" font-family="Consolas" font-size="11.00" fill="#000000">(french&#45;adj e2 x1):4</text>
</g>
<!-- node_5 -->
<g id="node6" class="node"><title>node_5</title>
<polygon fill="none" stroke="#000000" points="133.5,-350 32.5,-350 32.5,-314 133.5,-314 133.5,-350"/>
<polygon fill="none" stroke="#000000" points="137.5,-354 28.5,-354 28.5,-310 137.5,-310 137.5,-354"/>
<text text-anchor="middle" x="83" y="-329.2" font-family="Consolas" font-size="11.00" fill="#000000">(what e5 e1):5</text>
</g>
<!-- node_6 -->
<g id="node7" class="node"><title>node_6</title>
<polygon fill="none" stroke="#000000" points="143.5,-412 22.5,-412 22.5,-376 143.5,-376 143.5,-412"/>
<polygon fill="none" stroke="#000000" points="147.5,-416 18.5,-416 18.5,-372 147.5,-372 147.5,-416"/>
<text text-anchor="middle" x="83" y="-391.2" font-family="Consolas" font-size="11.00" fill="#000000">(world&#45;nn e4 x2):6</text>
</g>
</g>
</svg>
