<?xml version="1.0" encoding="UTF-8" standalone="no"?>
<!DOCTYPE svg PUBLIC "-//W3C//DTD SVG 1.1//EN"
 "http://www.w3.org/Graphics/SVG/1.1/DTD/svg11.dtd">
<!-- Generated by graphviz version 2.38.0 (20140413.2041)
 -->
<!-- Title: proofgraph Pages: 1 -->
<svg width="189pt" height="300pt"
 viewBox="0.00 0.00 189.00 300.00" xmlns="http://www.w3.org/2000/svg" xmlns:xlink="http://www.w3.org/1999/xlink">
<g id="graph0" class="graph" transform="scale(1 1) rotate(0) translate(4 296)">
<title>proofgraph</title>
<polygon fill="white" stroke="none" points="-4,4 -4,-296 185,-296 185,4 -4,4"/>
<!-- node_0 -->
<g id="node1" class="node"><title>node_0</title>
<polygon fill="none" stroke="#000000" points="145.5,-40 35.5,-40 35.5,-4 145.5,-4 145.5,-40"/>
<polygon fill="none" stroke="#000000" points="149.5,-44 31.5,-44 31.5,-0 149.5,-0 149.5,-44"/>
<text text-anchor="middle" x="90.5" y="-19.2" font-family="Consolas" font-size="11.00" fill="#000000">(leaf&#45;nn e7 x1):0</text>
</g>
<!-- node_1 -->
<g id="node2" class="node"><title>node_1</title>
<polygon fill="none" stroke="#000000" points="157,-102 24,-102 24,-66 157,-66 157,-102"/>
<polygon fill="none" stroke="#000000" points="161,-106 20,-106 20,-62 161,-62 161,-106"/>
<text text-anchor="middle" x="90.5" y="-81.2" font-family="Consolas" font-size="11.00" fill="#000000">(sunlight&#45;nn e6 x2):1</text>
</g>
<!-- node_2 -->
<g id="node3" class="node"><title>node_2</title>
<polygon fill="none" stroke="#000000" points="177,-164 4,-164 4,-128 177,-128 177,-164"/>
<polygon fill="none" stroke="#000000" points="181,-168 0,-168 0,-124 181,-124 181,-168"/>
<text text-anchor="middle" x="90.5" y="-143.2" font-family="Consolas" font-size="11.00" fill="#000000">(photosynthesis&#45;nn e5 x3):2</text>
</g>
<!-- node_3 -->
<g id="node4" class="node"><title>node_3</title>
<polygon fill="none" stroke="#000000" points="176,-226 5,-226 5,-190 176,-190 176,-226"/>
<polygon fill="none" stroke="#000000" points="180,-230 1,-230 1,-186 180,-186 180,-230"/>
<text text-anchor="middle" x="90.5" y="-205.2" font-family="Consolas" font-size="11.00" fill="#000000">(perform&#45;vb e2 x2 x3 u4):3</text>
</g>
<!-- node_4 -->
<g id="node5" class="node"><title>node_4</title>
<polygon fill="none" stroke="#000000" points="172.5,-288 8.5,-288 8.5,-252 172.5,-252 172.5,-288"/>
<polygon fill="none" stroke="#000000" points="176.5,-292 4.5,-292 4.5,-248 176.5,-248 176.5,-292"/>
<text text-anchor="middle" x="90.5" y="-267.2" font-family="Consolas" font-size="11.00" fill="#000000">(absorb&#45;vb e1 x1 x2 e2):4</text>
</g>
</g>
</svg>
