<?xml version="1.0" encoding="UTF-8" standalone="no"?>
<!DOCTYPE svg PUBLIC "-//W3C//DTD SVG 1.1//EN"
 "http://www.w3.org/Graphics/SVG/1.1/DTD/svg11.dtd">
<!-- Generated by graphviz version 2.38.0 (20140413.2041)
 -->
<!-- Title: proofgraph Pages: 1 -->
<svg width="168pt" height="672pt"
 viewBox="0.00 0.00 168.00 672.00" xmlns="http://www.w3.org/2000/svg" xmlns:xlink="http://www.w3.org/1999/xlink">
<g id="graph0" class="graph" transform="scale(1 1) rotate(0) translate(4 668)">
<title>proofgraph</title>
<polygon fill="white" stroke="none" points="-4,4 -4,-668 164,-668 164,4 -4,4"/>
<!-- node_0 -->
<g id="node1" class="node"><title>node_0</title>
<polygon fill="none" stroke="#000000" points="151.5,-40 8.5,-40 8.5,-4 151.5,-4 151.5,-40"/>
<polygon fill="none" stroke="#000000" points="155.5,-44 4.5,-44 4.5,-0 155.5,-0 155.5,-44"/>
<text text-anchor="middle" x="80" y="-19.2" font-family="Consolas" font-size="11.00" fill="#000000">(complete&#45;adj s1 x1):0</text>
</g>
<!-- node_1 -->
<g id="node2" class="node"><title>node_1</title>
<polygon fill="none" stroke="#000000" points="156,-102 4,-102 4,-66 156,-66 156,-102"/>
<polygon fill="none" stroke="#000000" points="160,-106 0,-106 0,-62 160,-62 160,-106"/>
<text text-anchor="middle" x="80" y="-81.2" font-family="Consolas" font-size="11.00" fill="#000000">(revolution&#45;nn e11 x1):1</text>
</g>
<!-- node_2 -->
<g id="node3" class="node"><title>node_2</title>
<polygon fill="none" stroke="#000000" points="141,-164 19,-164 19,-128 141,-128 141,-164"/>
<polygon fill="none" stroke="#000000" points="145,-168 15,-168 15,-124 145,-124 145,-168"/>
<text text-anchor="middle" x="80" y="-143.2" font-family="Consolas" font-size="11.00" fill="#000000">(of&#45;in e10 x1 x2):2</text>
</g>
<!-- node_3 -->
<g id="node4" class="node"><title>node_3</title>
<polygon fill="none" stroke="#000000" points="151.5,-226 8.5,-226 8.5,-190 151.5,-190 151.5,-226"/>
<polygon fill="none" stroke="#000000" points="155.5,-230 4.5,-230 4.5,-186 155.5,-186 155.5,-230"/>
<text text-anchor="middle" x="80" y="-205.2" font-family="Consolas" font-size="11.00" fill="#000000">(around&#45;in e9 x1 x3):3</text>
</g>
<!-- node_4 -->
<g id="node5" class="node"><title>node_4</title>
<polygon fill="none" stroke="#000000" points="134.5,-288 25.5,-288 25.5,-252 134.5,-252 134.5,-288"/>
<polygon fill="none" stroke="#000000" points="138.5,-292 21.5,-292 21.5,-248 138.5,-248 138.5,-292"/>
<text text-anchor="middle" x="80" y="-267.2" font-family="Consolas" font-size="11.00" fill="#000000">(card e8 x4 1):4</text>
</g>
<!-- node_5 -->
<g id="node6" class="node"><title>node_5</title>
<polygon fill="none" stroke="#000000" points="139,-350 21,-350 21,-314 139,-314 139,-350"/>
<polygon fill="none" stroke="#000000" points="143,-354 17,-354 17,-310 143,-310 143,-354"/>
<text text-anchor="middle" x="80" y="-329.2" font-family="Consolas" font-size="11.00" fill="#000000">(solar&#45;adj s2 x4):5</text>
</g>
<!-- node_6 -->
<g id="node7" class="node"><title>node_6</title>
<polygon fill="none" stroke="#000000" points="137,-412 23,-412 23,-376 137,-376 137,-412"/>
<polygon fill="none" stroke="#000000" points="141,-416 19,-416 19,-372 141,-372 141,-416"/>
<text text-anchor="middle" x="80" y="-391.2" font-family="Consolas" font-size="11.00" fill="#000000">(year&#45;nn e7 x4):6</text>
</g>
<!-- node_7 -->
<g id="node8" class="node"><title>node_7</title>
<polygon fill="none" stroke="#000000" points="155,-474 5,-474 5,-438 155,-438 155,-474"/>
<polygon fill="none" stroke="#000000" points="159,-478 1,-478 1,-434 159,-434 159,-478"/>
<text text-anchor="middle" x="80" y="-453.2" font-family="Consolas" font-size="11.00" fill="#000000">(take&#45;vb e1 x1 x4 u6):7</text>
</g>
<!-- node_8 -->
<g id="node9" class="node"><title>node_8</title>
<polygon fill="none" stroke="#000000" points="140,-536 20,-536 20,-500 140,-500 140,-536"/>
<polygon fill="none" stroke="#000000" points="144,-540 16,-540 16,-496 144,-496 144,-540"/>
<text text-anchor="middle" x="80" y="-515.2" font-family="Consolas" font-size="11.00" fill="#000000">(earth&#45;nn e4 x2):8</text>
</g>
<!-- node_9 -->
<g id="node10" class="node"><title>node_9</title>
<polygon fill="none" stroke="#000000" points="124.5,-598 35.5,-598 35.5,-562 124.5,-562 124.5,-598"/>
<polygon fill="none" stroke="#000000" points="128.5,-602 31.5,-602 31.5,-558 128.5,-558 128.5,-602"/>
<text text-anchor="middle" x="80" y="-577.2" font-family="Consolas" font-size="11.00" fill="#000000">(loc e5 x2):9</text>
</g>
<!-- node_10 -->
<g id="node11" class="node"><title>node_10</title>
<polygon fill="none" stroke="#000000" points="139,-660 21,-660 21,-624 139,-624 139,-660"/>
<polygon fill="none" stroke="#000000" points="143,-664 17,-664 17,-620 143,-620 143,-664"/>
<text text-anchor="middle" x="80" y="-639.2" font-family="Consolas" font-size="11.00" fill="#000000">(sun&#45;nn e3 x3):10</text>
</g>
</g>
</svg>
