<?xml version="1.0" encoding="UTF-8" standalone="no"?>
<!DOCTYPE svg PUBLIC "-//W3C//DTD SVG 1.1//EN"
 "http://www.w3.org/Graphics/SVG/1.1/DTD/svg11.dtd">
<!-- Generated by graphviz version 2.38.0 (20140413.2041)
 -->
<!-- Title: proofgraph Pages: 1 -->
<svg width="411pt" height="672pt"
 viewBox="0.00 0.00 411.00 672.00" xmlns="http://www.w3.org/2000/svg" xmlns:xlink="http://www.w3.org/1999/xlink">
<g id="graph0" class="graph" transform="scale(1 1) rotate(0) translate(4 668)">
<title>proofgraph</title>
<polygon fill="white" stroke="none" points="-4,4 -4,-668 407,-668 407,4 -4,4"/>
<!-- node_0 -->
<g id="node1" class="node"><title>node_0</title>
<polygon fill="none" stroke="#000000" points="151,-40 26,-40 26,-4 151,-4 151,-40"/>
<polygon fill="none" stroke="#000000" points="155,-44 22,-44 22,-3.55271e-15 155,-3.55271e-15 155,-44"/>
<text text-anchor="middle" x="88.5" y="-19.2" font-family="Consolas" font-size="11.00" fill="#000000">(cycle&#45;nn e14 x2):0</text>
</g>
<!-- node_1 -->
<g id="node2" class="node"><title>node_1</title>
<polygon fill="none" stroke="#000000" points="146.5,-102 30.5,-102 30.5,-66 146.5,-66 146.5,-102"/>
<polygon fill="none" stroke="#000000" points="150.5,-106 26.5,-106 26.5,-62 150.5,-62 150.5,-106"/>
<text text-anchor="middle" x="88.5" y="-81.2" font-family="Consolas" font-size="11.00" fill="#000000">(card e13 x2 2):1</text>
</g>
<!-- node_12 -->
<g id="node11" class="node"><title>node_12</title>
<polygon fill="none" stroke="#000000" points="385.5,-102 269.5,-102 269.5,-66 385.5,-66 385.5,-102"/>
<polygon fill="none" stroke="#000000" points="389.5,-106 265.5,-106 265.5,-62 389.5,-62 389.5,-106"/>
<text text-anchor="middle" x="327.5" y="-81.2" font-family="Consolas" font-size="11.00" fill="#000000">(card e4 x6 2):12</text>
</g>
<!-- node_1&#45;&gt;node_12 -->
<g id="edge2" class="edge"><title>node_1&#45;&gt;node_12</title>
<path fill="none" stroke="#000000" stroke-dasharray="1,5" d="M150.533,-84C185.781,-84 229.98,-84 265.262,-84"/>
<text text-anchor="middle" x="214.5" y="-98" font-family="Consolas" font-size="10.00" fill="#000000">x2=x6</text>
<text text-anchor="middle" x="214.5" y="-87" font-family="Consolas" font-size="10.00" fill="#000000">e13=e4</text>
</g>
<!-- node_2 -->
<g id="node3" class="node"><title>node_2</title>
<polygon fill="none" stroke="#000000" points="147.5,-164 29.5,-164 29.5,-128 147.5,-128 147.5,-164"/>
<polygon fill="none" stroke="#000000" points="151.5,-168 25.5,-168 25.5,-124 151.5,-124 151.5,-168"/>
<text text-anchor="middle" x="88.5" y="-143.2" font-family="Consolas" font-size="11.00" fill="#000000">(day&#45;nn e12 x4):2</text>
</g>
<!-- node_3 -->
<g id="node4" class="node"><title>node_3</title>
<polygon fill="none" stroke="#000000" points="164,-226 13,-226 13,-190 164,-190 164,-226"/>
<polygon fill="none" stroke="#000000" points="168,-230 9,-230 9,-186 168,-186 168,-230"/>
<text text-anchor="middle" x="88.5" y="-205.2" font-family="Consolas" font-size="11.00" fill="#000000">(subset&#45;of e11 x4 x3):3</text>
</g>
<!-- node_7 -->
<g id="node8" class="node"><title>node_7</title>
<polygon fill="none" stroke="#000000" points="399,-226 256,-226 256,-190 399,-190 399,-226"/>
<polygon fill="none" stroke="#000000" points="403,-230 252,-230 252,-186 403,-186 403,-230"/>
<text text-anchor="middle" x="327.5" y="-205.2" font-family="Consolas" font-size="11.00" fill="#000000">(subset&#45;of e7 x5 x3):7</text>
</g>
<!-- node_3&#45;&gt;node_7 -->
<g id="edge1" class="edge"><title>node_3&#45;&gt;node_7</title>
<path fill="none" stroke="#000000" stroke-dasharray="1,5" d="M168.088,-208C195.037,-208 225.104,-208 251.74,-208"/>
<text text-anchor="middle" x="214.5" y="-222" font-family="Consolas" font-size="10.00" fill="#000000">x4=x5</text>
<text text-anchor="middle" x="214.5" y="-211" font-family="Consolas" font-size="10.00" fill="#000000">e11=e7</text>
</g>
<!-- node_4 -->
<g id="node5" class="node"><title>node_4</title>
<polygon fill="none" stroke="#000000" points="151,-288 26,-288 26,-252 151,-252 151,-288"/>
<polygon fill="none" stroke="#000000" points="155,-292 22,-292 22,-248 155,-248 155,-292"/>
<text text-anchor="middle" x="88.5" y="-267.2" font-family="Consolas" font-size="11.00" fill="#000000">(night&#45;nn e10 x5):4</text>
</g>
<!-- node_5 -->
<g id="node6" class="node"><title>node_5</title>
<polygon fill="none" stroke="#000000" points="151,-350 26,-350 26,-314 151,-314 151,-350"/>
<polygon fill="none" stroke="#000000" points="155,-354 22,-354 22,-310 155,-310 155,-354"/>
<text text-anchor="middle" x="88.5" y="-329.2" font-family="Consolas" font-size="11.00" fill="#000000">(planet&#45;nn e9 x1):5</text>
</g>
<!-- node_6 -->
<g id="node7" class="node"><title>node_6</title>
<polygon fill="none" stroke="#000000" points="148,-412 29,-412 29,-376 148,-376 148,-412"/>
<polygon fill="none" stroke="#000000" points="152,-416 25,-416 25,-372 152,-372 152,-416"/>
<text text-anchor="middle" x="88.5" y="-391.2" font-family="Consolas" font-size="11.00" fill="#000000">(on&#45;in e8 x5 x1):6</text>
</g>
<!-- node_10 -->
<g id="node9" class="node"><title>node_10</title>
<polygon fill="none" stroke="#000000" points="149.5,-474 27.5,-474 27.5,-438 149.5,-438 149.5,-474"/>
<polygon fill="none" stroke="#000000" points="153.5,-478 23.5,-478 23.5,-434 153.5,-434 153.5,-478"/>
<text text-anchor="middle" x="88.5" y="-453.2" font-family="Consolas" font-size="11.00" fill="#000000">(of&#45;in e6 x2 x3):10</text>
</g>
<!-- node_11 -->
<g id="node10" class="node"><title>node_11</title>
<polygon fill="none" stroke="#000000" points="154,-536 23,-536 23,-500 154,-500 154,-536"/>
<polygon fill="none" stroke="#000000" points="158,-540 19,-540 19,-496 158,-496 158,-540"/>
<text text-anchor="middle" x="88.5" y="-515.2" font-family="Consolas" font-size="11.00" fill="#000000">(cause&#45;nn e5 x6):11</text>
</g>
<!-- node_15 -->
<g id="node12" class="node"><title>node_15</title>
<polygon fill="none" stroke="#000000" points="173,-598 4,-598 4,-562 173,-562 173,-598"/>
<polygon fill="none" stroke="#000000" points="177,-602 1.42109e-14,-602 1.42109e-14,-558 177,-558 177,-602"/>
<text text-anchor="middle" x="88.5" y="-577.2" font-family="Consolas" font-size="11.00" fill="#000000">(rotate&#45;vb e1 x1 x2 x6):15</text>
</g>
<!-- node_16 -->
<g id="node13" class="node"><title>node_16</title>
<polygon fill="none" stroke="#000000" points="142,-660 35,-660 35,-624 142,-624 142,-660"/>
<polygon fill="none" stroke="#000000" points="146,-664 31,-664 31,-620 146,-620 146,-664"/>
<text text-anchor="middle" x="88.5" y="-639.2" font-family="Consolas" font-size="11.00" fill="#000000">(topic x1 u3):16</text>
</g>
</g>
</svg>
