<?xml version="1.0" encoding="UTF-8" standalone="no"?>
<!DOCTYPE svg PUBLIC "-//W3C//DTD SVG 1.1//EN"
 "http://www.w3.org/Graphics/SVG/1.1/DTD/svg11.dtd">
<!-- Generated by graphviz version 2.38.0 (20140413.2041)
 -->
<!-- Title: proofgraph Pages: 1 -->
<svg width="384pt" height="610pt"
 viewBox="0.00 0.00 384.00 610.00" xmlns="http://www.w3.org/2000/svg" xmlns:xlink="http://www.w3.org/1999/xlink">
<g id="graph0" class="graph" transform="scale(1 1) rotate(0) translate(4 606)">
<title>proofgraph</title>
<polygon fill="white" stroke="none" points="-4,4 -4,-606 380,-606 380,4 -4,4"/>
<!-- node_0 -->
<g id="node1" class="node"><title>node_0</title>
<polygon fill="none" stroke="#000000" points="150,-40 25,-40 25,-4 150,-4 150,-40"/>
<polygon fill="none" stroke="#000000" points="154,-44 21,-44 21,-0 154,-0 154,-44"/>
<text text-anchor="middle" x="87.5" y="-19.2" font-family="Consolas" font-size="11.00" fill="#000000">(plant&#45;nn e15 x2):0</text>
</g>
<!-- node_5 -->
<g id="node6" class="node"><title>node_5</title>
<polygon fill="none" stroke="#000000" points="372,-40 254,-40 254,-4 372,-4 372,-40"/>
<polygon fill="none" stroke="#000000" points="376,-44 250,-44 250,-0 376,-0 376,-44"/>
<text text-anchor="middle" x="313" y="-19.2" font-family="Consolas" font-size="11.00" fill="#000000">(plant&#45;nn e9 x4):5</text>
</g>
<!-- node_0&#45;&gt;node_5 -->
<g id="edge1" class="edge"><title>node_0&#45;&gt;node_5</title>
<path fill="none" stroke="#000000" stroke-dasharray="1,5" d="M154.047,-22C184.317,-22 220.075,-22 249.907,-22"/>
<text text-anchor="middle" x="212.5" y="-36" font-family="Consolas" font-size="10.00" fill="#000000">e15=e9</text>
<text text-anchor="middle" x="212.5" y="-25" font-family="Consolas" font-size="10.00" fill="#000000">x2=x4</text>
</g>
<!-- node_1 -->
<g id="node2" class="node"><title>node_1</title>
<polygon fill="none" stroke="#000000" points="148.5,-102 26.5,-102 26.5,-66 148.5,-66 148.5,-102"/>
<polygon fill="none" stroke="#000000" points="152.5,-106 22.5,-106 22.5,-62 152.5,-62 152.5,-106"/>
<text text-anchor="middle" x="87.5" y="-81.2" font-family="Consolas" font-size="11.00" fill="#000000">(of&#45;in e14 x1 x2):1</text>
</g>
<!-- node_2 -->
<g id="node3" class="node"><title>node_2</title>
<polygon fill="none" stroke="#000000" points="148,-164 27,-164 27,-128 148,-128 148,-164"/>
<polygon fill="none" stroke="#000000" points="152,-168 23,-168 23,-124 152,-124 152,-168"/>
<text text-anchor="middle" x="87.5" y="-143.2" font-family="Consolas" font-size="11.00" fill="#000000">(light&#45;nn e13 x1):2</text>
</g>
<!-- node_3 -->
<g id="node4" class="node"><title>node_3</title>
<polygon fill="none" stroke="#000000" points="168,-226 7,-226 7,-190 168,-190 168,-226"/>
<polygon fill="none" stroke="#000000" points="172,-230 3,-230 3,-186 172,-186 172,-230"/>
<text text-anchor="middle" x="87.5" y="-205.2" font-family="Consolas" font-size="11.00" fill="#000000">(use&#45;vb e1 u11 x1 u12):3</text>
</g>
<!-- node_4 -->
<g id="node5" class="node"><title>node_4</title>
<polygon fill="none" stroke="#000000" points="148,-288 27,-288 27,-252 148,-252 148,-288"/>
<polygon fill="none" stroke="#000000" points="152,-292 23,-292 23,-248 152,-248 152,-292"/>
<text text-anchor="middle" x="87.5" y="-267.2" font-family="Consolas" font-size="11.00" fill="#000000">(help&#45;nn e10 x3):4</text>
</g>
<!-- node_8 -->
<g id="node7" class="node"><title>node_8</title>
<polygon fill="none" stroke="#000000" points="144.5,-350 30.5,-350 30.5,-314 144.5,-314 144.5,-350"/>
<polygon fill="none" stroke="#000000" points="148.5,-354 26.5,-354 26.5,-310 148.5,-310 148.5,-354"/>
<text text-anchor="middle" x="87.5" y="-329.2" font-family="Consolas" font-size="11.00" fill="#000000">(in&#45;in e8 x3 x4):8</text>
</g>
<!-- node_9 -->
<g id="node8" class="node"><title>node_9</title>
<polygon fill="none" stroke="#000000" points="147,-412 28,-412 28,-376 147,-376 147,-412"/>
<polygon fill="none" stroke="#000000" points="151,-416 24,-416 24,-372 151,-372 151,-416"/>
<text text-anchor="middle" x="87.5" y="-391.2" font-family="Consolas" font-size="11.00" fill="#000000">(for&#45;in e7 e1 x3):9</text>
</g>
<!-- node_10 -->
<g id="node9" class="node"><title>node_10</title>
<polygon fill="none" stroke="#000000" points="157.5,-474 17.5,-474 17.5,-438 157.5,-438 157.5,-474"/>
<polygon fill="none" stroke="#000000" points="161.5,-478 13.5,-478 13.5,-434 161.5,-434 161.5,-478"/>
<text text-anchor="middle" x="87.5" y="-453.2" font-family="Consolas" font-size="11.00" fill="#000000">(sunlight&#45;nn e6 x5):10</text>
</g>
<!-- node_11 -->
<g id="node10" class="node"><title>node_11</title>
<polygon fill="none" stroke="#000000" points="171,-536 4,-536 4,-500 171,-500 171,-536"/>
<polygon fill="none" stroke="#000000" points="175,-540 0,-540 0,-496 175,-496 175,-540"/>
<text text-anchor="middle" x="87.5" y="-515.2" font-family="Consolas" font-size="11.00" fill="#000000">(mimic&#45;vb e2 x1 x5 u5):11</text>
</g>
<!-- node_12 -->
<g id="node11" class="node"><title>node_12</title>
<polygon fill="none" stroke="#000000" points="149.5,-598 25.5,-598 25.5,-562 149.5,-562 149.5,-598"/>
<polygon fill="none" stroke="#000000" points="153.5,-602 21.5,-602 21.5,-558 153.5,-558 153.5,-602"/>
<text text-anchor="middle" x="87.5" y="-577.2" font-family="Consolas" font-size="11.00" fill="#000000">(by&#45;in e4 e1 e2):12</text>
</g>
</g>
</svg>
