<?xml version="1.0" encoding="UTF-8" standalone="no"?>
<!DOCTYPE svg PUBLIC "-//W3C//DTD SVG 1.1//EN"
 "http://www.w3.org/Graphics/SVG/1.1/DTD/svg11.dtd">
<!-- Generated by graphviz version 2.38.0 (20140413.2041)
 -->
<!-- Title: proofgraph Pages: 1 -->
<svg width="623pt" height="238pt"
 viewBox="0.00 0.00 623.00 238.00" xmlns="http://www.w3.org/2000/svg" xmlns:xlink="http://www.w3.org/1999/xlink">
<g id="graph0" class="graph" transform="scale(1 1) rotate(0) translate(4 234)">
<title>proofgraph</title>
<polygon fill="white" stroke="none" points="-4,4 -4,-234 619,-234 619,4 -4,4"/>
<!-- node_0 -->
<g id="node1" class="node"><title>node_0</title>
<polygon fill="none" stroke="#000000" points="144,-40 17,-40 17,-4 144,-4 144,-40"/>
<polygon fill="none" stroke="#000000" points="148,-44 13,-44 13,-0 148,-0 148,-44"/>
<text text-anchor="middle" x="80.5" y="-19.2" font-family="Consolas" font-size="11.00" fill="#000000">(animal&#45;nn e6 x1):0</text>
</g>
<!-- node_5 -->
<g id="node5" class="node"><title>node_5</title>
<polygon fill="none" stroke="#000000" points="380,-40 263,-40 263,-4 380,-4 380,-40"/>
<text text-anchor="middle" x="321.5" y="-19.2" font-family="Consolas" font-size="11.00" fill="#000000">(dog&#45;nn _u2 x1):5</text>
</g>
<!-- node_0&#45;&gt;node_5 -->
<g id="edge1" class="edge"><title>node_0&#45;&gt;node_5</title>
<path fill="none" stroke="#000000" d="M158.412,-22C192.31,-22 231.469,-22 262.804,-22"/>
<polygon fill="#000000" stroke="#000000" points="158.075,-18.5001 148.075,-22 158.075,-25.5001 158.075,-18.5001"/>
<text text-anchor="middle" x="212" y="-25" font-family="Consolas" font-size="10.00" fill="#000000">dog&#45;is&#45;animal</text>
</g>
<!-- node_1 -->
<g id="node2" class="node"><title>node_1</title>
<polygon fill="none" stroke="#000000" points="135,-102 26,-102 26,-66 135,-66 135,-102"/>
<polygon fill="none" stroke="#000000" points="139,-106 22,-106 22,-62 139,-62 139,-106"/>
<text text-anchor="middle" x="80.5" y="-81.2" font-family="Consolas" font-size="11.00" fill="#000000">(card e5 x1 2):1</text>
</g>
<!-- node_2 -->
<g id="node3" class="node"><title>node_2</title>
<polygon fill="none" stroke="#000000" points="139.5,-164 21.5,-164 21.5,-128 139.5,-128 139.5,-164"/>
<polygon fill="none" stroke="#000000" points="143.5,-168 17.5,-168 17.5,-124 143.5,-124 143.5,-168"/>
<text text-anchor="middle" x="80.5" y="-143.2" font-family="Consolas" font-size="11.00" fill="#000000">(head&#45;nn e4 x2):2</text>
</g>
<!-- node_3 -->
<g id="node4" class="node"><title>node_3</title>
<polygon fill="none" stroke="#000000" points="157,-226 4,-226 4,-190 157,-190 157,-226"/>
<polygon fill="none" stroke="#000000" points="161,-230 0,-230 0,-186 161,-186 161,-230"/>
<text text-anchor="middle" x="80.5" y="-205.2" font-family="Consolas" font-size="11.00" fill="#000000">(have&#45;vb e1 x1 x2 u3):3</text>
</g>
<!-- node_6 -->
<g id="node6" class="node"><title>node_6</title>
<polygon fill="none" stroke="#000000" points="615,-40 482,-40 482,-4 615,-4 615,-40"/>
<text text-anchor="middle" x="548.5" y="-19.2" font-family="Consolas" font-size="11.00" fill="#000000">(poodle&#45;nn _u2 x1):6</text>
</g>
<!-- node_5&#45;&gt;node_6 -->
<g id="edge2" class="edge"><title>node_5&#45;&gt;node_6</title>
<path fill="none" stroke="#000000" d="M390.185,-22C419.158,-22 452.871,-22 481.64,-22"/>
<polygon fill="#000000" stroke="#000000" points="390.151,-18.5001 380.151,-22 390.151,-25.5001 390.151,-18.5001"/>
<text text-anchor="middle" x="431" y="-25" font-family="Consolas" font-size="10.00" fill="#000000">poodle&#45;is&#45;dog</text>
</g>
</g>
</svg>
