<?xml version="1.0" encoding="UTF-8" standalone="no"?>
<!DOCTYPE svg PUBLIC "-//W3C//DTD SVG 1.1//EN"
 "http://www.w3.org/Graphics/SVG/1.1/DTD/svg11.dtd">
<!-- Generated by graphviz version 2.38.0 (20140413.2041)
 -->
<!-- Title: proofgraph Pages: 1 -->
<svg width="168pt" height="548pt"
 viewBox="0.00 0.00 168.00 548.00" xmlns="http://www.w3.org/2000/svg" xmlns:xlink="http://www.w3.org/1999/xlink">
<g id="graph0" class="graph" transform="scale(1 1) rotate(0) translate(4 544)">
<title>proofgraph</title>
<polygon fill="white" stroke="none" points="-4,4 -4,-544 164,-544 164,4 -4,4"/>
<!-- node_0 -->
<g id="node1" class="node"><title>node_0</title>
<polygon fill="none" stroke="#000000" points="156,-40 4,-40 4,-4 156,-4 156,-40"/>
<polygon fill="none" stroke="#000000" points="160,-44 0,-44 0,-0 160,-0 160,-44"/>
<text text-anchor="middle" x="80" y="-19.2" font-family="Consolas" font-size="11.00" fill="#000000">(revolution&#45;nn e11 x1):0</text>
</g>
<!-- node_1 -->
<g id="node2" class="node"><title>node_1</title>
<polygon fill="none" stroke="#000000" points="141,-102 19,-102 19,-66 141,-66 141,-102"/>
<polygon fill="none" stroke="#000000" points="145,-106 15,-106 15,-62 145,-62 145,-106"/>
<text text-anchor="middle" x="80" y="-81.2" font-family="Consolas" font-size="11.00" fill="#000000">(of&#45;in e10 x1 x2):1</text>
</g>
<!-- node_2 -->
<g id="node3" class="node"><title>node_2</title>
<polygon fill="none" stroke="#000000" points="151.5,-164 8.5,-164 8.5,-128 151.5,-128 151.5,-164"/>
<polygon fill="none" stroke="#000000" points="155.5,-168 4.5,-168 4.5,-124 155.5,-124 155.5,-168"/>
<text text-anchor="middle" x="80" y="-143.2" font-family="Consolas" font-size="11.00" fill="#000000">(around&#45;in e9 x1 x3):2</text>
</g>
<!-- node_3 -->
<g id="node4" class="node"><title>node_3</title>
<polygon fill="none" stroke="#000000" points="148.5,-226 11.5,-226 11.5,-190 148.5,-190 148.5,-226"/>
<polygon fill="none" stroke="#000000" points="152.5,-230 7.5,-230 7.5,-186 152.5,-186 152.5,-230"/>
<text text-anchor="middle" x="80" y="-205.2" font-family="Consolas" font-size="11.00" fill="#000000">(t&#45;XXXXXX01 e8 x4):3</text>
</g>
<!-- node_4 -->
<g id="node5" class="node"><title>node_4</title>
<polygon fill="none" stroke="#000000" points="143.5,-288 16.5,-288 16.5,-252 143.5,-252 143.5,-288"/>
<polygon fill="none" stroke="#000000" points="147.5,-292 12.5,-292 12.5,-248 147.5,-248 147.5,-292"/>
<text text-anchor="middle" x="80" y="-267.2" font-family="Consolas" font-size="11.00" fill="#000000">(month&#45;nn e7 x4):4</text>
</g>
<!-- node_5 -->
<g id="node6" class="node"><title>node_5</title>
<polygon fill="none" stroke="#000000" points="155,-350 5,-350 5,-314 155,-314 155,-350"/>
<polygon fill="none" stroke="#000000" points="159,-354 1,-354 1,-310 159,-310 159,-354"/>
<text text-anchor="middle" x="80" y="-329.2" font-family="Consolas" font-size="11.00" fill="#000000">(take&#45;vb e1 x1 x4 u6):5</text>
</g>
<!-- node_6 -->
<g id="node7" class="node"><title>node_6</title>
<polygon fill="none" stroke="#000000" points="141,-412 19,-412 19,-376 141,-376 141,-412"/>
<polygon fill="none" stroke="#000000" points="145,-416 15,-416 15,-372 145,-372 145,-416"/>
<text text-anchor="middle" x="80" y="-391.2" font-family="Consolas" font-size="11.00" fill="#000000">(moon&#45;nn e5 x2):6</text>
</g>
<!-- node_7 -->
<g id="node8" class="node"><title>node_7</title>
<polygon fill="none" stroke="#000000" points="140,-474 20,-474 20,-438 140,-438 140,-474"/>
<polygon fill="none" stroke="#000000" points="144,-478 16,-478 16,-434 144,-434 144,-478"/>
<text text-anchor="middle" x="80" y="-453.2" font-family="Consolas" font-size="11.00" fill="#000000">(earth&#45;nn e3 x3):7</text>
</g>
<!-- node_8 -->
<g id="node9" class="node"><title>node_8</title>
<polygon fill="none" stroke="#000000" points="124.5,-536 35.5,-536 35.5,-500 124.5,-500 124.5,-536"/>
<polygon fill="none" stroke="#000000" points="128.5,-540 31.5,-540 31.5,-496 128.5,-496 128.5,-540"/>
<text text-anchor="middle" x="80" y="-515.2" font-family="Consolas" font-size="11.00" fill="#000000">(loc e4 x3):8</text>
</g>
</g>
</svg>
