<?xml version="1.0" encoding="UTF-8" standalone="no"?>
<!DOCTYPE svg PUBLIC "-//W3C//DTD SVG 1.1//EN"
 "http://www.w3.org/Graphics/SVG/1.1/DTD/svg11.dtd">
<!-- Generated by graphviz version 2.38.0 (20140413.2041)
 -->
<!-- Title: proofgraph Pages: 1 -->
<svg width="344pt" height="610pt"
 viewBox="0.00 0.00 344.00 610.00" xmlns="http://www.w3.org/2000/svg" xmlns:xlink="http://www.w3.org/1999/xlink">
<g id="graph0" class="graph" transform="scale(1 1) rotate(0) translate(4 606)">
<title>proofgraph</title>
<polygon fill="white" stroke="none" points="-4,4 -4,-606 340,-606 340,4 -4,4"/>
<!-- node_0 -->
<g id="node1" class="node"><title>node_0</title>
<polygon fill="none" stroke="#000000" points="141,-40 7,-40 7,-4 141,-4 141,-40"/>
<polygon fill="none" stroke="#000000" points="145,-44 3,-44 3,-0 145,-0 145,-44"/>
<text text-anchor="middle" x="74" y="-19.2" font-family="Consolas" font-size="11.00" fill="#000000">(donald&#45;nn e13 x2):0</text>
</g>
<!-- node_1 -->
<g id="node2" class="node"><title>node_1</title>
<polygon fill="none" stroke="#000000" points="123.5,-102 24.5,-102 24.5,-66 123.5,-66 123.5,-102"/>
<polygon fill="none" stroke="#000000" points="127.5,-106 20.5,-106 20.5,-62 127.5,-62 127.5,-106"/>
<text text-anchor="middle" x="74" y="-81.2" font-family="Consolas" font-size="11.00" fill="#000000">(per e14 x2):1</text>
</g>
<!-- node_4 -->
<g id="node5" class="node"><title>node_4</title>
<polygon fill="none" stroke="#000000" points="332,-102 233,-102 233,-66 332,-66 332,-102"/>
<polygon fill="none" stroke="#000000" points="336,-106 229,-106 229,-62 336,-62 336,-106"/>
<text text-anchor="middle" x="282.5" y="-81.2" font-family="Consolas" font-size="11.00" fill="#000000">(per e11 x1):4</text>
</g>
<!-- node_1&#45;&gt;node_4 -->
<g id="edge1" class="edge"><title>node_1&#45;&gt;node_4</title>
<path fill="none" stroke="#000000" stroke-dasharray="1,5" d="M127.643,-84C158.711,-84 197.902,-84 228.953,-84"/>
<text text-anchor="middle" x="188.5" y="-98" font-family="Consolas" font-size="10.00" fill="#000000">x2=x1</text>
<text text-anchor="middle" x="188.5" y="-87" font-family="Consolas" font-size="10.00" fill="#000000">e14=e11</text>
</g>
<!-- node_2 -->
<g id="node3" class="node"><title>node_2</title>
<polygon fill="none" stroke="#000000" points="138.5,-164 9.5,-164 9.5,-128 138.5,-128 138.5,-164"/>
<polygon fill="none" stroke="#000000" points="142.5,-168 5.5,-168 5.5,-124 142.5,-124 142.5,-168"/>
<text text-anchor="middle" x="74" y="-143.2" font-family="Consolas" font-size="11.00" fill="#000000">(equal e12 x1 x2):2</text>
</g>
<!-- node_3 -->
<g id="node4" class="node"><title>node_3</title>
<polygon fill="none" stroke="#000000" points="140,-226 8,-226 8,-190 140,-190 140,-226"/>
<polygon fill="none" stroke="#000000" points="144,-230 4,-230 4,-186 144,-186 144,-230"/>
<text text-anchor="middle" x="74" y="-205.2" font-family="Consolas" font-size="11.00" fill="#000000">(trump&#45;nn e10 x1):3</text>
</g>
<!-- node_7 -->
<g id="node6" class="node"><title>node_7</title>
<polygon fill="none" stroke="#000000" points="144,-288 4,-288 4,-252 144,-252 144,-288"/>
<polygon fill="none" stroke="#000000" points="148,-292 0,-292 0,-248 148,-248 148,-292"/>
<text text-anchor="middle" x="74" y="-267.2" font-family="Consolas" font-size="11.00" fill="#000000">(go&#45;vb e1 x1 u8 u9):7</text>
</g>
<!-- node_8 -->
<g id="node7" class="node"><title>node_8</title>
<polygon fill="none" stroke="#000000" points="138,-350 10,-350 10,-314 138,-314 138,-350"/>
<polygon fill="none" stroke="#000000" points="142,-354 6,-354 6,-310 142,-310 142,-354"/>
<text text-anchor="middle" x="74" y="-329.2" font-family="Consolas" font-size="11.00" fill="#000000">(college&#45;nn e7 x3):8</text>
</g>
<!-- node_9 -->
<g id="node8" class="node"><title>node_9</title>
<polygon fill="none" stroke="#000000" points="132,-412 16,-412 16,-376 132,-376 132,-412"/>
<polygon fill="none" stroke="#000000" points="136,-416 12,-416 12,-372 136,-372 136,-416"/>
<text text-anchor="middle" x="74" y="-391.2" font-family="Consolas" font-size="11.00" fill="#000000">(to&#45;in e6 e1 x3):9</text>
</g>
<!-- node_10 -->
<g id="node9" class="node"><title>node_10</title>
<polygon fill="none" stroke="#000000" points="135,-474 13,-474 13,-438 135,-438 135,-474"/>
<polygon fill="none" stroke="#000000" points="139,-478 9,-478 9,-434 139,-434 139,-478"/>
<text text-anchor="middle" x="74" y="-453.2" font-family="Consolas" font-size="11.00" fill="#000000">(whq e3 e4 e1):10</text>
</g>
<!-- node_11 -->
<g id="node10" class="node"><title>node_11</title>
<polygon fill="none" stroke="#000000" points="130.5,-536 17.5,-536 17.5,-500 130.5,-500 130.5,-536"/>
<polygon fill="none" stroke="#000000" points="134.5,-540 13.5,-540 13.5,-496 134.5,-496 134.5,-540"/>
<text text-anchor="middle" x="74" y="-515.2" font-family="Consolas" font-size="11.00" fill="#000000">(rel e5 e1 x4):11</text>
</g>
<!-- node_12 -->
<g id="node11" class="node"><title>node_12</title>
<polygon fill="none" stroke="#000000" points="135.5,-598 12.5,-598 12.5,-562 135.5,-562 135.5,-598"/>
<polygon fill="none" stroke="#000000" points="139.5,-602 8.5,-602 8.5,-558 139.5,-558 139.5,-602"/>
<text text-anchor="middle" x="74" y="-577.2" font-family="Consolas" font-size="11.00" fill="#000000">(location e4 x4):12</text>
</g>
</g>
</svg>
