<?xml version="1.0" encoding="UTF-8" standalone="no"?>
<!DOCTYPE svg PUBLIC "-//W3C//DTD SVG 1.1//EN"
 "http://www.w3.org/Graphics/SVG/1.1/DTD/svg11.dtd">
<!-- Generated by graphviz version 2.38.0 (20140413.2041)
 -->
<!-- Title: proofgraph Pages: 1 -->
<svg width="178pt" height="300pt"
 viewBox="0.00 0.00 178.00 300.00" xmlns="http://www.w3.org/2000/svg" xmlns:xlink="http://www.w3.org/1999/xlink">
<g id="graph0" class="graph" transform="scale(1 1) rotate(0) translate(4 296)">
<title>proofgraph</title>
<polygon fill="white" stroke="none" points="-4,4 -4,-296 174,-296 174,4 -4,4"/>
<!-- node_0 -->
<g id="node1" class="node"><title>node_0</title>
<polygon fill="none" stroke="#000000" points="147,-40 23,-40 23,-4 147,-4 147,-40"/>
<polygon fill="none" stroke="#000000" points="151,-44 19,-44 19,-0 151,-0 151,-44"/>
<text text-anchor="middle" x="85" y="-19.2" font-family="Consolas" font-size="11.00" fill="#000000">(mirror&#45;nn e9 x1):0</text>
</g>
<!-- node_1 -->
<g id="node2" class="node"><title>node_1</title>
<polygon fill="none" stroke="#000000" points="158,-102 12,-102 12,-66 158,-66 158,-102"/>
<polygon fill="none" stroke="#000000" points="162,-106 8,-106 8,-62 162,-62 162,-106"/>
<text text-anchor="middle" x="85" y="-81.2" font-family="Consolas" font-size="11.00" fill="#000000">(use&#45;vb e1 u7 x1 u8):1</text>
</g>
<!-- node_2 -->
<g id="node3" class="node"><title>node_2</title>
<polygon fill="none" stroke="#000000" points="141.5,-164 28.5,-164 28.5,-128 141.5,-128 141.5,-164"/>
<polygon fill="none" stroke="#000000" points="145.5,-168 24.5,-168 24.5,-124 145.5,-124 145.5,-168"/>
<text text-anchor="middle" x="85" y="-143.2" font-family="Consolas" font-size="11.00" fill="#000000">(light&#45;nn e6 x3):2</text>
</g>
<!-- node_3 -->
<g id="node4" class="node"><title>node_3</title>
<polygon fill="none" stroke="#000000" points="166,-226 4,-226 4,-190 166,-190 166,-226"/>
<polygon fill="none" stroke="#000000" points="170,-230 0,-230 0,-186 170,-186 170,-230"/>
<text text-anchor="middle" x="85" y="-205.2" font-family="Consolas" font-size="11.00" fill="#000000">(reflect&#45;vb e2 x2 x3 u5):3</text>
</g>
<!-- node_4 -->
<g id="node5" class="node"><title>node_4</title>
<polygon fill="none" stroke="#000000" points="144,-288 26,-288 26,-252 144,-252 144,-288"/>
<polygon fill="none" stroke="#000000" points="148,-292 22,-292 22,-248 148,-248 148,-292"/>
<text text-anchor="middle" x="85" y="-267.2" font-family="Consolas" font-size="11.00" fill="#000000">(for&#45;in e4 e1 e2):4</text>
</g>
</g>
</svg>
