<?xml version="1.0" encoding="UTF-8" standalone="no"?>
<!DOCTYPE svg PUBLIC "-//W3C//DTD SVG 1.1//EN"
 "http://www.w3.org/Graphics/SVG/1.1/DTD/svg11.dtd">
<!-- Generated by graphviz version 2.38.0 (20140413.2041)
 -->
<!-- Title: proofgraph Pages: 1 -->
<svg width="178pt" height="176pt"
 viewBox="0.00 0.00 178.00 176.00" xmlns="http://www.w3.org/2000/svg" xmlns:xlink="http://www.w3.org/1999/xlink">
<g id="graph0" class="graph" transform="scale(1 1) rotate(0) translate(4 172)">
<title>proofgraph</title>
<polygon fill="white" stroke="none" points="-4,4 -4,-172 174,-172 174,4 -4,4"/>
<!-- node_0 -->
<g id="node1" class="node"><title>node_0</title>
<polygon fill="none" stroke="#000000" points="147,-40 23,-40 23,-4 147,-4 147,-40"/>
<polygon fill="none" stroke="#000000" points="151,-44 19,-44 19,-0 151,-0 151,-44"/>
<text text-anchor="middle" x="85" y="-19.2" font-family="Consolas" font-size="11.00" fill="#000000">(mirror&#45;nn e5 x1):0</text>
</g>
<!-- node_1 -->
<g id="node2" class="node"><title>node_1</title>
<polygon fill="none" stroke="#000000" points="141.5,-102 28.5,-102 28.5,-66 141.5,-66 141.5,-102"/>
<polygon fill="none" stroke="#000000" points="145.5,-106 24.5,-106 24.5,-62 145.5,-62 145.5,-106"/>
<text text-anchor="middle" x="85" y="-81.2" font-family="Consolas" font-size="11.00" fill="#000000">(light&#45;nn e4 x2):1</text>
</g>
<!-- node_2 -->
<g id="node3" class="node"><title>node_2</title>
<polygon fill="none" stroke="#000000" points="166,-164 4,-164 4,-128 166,-128 166,-164"/>
<polygon fill="none" stroke="#000000" points="170,-168 0,-168 0,-124 170,-124 170,-168"/>
<text text-anchor="middle" x="85" y="-143.2" font-family="Consolas" font-size="11.00" fill="#000000">(reflect&#45;vb e1 x1 x2 u3):2</text>
</g>
</g>
</svg>
