<?xml version="1.0" encoding="UTF-8" standalone="no"?>
<!DOCTYPE svg PUBLIC "-//W3C//DTD SVG 1.1//EN"
 "http://www.w3.org/Graphics/SVG/1.1/DTD/svg11.dtd">
<!-- Generated by graphviz version 2.38.0 (20140413.2041)
 -->
<!-- Title: proofgraph Pages: 1 -->
<svg width="198pt" height="548pt"
 viewBox="0.00 0.00 198.00 548.00" xmlns="http://www.w3.org/2000/svg" xmlns:xlink="http://www.w3.org/1999/xlink">
<g id="graph0" class="graph" transform="scale(1 1) rotate(0) translate(4 544)">
<title>proofgraph</title>
<polygon fill="white" stroke="none" points="-4,4 -4,-544 194,-544 194,4 -4,4"/>
<!-- node_0 -->
<g id="node1" class="node"><title>node_0</title>
<polygon fill="none" stroke="#000000" points="161,-40 29,-40 29,-4 161,-4 161,-40"/>
<polygon fill="none" stroke="#000000" points="165,-44 25,-44 25,-0 165,-0 165,-44"/>
<text text-anchor="middle" x="95" y="-19.2" font-family="Consolas" font-size="11.00" fill="#000000">(planet&#45;nn e14 x1):0</text>
</g>
<!-- node_1 -->
<g id="node2" class="node"><title>node_1</title>
<polygon fill="none" stroke="#000000" points="186,-102 4,-102 4,-66 186,-66 186,-102"/>
<polygon fill="none" stroke="#000000" points="190,-106 0,-106 0,-62 190,-62 190,-106"/>
<text text-anchor="middle" x="95" y="-81.2" font-family="Consolas" font-size="11.00" fill="#000000">(expose&#45;vb e1 u12 x1 u13):1</text>
</g>
<!-- node_2 -->
<g id="node3" class="node"><title>node_2</title>
<polygon fill="none" stroke="#000000" points="185,-164 5,-164 5,-128 185,-128 185,-164"/>
<polygon fill="none" stroke="#000000" points="189,-168 1,-168 1,-124 189,-124 189,-168"/>
<text text-anchor="middle" x="95" y="-143.2" font-family="Consolas" font-size="11.00" fill="#000000">(revolve&#45;vb e2 x3 u10 u11):2</text>
</g>
<!-- node_3 -->
<g id="node4" class="node"><title>node_3</title>
<polygon fill="none" stroke="#000000" points="166.5,-226 23.5,-226 23.5,-190 166.5,-190 166.5,-226"/>
<polygon fill="none" stroke="#000000" points="170.5,-230 19.5,-230 19.5,-186 170.5,-186 170.5,-230"/>
<text text-anchor="middle" x="95" y="-205.2" font-family="Consolas" font-size="11.00" fill="#000000">(around&#45;in e9 e2 x3):3</text>
</g>
<!-- node_4 -->
<g id="node5" class="node"><title>node_4</title>
<polygon fill="none" stroke="#000000" points="152.5,-288 37.5,-288 37.5,-252 152.5,-252 152.5,-288"/>
<polygon fill="none" stroke="#000000" points="156.5,-292 33.5,-292 33.5,-248 156.5,-248 156.5,-292"/>
<text text-anchor="middle" x="95" y="-267.2" font-family="Consolas" font-size="11.00" fill="#000000">(of&#45;in e8 x2 x3):4</text>
</g>
<!-- node_5 -->
<g id="node6" class="node"><title>node_5</title>
<polygon fill="none" stroke="#000000" points="153,-350 37,-350 37,-314 153,-314 153,-350"/>
<polygon fill="none" stroke="#000000" points="157,-354 33,-354 33,-310 157,-310 157,-354"/>
<text text-anchor="middle" x="95" y="-329.2" font-family="Consolas" font-size="11.00" fill="#000000">(to&#45;in e7 e1 x2):5</text>
</g>
<!-- node_6 -->
<g id="node7" class="node"><title>node_6</title>
<polygon fill="none" stroke="#000000" points="153,-412 37,-412 37,-376 153,-376 153,-412"/>
<polygon fill="none" stroke="#000000" points="157,-416 33,-416 33,-372 157,-372 157,-416"/>
<text text-anchor="middle" x="95" y="-391.2" font-family="Consolas" font-size="11.00" fill="#000000">(heat&#45;nn e6 x2):6</text>
</g>
<!-- node_7 -->
<g id="node8" class="node"><title>node_7</title>
<polygon fill="none" stroke="#000000" points="145.5,-474 44.5,-474 44.5,-438 145.5,-438 145.5,-474"/>
<polygon fill="none" stroke="#000000" points="149.5,-478 40.5,-478 40.5,-434 149.5,-434 149.5,-478"/>
<text text-anchor="middle" x="95" y="-453.2" font-family="Consolas" font-size="11.00" fill="#000000">(thing e5 x3):7</text>
</g>
<!-- node_8 -->
<g id="node9" class="node"><title>node_8</title>
<polygon fill="none" stroke="#000000" points="151,-536 39,-536 39,-500 151,-500 151,-536"/>
<polygon fill="none" stroke="#000000" points="155,-540 35,-540 35,-496 155,-496 155,-540"/>
<text text-anchor="middle" x="95" y="-515.2" font-family="Consolas" font-size="11.00" fill="#000000">(star&#45;nn e4 x3):8</text>
</g>
</g>
</svg>
