<?xml version="1.0" encoding="UTF-8" standalone="no"?>
<!DOCTYPE svg PUBLIC "-//W3C//DTD SVG 1.1//EN"
 "http://www.w3.org/Graphics/SVG/1.1/DTD/svg11.dtd">
<!-- Generated by graphviz version 2.38.0 (20140413.2041)
 -->
<!-- Title: proofgraph Pages: 1 -->
<svg width="178pt" height="486pt"
 viewBox="0.00 0.00 178.00 486.00" xmlns="http://www.w3.org/2000/svg" xmlns:xlink="http://www.w3.org/1999/xlink">
<g id="graph0" class="graph" transform="scale(1 1) rotate(0) translate(4 482)">
<title>proofgraph</title>
<polygon fill="white" stroke="none" points="-4,4 -4,-482 174,-482 174,4 -4,4"/>
<!-- node_0 -->
<g id="node1" class="node"><title>node_0</title>
<polygon fill="none" stroke="#000000" points="157,-40 13,-40 13,-4 157,-4 157,-40"/>
<polygon fill="none" stroke="#000000" points="161,-44 9,-44 9,-0 161,-0 161,-44"/>
<text text-anchor="middle" x="85" y="-19.2" font-family="Consolas" font-size="11.00" fill="#000000">(reflector&#45;nn e11 x1):0</text>
</g>
<!-- node_1 -->
<g id="node2" class="node"><title>node_1</title>
<polygon fill="none" stroke="#000000" points="146.5,-102 23.5,-102 23.5,-66 146.5,-66 146.5,-102"/>
<polygon fill="none" stroke="#000000" points="150.5,-106 19.5,-106 19.5,-62 150.5,-62 150.5,-106"/>
<text text-anchor="middle" x="85" y="-81.2" font-family="Consolas" font-size="11.00" fill="#000000">(light&#45;adj e10 x2):1</text>
</g>
<!-- node_2 -->
<g id="node3" class="node"><title>node_2</title>
<polygon fill="none" stroke="#000000" points="166,-164 4,-164 4,-128 166,-128 166,-164"/>
<polygon fill="none" stroke="#000000" points="170,-168 0,-168 0,-124 170,-124 170,-168"/>
<text text-anchor="middle" x="85" y="-143.2" font-family="Consolas" font-size="11.00" fill="#000000">(reflect&#45;vb e2 x1 x2 u9):2</text>
</g>
<!-- node_3 -->
<g id="node4" class="node"><title>node_3</title>
<polygon fill="none" stroke="#000000" points="149,-226 21,-226 21,-190 149,-190 149,-226"/>
<polygon fill="none" stroke="#000000" points="153,-230 17,-230 17,-186 153,-186 153,-230"/>
<text text-anchor="middle" x="85" y="-205.2" font-family="Consolas" font-size="11.00" fill="#000000">(vehicle&#45;nn e8 x3):3</text>
</g>
<!-- node_4 -->
<g id="node5" class="node"><title>node_4</title>
<polygon fill="none" stroke="#000000" points="139.5,-288 30.5,-288 30.5,-252 139.5,-252 139.5,-288"/>
<polygon fill="none" stroke="#000000" points="143.5,-292 26.5,-292 26.5,-248 143.5,-248 143.5,-292"/>
<text text-anchor="middle" x="85" y="-267.2" font-family="Consolas" font-size="11.00" fill="#000000">(card e7 x3 2):4</text>
</g>
<!-- node_5 -->
<g id="node6" class="node"><title>node_5</title>
<polygon fill="none" stroke="#000000" points="144,-350 26,-350 26,-314 144,-314 144,-350"/>
<polygon fill="none" stroke="#000000" points="148,-354 22,-354 22,-310 148,-310 148,-354"/>
<text text-anchor="middle" x="85" y="-329.2" font-family="Consolas" font-size="11.00" fill="#000000">(on&#45;in e6 e2 x3):5</text>
</g>
<!-- node_6 -->
<g id="node7" class="node"><title>node_6</title>
<polygon fill="none" stroke="#000000" points="155,-412 15,-412 15,-376 155,-376 155,-412"/>
<polygon fill="none" stroke="#000000" points="159,-416 11,-416 11,-372 159,-372 159,-416"/>
<text text-anchor="middle" x="85" y="-391.2" font-family="Consolas" font-size="11.00" fill="#000000">(especially&#45;rb e5 e2):6</text>
</g>
<!-- node_7 -->
<g id="node8" class="node"><title>node_7</title>
<polygon fill="none" stroke="#000000" points="158,-474 12,-474 12,-438 158,-438 158,-474"/>
<polygon fill="none" stroke="#000000" points="162,-478 8,-478 8,-434 162,-434 162,-478"/>
<text text-anchor="middle" x="85" y="-453.2" font-family="Consolas" font-size="11.00" fill="#000000">(use&#45;vb e1 u4 e2 x1):7</text>
</g>
</g>
</svg>
