<?xml version="1.0" encoding="UTF-8" standalone="no"?>
<!DOCTYPE svg PUBLIC "-//W3C//DTD SVG 1.1//EN"
 "http://www.w3.org/Graphics/SVG/1.1/DTD/svg11.dtd">
<!-- Generated by graphviz version 2.38.0 (20140413.2041)
 -->
<!-- Title: proofgraph Pages: 1 -->
<svg width="176pt" height="486pt"
 viewBox="0.00 0.00 176.00 486.00" xmlns="http://www.w3.org/2000/svg" xmlns:xlink="http://www.w3.org/1999/xlink">
<g id="graph0" class="graph" transform="scale(1 1) rotate(0) translate(4 482)">
<title>proofgraph</title>
<polygon fill="white" stroke="none" points="-4,4 -4,-482 172,-482 172,4 -4,4"/>
<!-- node_0 -->
<g id="node1" class="node"><title>node_0</title>
<polygon fill="none" stroke="#000000" points="151,-40 17,-40 17,-4 151,-4 151,-40"/>
<polygon fill="none" stroke="#000000" points="155,-44 13,-44 13,-0 155,-0 155,-44"/>
<text text-anchor="middle" x="84" y="-19.2" font-family="Consolas" font-size="11.00" fill="#000000">(desert&#45;nn e10 x2):0</text>
</g>
<!-- node_1 -->
<g id="node2" class="node"><title>node_1</title>
<polygon fill="none" stroke="#000000" points="141.5,-102 26.5,-102 26.5,-66 141.5,-66 141.5,-102"/>
<polygon fill="none" stroke="#000000" points="145.5,-106 22.5,-106 22.5,-62 145.5,-62 145.5,-106"/>
<text text-anchor="middle" x="84" y="-81.2" font-family="Consolas" font-size="11.00" fill="#000000">(of&#45;in e9 x1 x2):1</text>
</g>
<!-- node_2 -->
<g id="node3" class="node"><title>node_2</title>
<polygon fill="none" stroke="#000000" points="164,-164 4,-164 4,-128 164,-128 164,-164"/>
<polygon fill="none" stroke="#000000" points="168,-168 0,-168 0,-124 168,-124 168,-168"/>
<text text-anchor="middle" x="84" y="-143.2" font-family="Consolas" font-size="11.00" fill="#000000">(environment&#45;nn e8 x1):2</text>
</g>
<!-- node_3 -->
<g id="node4" class="node"><title>node_3</title>
<polygon fill="none" stroke="#000000" points="136,-226 32,-226 32,-190 136,-190 136,-226"/>
<polygon fill="none" stroke="#000000" points="140,-230 28,-230 28,-186 140,-186 140,-230"/>
<text text-anchor="middle" x="84" y="-205.2" font-family="Consolas" font-size="11.00" fill="#000000">(lot&#45;nn e7 x3):3</text>
</g>
<!-- node_4 -->
<g id="node5" class="node"><title>node_4</title>
<polygon fill="none" stroke="#000000" points="150.5,-288 17.5,-288 17.5,-252 150.5,-252 150.5,-288"/>
<polygon fill="none" stroke="#000000" points="154.5,-292 13.5,-292 13.5,-248 154.5,-248 154.5,-292"/>
<text text-anchor="middle" x="84" y="-267.2" font-family="Consolas" font-size="11.00" fill="#000000">(sunlight&#45;nn e6 x4):4</text>
</g>
<!-- node_5 -->
<g id="node6" class="node"><title>node_5</title>
<polygon fill="none" stroke="#000000" points="141.5,-350 26.5,-350 26.5,-314 141.5,-314 141.5,-350"/>
<polygon fill="none" stroke="#000000" points="145.5,-354 22.5,-354 22.5,-310 145.5,-310 145.5,-354"/>
<text text-anchor="middle" x="84" y="-329.2" font-family="Consolas" font-size="11.00" fill="#000000">(of&#45;in e5 x3 x4):5</text>
</g>
<!-- node_9 -->
<g id="node7" class="node"><title>node_9</title>
<polygon fill="none" stroke="#000000" points="160.5,-412 7.5,-412 7.5,-376 160.5,-376 160.5,-412"/>
<polygon fill="none" stroke="#000000" points="164.5,-416 3.5,-416 3.5,-372 164.5,-372 164.5,-416"/>
<text text-anchor="middle" x="84" y="-391.2" font-family="Consolas" font-size="11.00" fill="#000000">(have&#45;vb e1 x1 x3 u4):9</text>
</g>
<!-- node_10 -->
<g id="node8" class="node"><title>node_10</title>
<polygon fill="none" stroke="#000000" points="146,-474 22,-474 22,-438 146,-438 146,-474"/>
<polygon fill="none" stroke="#000000" points="150,-478 18,-478 18,-434 150,-434 150,-478"/>
<text text-anchor="middle" x="84" y="-453.2" font-family="Consolas" font-size="11.00" fill="#000000">(usual&#45;rb e3 e1):10</text>
</g>
</g>
</svg>
