<?xml version="1.0" encoding="UTF-8" standalone="no"?>
<!DOCTYPE svg PUBLIC "-//W3C//DTD SVG 1.1//EN"
 "http://www.w3.org/Graphics/SVG/1.1/DTD/svg11.dtd">
<!-- Generated by graphviz version 2.38.0 (20140413.2041)
 -->
<!-- Title: proofgraph Pages: 1 -->
<svg width="171pt" height="610pt"
 viewBox="0.00 0.00 171.00 610.00" xmlns="http://www.w3.org/2000/svg" xmlns:xlink="http://www.w3.org/1999/xlink">
<g id="graph0" class="graph" transform="scale(1 1) rotate(0) translate(4 606)">
<title>proofgraph</title>
<polygon fill="white" stroke="none" points="-4,4 -4,-606 167,-606 167,4 -4,4"/>
<!-- node_0 -->
<g id="node1" class="node"><title>node_0</title>
<polygon fill="none" stroke="#000000" points="138.5,-40 24.5,-40 24.5,-4 138.5,-4 138.5,-40"/>
<polygon fill="none" stroke="#000000" points="142.5,-44 20.5,-44 20.5,-0 142.5,-0 142.5,-44"/>
<text text-anchor="middle" x="81.5" y="-19.2" font-family="Consolas" font-size="11.00" fill="#000000">(whq e4 e5 e1):0</text>
</g>
<!-- node_1 -->
<g id="node2" class="node"><title>node_1</title>
<polygon fill="none" stroke="#000000" points="148.5,-102 14.5,-102 14.5,-66 148.5,-66 148.5,-102"/>
<polygon fill="none" stroke="#000000" points="152.5,-106 10.5,-106 10.5,-62 152.5,-62 152.5,-106"/>
<text text-anchor="middle" x="81.5" y="-81.2" font-family="Consolas" font-size="11.00" fill="#000000">(border&#45;nn e12 x3):1</text>
</g>
<!-- node_2 -->
<g id="node3" class="node"><title>node_2</title>
<polygon fill="none" stroke="#000000" points="142.5,-164 20.5,-164 20.5,-128 142.5,-128 142.5,-164"/>
<polygon fill="none" stroke="#000000" points="146.5,-168 16.5,-168 16.5,-124 146.5,-124 146.5,-168"/>
<text text-anchor="middle" x="81.5" y="-143.2" font-family="Consolas" font-size="11.00" fill="#000000">(of&#45;in e11 x2 x3):2</text>
</g>
<!-- node_3 -->
<g id="node4" class="node"><title>node_3</title>
<polygon fill="none" stroke="#000000" points="142.5,-226 20.5,-226 20.5,-190 142.5,-190 142.5,-226"/>
<polygon fill="none" stroke="#000000" points="146.5,-230 16.5,-230 16.5,-186 146.5,-186 146.5,-230"/>
<text text-anchor="middle" x="81.5" y="-205.2" font-family="Consolas" font-size="11.00" fill="#000000">(texas&#45;nn e9 x2):3</text>
</g>
<!-- node_4 -->
<g id="node5" class="node"><title>node_4</title>
<polygon fill="none" stroke="#000000" points="129.5,-288 33.5,-288 33.5,-252 129.5,-252 129.5,-288"/>
<polygon fill="none" stroke="#000000" points="133.5,-292 29.5,-292 29.5,-248 133.5,-248 133.5,-292"/>
<text text-anchor="middle" x="81.5" y="-267.2" font-family="Consolas" font-size="11.00" fill="#000000">(loc e10 x2):4</text>
</g>
<!-- node_5 -->
<g id="node6" class="node"><title>node_5</title>
<polygon fill="none" stroke="#000000" points="159,-350 4,-350 4,-314 159,-314 159,-350"/>
<polygon fill="none" stroke="#000000" points="163,-354 0,-354 0,-310 163,-310 163,-354"/>
<text text-anchor="middle" x="81.5" y="-329.2" font-family="Consolas" font-size="11.00" fill="#000000">(state&#45;vb e1 x1 x2 u8):5</text>
</g>
<!-- node_6 -->
<g id="node7" class="node"><title>node_6</title>
<polygon fill="none" stroke="#000000" points="143,-412 20,-412 20,-376 143,-376 143,-412"/>
<polygon fill="none" stroke="#000000" points="147,-416 16,-416 16,-372 147,-372 147,-416"/>
<text text-anchor="middle" x="81.5" y="-391.2" font-family="Consolas" font-size="11.00" fill="#000000">(major&#45;adj s1 x4):6</text>
</g>
<!-- node_7 -->
<g id="node8" class="node"><title>node_7</title>
<polygon fill="none" stroke="#000000" points="138.5,-474 24.5,-474 24.5,-438 138.5,-438 138.5,-474"/>
<polygon fill="none" stroke="#000000" points="142.5,-478 20.5,-478 20.5,-434 142.5,-434 142.5,-478"/>
<text text-anchor="middle" x="81.5" y="-453.2" font-family="Consolas" font-size="11.00" fill="#000000">(river&#45;nn e7 x4):7</text>
</g>
<!-- node_8 -->
<g id="node9" class="node"><title>node_8</title>
<polygon fill="none" stroke="#000000" points="158,-536 5,-536 5,-500 158,-500 158,-536"/>
<polygon fill="none" stroke="#000000" points="162,-540 1,-540 1,-496 162,-496 162,-540"/>
<text text-anchor="middle" x="81.5" y="-515.2" font-family="Consolas" font-size="11.00" fill="#000000">(have&#45;vb e2 x1 x4 u6):8</text>
</g>
<!-- node_9 -->
<g id="node10" class="node"><title>node_9</title>
<polygon fill="none" stroke="#000000" points="132,-598 31,-598 31,-562 132,-562 132,-598"/>
<polygon fill="none" stroke="#000000" points="136,-602 27,-602 27,-558 136,-558 136,-602"/>
<text text-anchor="middle" x="81.5" y="-577.2" font-family="Consolas" font-size="11.00" fill="#000000">(thing e5 x1):9</text>
</g>
</g>
</svg>
