<?xml version="1.0" encoding="UTF-8" standalone="no"?>
<!DOCTYPE svg PUBLIC "-//W3C//DTD SVG 1.1//EN"
 "http://www.w3.org/Graphics/SVG/1.1/DTD/svg11.dtd">
<!-- Generated by graphviz version 2.38.0 (20140413.2041)
 -->
<!-- Title: proofgraph Pages: 1 -->
<svg width="417pt" height="610pt"
 viewBox="0.00 0.00 417.00 610.00" xmlns="http://www.w3.org/2000/svg" xmlns:xlink="http://www.w3.org/1999/xlink">
<g id="graph0" class="graph" transform="scale(1 1) rotate(0) translate(4 606)">
<title>proofgraph</title>
<polygon fill="white" stroke="none" points="-4,4 -4,-606 413,-606 413,4 -4,4"/>
<!-- node_0 -->
<g id="node1" class="node"><title>node_0</title>
<polygon fill="none" stroke="#000000" points="149.5,-40 34.5,-40 34.5,-4 149.5,-4 149.5,-40"/>
<polygon fill="none" stroke="#000000" points="153.5,-44 30.5,-44 30.5,-3.55271e-15 153.5,-3.55271e-15 153.5,-44"/>
<text text-anchor="middle" x="92" y="-19.2" font-family="Consolas" font-size="11.00" fill="#000000">(light&#45;adj s1 x1):0</text>
</g>
<!-- node_5 -->
<g id="node6" class="node"><title>node_5</title>
<polygon fill="none" stroke="#000000" points="394.5,-40 279.5,-40 279.5,-4 394.5,-4 394.5,-40"/>
<polygon fill="none" stroke="#000000" points="398.5,-44 275.5,-44 275.5,-3.55271e-15 398.5,-3.55271e-15 398.5,-44"/>
<text text-anchor="middle" x="337" y="-19.2" font-family="Consolas" font-size="11.00" fill="#000000">(light&#45;adj s3 x3):5</text>
</g>
<!-- node_0&#45;&gt;node_5 -->
<g id="edge1" class="edge"><title>node_0&#45;&gt;node_5</title>
<path fill="none" stroke="#000000" stroke-dasharray="1,5" d="M153.692,-22C190.804,-22 238.115,-22 275.239,-22"/>
<text text-anchor="middle" x="224.5" y="-36" font-family="Consolas" font-size="10.00" fill="#000000">s1=s3</text>
<text text-anchor="middle" x="224.5" y="-25" font-family="Consolas" font-size="10.00" fill="#000000">x1=x3</text>
</g>
<!-- node_1 -->
<g id="node2" class="node"><title>node_1</title>
<polygon fill="none" stroke="#000000" points="152.5,-102 31.5,-102 31.5,-66 152.5,-66 152.5,-102"/>
<polygon fill="none" stroke="#000000" points="156.5,-106 27.5,-106 27.5,-62 156.5,-62 156.5,-106"/>
<text text-anchor="middle" x="92" y="-81.2" font-family="Consolas" font-size="11.00" fill="#000000">(bulb&#45;nn e13 x1):1</text>
</g>
<!-- node_2 -->
<g id="node3" class="node"><title>node_2</title>
<polygon fill="none" stroke="#000000" points="162,-164 22,-164 22,-128 162,-128 162,-164"/>
<polygon fill="none" stroke="#000000" points="166,-168 18,-168 18,-124 166,-124 166,-168"/>
<text text-anchor="middle" x="92" y="-143.2" font-family="Consolas" font-size="11.00" fill="#000000">(electrical&#45;adj s2 x2):2</text>
</g>
<!-- node_3 -->
<g id="node4" class="node"><title>node_3</title>
<polygon fill="none" stroke="#000000" points="160,-226 24,-226 24,-190 160,-190 160,-226"/>
<polygon fill="none" stroke="#000000" points="164,-230 20,-230 20,-186 164,-186 164,-230"/>
<text text-anchor="middle" x="92" y="-205.2" font-family="Consolas" font-size="11.00" fill="#000000">(energy&#45;nn e12 x2):3</text>
</g>
<!-- node_8 -->
<g id="node7" class="node"><title>node_8</title>
<polygon fill="none" stroke="#000000" points="405,-226 269,-226 269,-190 405,-190 405,-226"/>
<polygon fill="none" stroke="#000000" points="409,-230 265,-230 265,-186 409,-186 409,-230"/>
<text text-anchor="middle" x="337" y="-205.2" font-family="Consolas" font-size="11.00" fill="#000000">(energy&#45;nn e10 x3):8</text>
</g>
<!-- node_3&#45;&gt;node_8 -->
<g id="edge2" class="edge"><title>node_3&#45;&gt;node_8</title>
<path fill="none" stroke="#000000" stroke-dasharray="1,5" d="M164.266,-208C195.916,-208 233.085,-208 264.735,-208"/>
<text text-anchor="middle" x="224.5" y="-222" font-family="Consolas" font-size="10.00" fill="#000000">x2=x3</text>
<text text-anchor="middle" x="224.5" y="-211" font-family="Consolas" font-size="10.00" fill="#000000">e12=e10</text>
</g>
<!-- node_4 -->
<g id="node5" class="node"><title>node_4</title>
<polygon fill="none" stroke="#000000" points="180,-288 4,-288 4,-252 180,-252 180,-288"/>
<polygon fill="none" stroke="#000000" points="184,-292 0,-292 0,-248 184,-248 184,-292"/>
<text text-anchor="middle" x="92" y="-267.2" font-family="Consolas" font-size="11.00" fill="#000000">(convert&#45;vb e1 x1 x2 u11):4</text>
</g>
<!-- node_12 -->
<g id="node8" class="node"><title>node_12</title>
<polygon fill="none" stroke="#000000" points="158,-350 26,-350 26,-314 158,-314 158,-350"/>
<polygon fill="none" stroke="#000000" points="162,-354 22,-354 22,-310 162,-310 162,-354"/>
<text text-anchor="middle" x="92" y="-329.2" font-family="Consolas" font-size="11.00" fill="#000000">(into&#45;in e9 e1 x3):12</text>
</g>
<!-- node_13 -->
<g id="node9" class="node"><title>node_13</title>
<polygon fill="none" stroke="#000000" points="156,-412 28,-412 28,-376 156,-376 156,-412"/>
<polygon fill="none" stroke="#000000" points="160,-416 24,-416 24,-372 160,-372 160,-416"/>
<text text-anchor="middle" x="92" y="-391.2" font-family="Consolas" font-size="11.00" fill="#000000">(when e8 e1 e2):13</text>
</g>
<!-- node_14 -->
<g id="node10" class="node"><title>node_14</title>
<polygon fill="none" stroke="#000000" points="146,-474 38,-474 38,-438 146,-438 146,-474"/>
<polygon fill="none" stroke="#000000" points="150,-478 34,-478 34,-434 150,-434 150,-478"/>
<text text-anchor="middle" x="92" y="-453.2" font-family="Consolas" font-size="11.00" fill="#000000">(thing e7 x1):14</text>
</g>
<!-- node_15 -->
<g id="node11" class="node"><title>node_15</title>
<polygon fill="none" stroke="#000000" points="170,-536 14,-536 14,-500 170,-500 170,-536"/>
<polygon fill="none" stroke="#000000" points="174,-540 10,-540 10,-496 174,-496 174,-540"/>
<text text-anchor="middle" x="92" y="-515.2" font-family="Consolas" font-size="11.00" fill="#000000">(turn&#45;vb e2 u5 x1 u6):15</text>
</g>
<!-- node_16 -->
<g id="node12" class="node"><title>node_16</title>
<polygon fill="none" stroke="#000000" points="146.5,-598 37.5,-598 37.5,-562 146.5,-562 146.5,-598"/>
<polygon fill="none" stroke="#000000" points="150.5,-602 33.5,-602 33.5,-558 150.5,-558 150.5,-602"/>
<text text-anchor="middle" x="92" y="-577.2" font-family="Consolas" font-size="11.00" fill="#000000">(on&#45;rb e4 e2):16</text>
</g>
</g>
</svg>
