<?xml version="1.0" encoding="UTF-8" standalone="no"?>
<!DOCTYPE svg PUBLIC "-//W3C//DTD SVG 1.1//EN"
 "http://www.w3.org/Graphics/SVG/1.1/DTD/svg11.dtd">
<!-- Generated by graphviz version 2.38.0 (20140413.2041)
 -->
<!-- Title: proofgraph Pages: 1 -->
<svg width="167pt" height="486pt"
 viewBox="0.00 0.00 167.00 486.00" xmlns="http://www.w3.org/2000/svg" xmlns:xlink="http://www.w3.org/1999/xlink">
<g id="graph0" class="graph" transform="scale(1 1) rotate(0) translate(4 482)">
<title>proofgraph</title>
<polygon fill="white" stroke="none" points="-4,4 -4,-482 163,-482 163,4 -4,4"/>
<!-- node_0 -->
<g id="node1" class="node"><title>node_0</title>
<polygon fill="none" stroke="#000000" points="146.5,-40 12.5,-40 12.5,-4 146.5,-4 146.5,-40"/>
<polygon fill="none" stroke="#000000" points="150.5,-44 8.5,-44 8.5,-0 150.5,-0 150.5,-44"/>
<text text-anchor="middle" x="79.5" y="-19.2" font-family="Consolas" font-size="11.00" fill="#000000">(candle&#45;nn e12 x1):0</text>
</g>
<!-- node_1 -->
<g id="node2" class="node"><title>node_1</title>
<polygon fill="none" stroke="#000000" points="147,-102 12,-102 12,-66 147,-66 147,-102"/>
<polygon fill="none" stroke="#000000" points="151,-106 8,-106 8,-62 151,-62 151,-106"/>
<text text-anchor="middle" x="79.5" y="-81.2" font-family="Consolas" font-size="11.00" fill="#000000">(source&#45;nn e11 x2):1</text>
</g>
<!-- node_2 -->
<g id="node3" class="node"><title>node_2</title>
<polygon fill="none" stroke="#000000" points="140,-164 19,-164 19,-128 140,-128 140,-164"/>
<polygon fill="none" stroke="#000000" points="144,-168 15,-168 15,-124 144,-124 144,-168"/>
<text text-anchor="middle" x="79.5" y="-143.2" font-family="Consolas" font-size="11.00" fill="#000000">(light&#45;nn e10 x3):2</text>
</g>
<!-- node_3 -->
<g id="node4" class="node"><title>node_3</title>
<polygon fill="none" stroke="#000000" points="137,-226 22,-226 22,-190 137,-190 137,-226"/>
<polygon fill="none" stroke="#000000" points="141,-230 18,-230 18,-186 141,-186 141,-230"/>
<text text-anchor="middle" x="79.5" y="-205.2" font-family="Consolas" font-size="11.00" fill="#000000">(of&#45;in e9 x2 x3):3</text>
</g>
<!-- node_4 -->
<g id="node5" class="node"><title>node_4</title>
<polygon fill="none" stroke="#000000" points="140.5,-288 18.5,-288 18.5,-252 140.5,-252 140.5,-288"/>
<polygon fill="none" stroke="#000000" points="144.5,-292 14.5,-292 14.5,-248 144.5,-248 144.5,-292"/>
<text text-anchor="middle" x="79.5" y="-267.2" font-family="Consolas" font-size="11.00" fill="#000000">(equal e8 x1 x2):4</text>
</g>
<!-- node_5 -->
<g id="node6" class="node"><title>node_5</title>
<polygon fill="none" stroke="#000000" points="143.5,-350 15.5,-350 15.5,-314 143.5,-314 143.5,-350"/>
<polygon fill="none" stroke="#000000" points="147.5,-354 11.5,-354 11.5,-310 147.5,-310 147.5,-354"/>
<text text-anchor="middle" x="79.5" y="-329.2" font-family="Consolas" font-size="11.00" fill="#000000">(when e7 e11 e2):5</text>
</g>
<!-- node_6 -->
<g id="node7" class="node"><title>node_6</title>
<polygon fill="none" stroke="#000000" points="130,-412 29,-412 29,-376 130,-376 130,-412"/>
<polygon fill="none" stroke="#000000" points="134,-416 25,-416 25,-372 134,-372 134,-416"/>
<text text-anchor="middle" x="79.5" y="-391.2" font-family="Consolas" font-size="11.00" fill="#000000">(thing e6 x1):6</text>
</g>
<!-- node_7 -->
<g id="node8" class="node"><title>node_7</title>
<polygon fill="none" stroke="#000000" points="155,-474 4,-474 4,-438 155,-438 155,-474"/>
<polygon fill="none" stroke="#000000" points="159,-478 0,-478 0,-434 159,-434 159,-478"/>
<text text-anchor="middle" x="79.5" y="-453.2" font-family="Consolas" font-size="11.00" fill="#000000">(burn&#45;vb e2 u4 x1 u5):7</text>
</g>
</g>
</svg>
