<?xml version="1.0" encoding="UTF-8" standalone="no"?>
<!DOCTYPE svg PUBLIC "-//W3C//DTD SVG 1.1//EN"
 "http://www.w3.org/Graphics/SVG/1.1/DTD/svg11.dtd">
<!-- Generated by graphviz version 2.38.0 (20140413.2041)
 -->
<!-- Title: proofgraph Pages: 1 -->
<svg width="604pt" height="300pt"
 viewBox="0.00 0.00 604.00 300.00" xmlns="http://www.w3.org/2000/svg" xmlns:xlink="http://www.w3.org/1999/xlink">
<g id="graph0" class="graph" transform="scale(1 1) rotate(0) translate(4 296)">
<title>proofgraph</title>
<polygon fill="white" stroke="none" points="-4,4 -4,-296 600,-296 600,4 -4,4"/>
<!-- node_0 -->
<g id="node1" class="node"><title>node_0</title>
<polygon fill="none" stroke="#000000" points="126.5,-40 8.5,-40 8.5,-4 126.5,-4 126.5,-40"/>
<polygon fill="none" stroke="#000000" points="130.5,-44 4.5,-44 4.5,-3.55271e-15 130.5,-3.55271e-15 130.5,-44"/>
<text text-anchor="middle" x="67.5" y="-19.2" font-family="Consolas" font-size="11.00" fill="#000000">(plant&#45;nn e8 x1):0</text>
</g>
<!-- node_1 -->
<g id="node2" class="node"><title>node_1</title>
<polygon fill="none" stroke="#000000" points="122,-102 13,-102 13,-66 122,-66 122,-102"/>
<polygon fill="none" stroke="#000000" points="126,-106 9,-106 9,-62 126,-62 126,-106"/>
<text text-anchor="middle" x="67.5" y="-81.2" font-family="Consolas" font-size="11.00" fill="#000000">(card e7 x1 2):1</text>
</g>
<!-- node_4 -->
<g id="node5" class="node"><title>node_4</title>
<polygon fill="none" stroke="#000000" points="350,-102 241,-102 241,-66 350,-66 350,-102"/>
<polygon fill="none" stroke="#000000" points="354,-106 237,-106 237,-62 354,-62 354,-106"/>
<text text-anchor="middle" x="295.5" y="-81.2" font-family="Consolas" font-size="11.00" fill="#000000">(card e5 x2 2):4</text>
</g>
<!-- node_1&#45;&gt;node_4 -->
<g id="edge3" class="edge"><title>node_1&#45;&gt;node_4</title>
<path fill="none" stroke="#000000" stroke-dasharray="1,5" d="M126.114,-84C160.116,-84 203.007,-84 236.991,-84"/>
<text text-anchor="middle" x="186" y="-98" font-family="Consolas" font-size="10.00" fill="#000000">x1=x2</text>
<text text-anchor="middle" x="186" y="-87" font-family="Consolas" font-size="10.00" fill="#000000">e7=e5</text>
</g>
<!-- node_2 -->
<g id="node3" class="node"><title>node_2</title>
<polygon fill="none" stroke="#000000" points="113,-164 22,-164 22,-128 113,-128 113,-164"/>
<polygon fill="none" stroke="#000000" points="117,-168 18,-168 18,-124 117,-124 117,-168"/>
<text text-anchor="middle" x="67.5" y="-143.2" font-family="Consolas" font-size="11.00" fill="#000000">(not e3 e6):2</text>
</g>
<!-- node_3 -->
<g id="node4" class="node"><title>node_3</title>
<polygon fill="none" stroke="#000000" points="131,-226 4,-226 4,-190 131,-190 131,-226"/>
<polygon fill="none" stroke="#000000" points="135,-230 -2.84217e-14,-230 -1.42109e-14,-186 135,-186 135,-230"/>
<text text-anchor="middle" x="67.5" y="-205.2" font-family="Consolas" font-size="11.00" fill="#000000">(animal&#45;nn e6 x2):3</text>
</g>
<!-- node_9 -->
<g id="node7" class="node"><title>node_9</title>
<polygon fill="none" stroke="#000000" points="354,-226 237,-226 237,-190 354,-190 354,-226"/>
<text text-anchor="middle" x="295.5" y="-205.2" font-family="Consolas" font-size="11.00" fill="#000000">(dog&#45;nn _u2 x2):9</text>
</g>
<!-- node_3&#45;&gt;node_9 -->
<g id="edge1" class="edge"><title>node_3&#45;&gt;node_9</title>
<path fill="none" stroke="#000000" d="M145.099,-208C175.102,-208 208.938,-208 236.813,-208"/>
<polygon fill="#000000" stroke="#000000" points="145.085,-204.5 135.085,-208 145.085,-211.5 145.085,-204.5"/>
<text text-anchor="middle" x="186" y="-211" font-family="Consolas" font-size="10.00" fill="#000000">dog&#45;is&#45;animal</text>
</g>
<!-- node_7 -->
<g id="node6" class="node"><title>node_7</title>
<polygon fill="none" stroke="#000000" points="128.5,-288 6.5,-288 6.5,-252 128.5,-252 128.5,-288"/>
<polygon fill="none" stroke="#000000" points="132.5,-292 2.5,-292 2.5,-248 132.5,-248 132.5,-292"/>
<text text-anchor="middle" x="67.5" y="-267.2" font-family="Consolas" font-size="11.00" fill="#000000">(equal e4 x1 x2):7</text>
</g>
<!-- node_10 -->
<g id="node8" class="node"><title>node_10</title>
<polygon fill="none" stroke="#000000" points="596,-226 456,-226 456,-190 596,-190 596,-226"/>
<text text-anchor="middle" x="526" y="-205.2" font-family="Consolas" font-size="11.00" fill="#000000">(poodle&#45;nn _u2 x2):10</text>
</g>
<!-- node_9&#45;&gt;node_10 -->
<g id="edge2" class="edge"><title>node_9&#45;&gt;node_10</title>
<path fill="none" stroke="#000000" d="M364.18,-208C393.12,-208 426.87,-208 455.958,-208"/>
<polygon fill="#000000" stroke="#000000" points="364.16,-204.5 354.16,-208 364.16,-211.5 364.16,-204.5"/>
<text text-anchor="middle" x="405" y="-211" font-family="Consolas" font-size="10.00" fill="#000000">poodle&#45;is&#45;dog</text>
</g>
</g>
</svg>
