<?xml version="1.0" encoding="UTF-8" standalone="no"?>
<!DOCTYPE svg PUBLIC "-//W3C//DTD SVG 1.1//EN"
 "http://www.w3.org/Graphics/SVG/1.1/DTD/svg11.dtd">
<!-- Generated by graphviz version 2.38.0 (20140413.2041)
 -->
<!-- Title: proofgraph Pages: 1 -->
<svg width="168pt" height="176pt"
 viewBox="0.00 0.00 168.00 176.00" xmlns="http://www.w3.org/2000/svg" xmlns:xlink="http://www.w3.org/1999/xlink">
<g id="graph0" class="graph" transform="scale(1 1) rotate(0) translate(4 172)">
<title>proofgraph</title>
<polygon fill="white" stroke="none" points="-4,4 -4,-172 164,-172 164,4 -4,4"/>
<!-- node_0 -->
<g id="node1" class="node"><title>node_0</title>
<polygon fill="none" stroke="#000000" points="150,-40 10,-40 10,-4 150,-4 150,-40"/>
<polygon fill="none" stroke="#000000" points="154,-44 6,-44 6,-0 154,-0 154,-44"/>
<text text-anchor="middle" x="80" y="-19.2" font-family="Consolas" font-size="11.00" fill="#000000">(flashlight&#45;nn e5 x1):0</text>
</g>
<!-- node_1 -->
<g id="node2" class="node"><title>node_1</title>
<polygon fill="none" stroke="#000000" points="136.5,-102 23.5,-102 23.5,-66 136.5,-66 136.5,-102"/>
<polygon fill="none" stroke="#000000" points="140.5,-106 19.5,-106 19.5,-62 140.5,-62 140.5,-106"/>
<text text-anchor="middle" x="80" y="-81.2" font-family="Consolas" font-size="11.00" fill="#000000">(light&#45;nn e4 x2):1</text>
</g>
<!-- node_2 -->
<g id="node3" class="node"><title>node_2</title>
<polygon fill="none" stroke="#000000" points="156,-164 4,-164 4,-128 156,-128 156,-164"/>
<polygon fill="none" stroke="#000000" points="160,-168 0,-168 0,-124 160,-124 160,-168"/>
<text text-anchor="middle" x="80" y="-143.2" font-family="Consolas" font-size="11.00" fill="#000000">(emit&#45;vb e1 x1 x2 u3):2</text>
</g>
</g>
</svg>
