<?xml version="1.0" encoding="UTF-8" standalone="no"?>
<!DOCTYPE svg PUBLIC "-//W3C//DTD SVG 1.1//EN"
 "http://www.w3.org/Graphics/SVG/1.1/DTD/svg11.dtd">
<!-- Generated by graphviz version 2.38.0 (20140413.2041)
 -->
<!-- Title: proofgraph Pages: 1 -->
<svg width="161pt" height="238pt"
 viewBox="0.00 0.00 161.00 238.00" xmlns="http://www.w3.org/2000/svg" xmlns:xlink="http://www.w3.org/1999/xlink">
<g id="graph0" class="graph" transform="scale(1 1) rotate(0) translate(4 234)">
<title>proofgraph</title>
<polygon fill="white" stroke="none" points="-4,4 -4,-234 157,-234 157,4 -4,4"/>
<!-- node_0 -->
<g id="node1" class="node"><title>node_0</title>
<polygon fill="none" stroke="#000000" points="137,-40 16,-40 16,-4 137,-4 137,-40"/>
<polygon fill="none" stroke="#000000" points="141,-44 12,-44 12,-0 141,-0 141,-44"/>
<text text-anchor="middle" x="76.5" y="-19.2" font-family="Consolas" font-size="11.00" fill="#000000">(steve&#45;nn e5 x1):0</text>
</g>
<!-- node_1 -->
<g id="node2" class="node"><title>node_1</title>
<polygon fill="none" stroke="#000000" points="122.5,-102 30.5,-102 30.5,-66 122.5,-66 122.5,-102"/>
<polygon fill="none" stroke="#000000" points="126.5,-106 26.5,-106 26.5,-62 126.5,-62 126.5,-106"/>
<text text-anchor="middle" x="76.5" y="-81.2" font-family="Consolas" font-size="11.00" fill="#000000">(per e6 x1):1</text>
</g>
<!-- node_2 -->
<g id="node3" class="node"><title>node_2</title>
<polygon fill="none" stroke="#000000" points="149,-164 4,-164 4,-128 149,-128 149,-164"/>
<polygon fill="none" stroke="#000000" points="153,-168 0,-168 0,-124 153,-124 153,-168"/>
<text text-anchor="middle" x="76.5" y="-143.2" font-family="Consolas" font-size="11.00" fill="#000000">(conductor&#45;nn e4 x2):2</text>
</g>
<!-- node_3 -->
<g id="node4" class="node"><title>node_3</title>
<polygon fill="none" stroke="#000000" points="137.5,-226 15.5,-226 15.5,-190 137.5,-190 137.5,-226"/>
<polygon fill="none" stroke="#000000" points="141.5,-230 11.5,-230 11.5,-186 141.5,-186 141.5,-230"/>
<text text-anchor="middle" x="76.5" y="-205.2" font-family="Consolas" font-size="11.00" fill="#000000">(equal e3 x1 x2):3</text>
</g>
</g>
</svg>
