<?xml version="1.0" encoding="UTF-8" standalone="no"?>
<!DOCTYPE svg PUBLIC "-//W3C//DTD SVG 1.1//EN"
 "http://www.w3.org/Graphics/SVG/1.1/DTD/svg11.dtd">
<!-- Generated by graphviz version 2.38.0 (20140413.2041)
 -->
<!-- Title: proofgraph Pages: 1 -->
<svg width="161pt" height="486pt"
 viewBox="0.00 0.00 161.00 486.00" xmlns="http://www.w3.org/2000/svg" xmlns:xlink="http://www.w3.org/1999/xlink">
<g id="graph0" class="graph" transform="scale(1 1) rotate(0) translate(4 482)">
<title>proofgraph</title>
<polygon fill="white" stroke="none" points="-4,4 -4,-482 157,-482 157,4 -4,4"/>
<!-- node_0 -->
<g id="node1" class="node"><title>node_0</title>
<polygon fill="none" stroke="#000000" points="146.5,-40 6.5,-40 6.5,-4 146.5,-4 146.5,-40"/>
<polygon fill="none" stroke="#000000" points="150.5,-44 2.5,-44 2.5,-0 150.5,-0 150.5,-44"/>
<text text-anchor="middle" x="76.5" y="-19.2" font-family="Consolas" font-size="11.00" fill="#000000">(electrical&#45;adj s1 x1):0</text>
</g>
<!-- node_1 -->
<g id="node2" class="node"><title>node_1</title>
<polygon fill="none" stroke="#000000" points="149,-102 4,-102 4,-66 149,-66 149,-102"/>
<polygon fill="none" stroke="#000000" points="153,-106 0,-106 0,-62 153,-62 153,-106"/>
<text text-anchor="middle" x="76.5" y="-81.2" font-family="Consolas" font-size="11.00" fill="#000000">(conductor&#45;nn e9 x1):1</text>
</g>
<!-- node_2 -->
<g id="node3" class="node"><title>node_2</title>
<polygon fill="none" stroke="#000000" points="140.5,-164 12.5,-164 12.5,-128 140.5,-128 140.5,-164"/>
<polygon fill="none" stroke="#000000" points="144.5,-168 8.5,-168 8.5,-124 144.5,-124 144.5,-168"/>
<text text-anchor="middle" x="76.5" y="-143.2" font-family="Consolas" font-size="11.00" fill="#000000">(vehicle&#45;nn e8 x2):2</text>
</g>
<!-- node_3 -->
<g id="node4" class="node"><title>node_3</title>
<polygon fill="none" stroke="#000000" points="148,-226 5,-226 5,-190 148,-190 148,-226"/>
<polygon fill="none" stroke="#000000" points="152,-230 1,-230 1,-186 152,-186 152,-230"/>
<text text-anchor="middle" x="76.5" y="-205.2" font-family="Consolas" font-size="11.00" fill="#000000">(electricity&#45;nn e7 x4):3</text>
</g>
<!-- node_4 -->
<g id="node5" class="node"><title>node_4</title>
<polygon fill="none" stroke="#000000" points="134,-288 19,-288 19,-252 134,-252 134,-288"/>
<polygon fill="none" stroke="#000000" points="138,-292 15,-292 15,-248 138,-248 138,-292"/>
<text text-anchor="middle" x="76.5" y="-267.2" font-family="Consolas" font-size="11.00" fill="#000000">(of&#45;in e6 x3 x4):4</text>
</g>
<!-- node_5 -->
<g id="node6" class="node"><title>node_5</title>
<polygon fill="none" stroke="#000000" points="136,-350 17,-350 17,-314 136,-314 136,-350"/>
<polygon fill="none" stroke="#000000" points="140,-354 13,-354 13,-310 140,-310 140,-354"/>
<text text-anchor="middle" x="76.5" y="-329.2" font-family="Consolas" font-size="11.00" fill="#000000">(for&#45;in e5 x2 x3):5</text>
</g>
<!-- node_6 -->
<g id="node7" class="node"><title>node_6</title>
<polygon fill="none" stroke="#000000" points="137.5,-412 15.5,-412 15.5,-376 137.5,-376 137.5,-412"/>
<polygon fill="none" stroke="#000000" points="141.5,-416 11.5,-416 11.5,-372 141.5,-372 141.5,-416"/>
<text text-anchor="middle" x="76.5" y="-391.2" font-family="Consolas" font-size="11.00" fill="#000000">(equal e4 x1 x2):6</text>
</g>
<!-- node_7 -->
<g id="node8" class="node"><title>node_7</title>
<polygon fill="none" stroke="#000000" points="133.5,-474 19.5,-474 19.5,-438 133.5,-438 133.5,-474"/>
<polygon fill="none" stroke="#000000" points="137.5,-478 15.5,-478 15.5,-434 137.5,-434 137.5,-478"/>
<text text-anchor="middle" x="76.5" y="-453.2" font-family="Consolas" font-size="11.00" fill="#000000">(flow&#45;nn e3 x3):7</text>
</g>
</g>
</svg>
