<?xml version="1.0" encoding="UTF-8" standalone="no"?>
<!DOCTYPE svg PUBLIC "-//W3C//DTD SVG 1.1//EN"
 "http://www.w3.org/Graphics/SVG/1.1/DTD/svg11.dtd">
<!-- Generated by graphviz version 2.38.0 (20140413.2041)
 -->
<!-- Title: proofgraph Pages: 1 -->
<svg width="163pt" height="548pt"
 viewBox="0.00 0.00 163.00 548.00" xmlns="http://www.w3.org/2000/svg" xmlns:xlink="http://www.w3.org/1999/xlink">
<g id="graph0" class="graph" transform="scale(1 1) rotate(0) translate(4 544)">
<title>proofgraph</title>
<polygon fill="white" stroke="none" points="-4,4 -4,-544 159,-544 159,4 -4,4"/>
<!-- node_0 -->
<g id="node1" class="node"><title>node_0</title>
<polygon fill="none" stroke="#000000" points="137,-40 18,-40 18,-4 137,-4 137,-40"/>
<polygon fill="none" stroke="#000000" points="141,-44 14,-44 14,-0 141,-0 141,-44"/>
<text text-anchor="middle" x="77.5" y="-19.2" font-family="Consolas" font-size="11.00" fill="#000000">(star&#45;nn e10 x1):0</text>
</g>
<!-- node_1 -->
<g id="node2" class="node"><title>node_1</title>
<polygon fill="none" stroke="#000000" points="141.5,-102 13.5,-102 13.5,-66 141.5,-66 141.5,-102"/>
<polygon fill="none" stroke="#000000" points="145.5,-106 9.5,-106 9.5,-62 145.5,-62 145.5,-106"/>
<text text-anchor="middle" x="77.5" y="-81.2" font-family="Consolas" font-size="11.00" fill="#000000">(source&#45;nn e9 x3):1</text>
</g>
<!-- node_2 -->
<g id="node3" class="node"><title>node_2</title>
<polygon fill="none" stroke="#000000" points="134,-164 21,-164 21,-128 134,-128 134,-164"/>
<polygon fill="none" stroke="#000000" points="138,-168 17,-168 17,-124 138,-124 138,-168"/>
<text text-anchor="middle" x="77.5" y="-143.2" font-family="Consolas" font-size="11.00" fill="#000000">(light&#45;nn e8 x4):2</text>
</g>
<!-- node_3 -->
<g id="node4" class="node"><title>node_3</title>
<polygon fill="none" stroke="#000000" points="135,-226 20,-226 20,-190 135,-190 135,-226"/>
<polygon fill="none" stroke="#000000" points="139,-230 16,-230 16,-186 139,-186 139,-230"/>
<text text-anchor="middle" x="77.5" y="-205.2" font-family="Consolas" font-size="11.00" fill="#000000">(of&#45;in e7 x3 x4):3</text>
</g>
<!-- node_4 -->
<g id="node5" class="node"><title>node_4</title>
<polygon fill="none" stroke="#000000" points="138.5,-288 16.5,-288 16.5,-252 138.5,-252 138.5,-288"/>
<polygon fill="none" stroke="#000000" points="142.5,-292 12.5,-292 12.5,-248 142.5,-248 142.5,-292"/>
<text text-anchor="middle" x="77.5" y="-267.2" font-family="Consolas" font-size="11.00" fill="#000000">(equal e6 x1 x3):4</text>
</g>
<!-- node_5 -->
<g id="node6" class="node"><title>node_5</title>
<polygon fill="none" stroke="#000000" points="143,-350 12,-350 12,-314 143,-314 143,-350"/>
<polygon fill="none" stroke="#000000" points="147,-354 8,-354 8,-310 147,-310 147,-354"/>
<text text-anchor="middle" x="77.5" y="-329.2" font-family="Consolas" font-size="11.00" fill="#000000">(nuclear&#45;adj s1 x2):5</text>
</g>
<!-- node_6 -->
<g id="node7" class="node"><title>node_6</title>
<polygon fill="none" stroke="#000000" points="145,-412 10,-412 10,-376 145,-376 145,-412"/>
<polygon fill="none" stroke="#000000" points="149,-416 6,-416 6,-372 149,-372 149,-416"/>
<text text-anchor="middle" x="77.5" y="-391.2" font-family="Consolas" font-size="11.00" fill="#000000">(reaction&#45;nn e5 x2):6</text>
</g>
<!-- node_7 -->
<g id="node8" class="node"><title>node_7</title>
<polygon fill="none" stroke="#000000" points="132,-474 23,-474 23,-438 132,-438 132,-474"/>
<polygon fill="none" stroke="#000000" points="136,-478 19,-478 19,-434 136,-434 136,-478"/>
<text text-anchor="middle" x="77.5" y="-453.2" font-family="Consolas" font-size="11.00" fill="#000000">(card e4 x2 2):7</text>
</g>
<!-- node_8 -->
<g id="node9" class="node"><title>node_8</title>
<polygon fill="none" stroke="#000000" points="151,-536 4,-536 4,-500 151,-500 151,-536"/>
<polygon fill="none" stroke="#000000" points="155,-540 0,-540 0,-496 155,-496 155,-540"/>
<text text-anchor="middle" x="77.5" y="-515.2" font-family="Consolas" font-size="11.00" fill="#000000">(through&#45;in e3 e9 x2):8</text>
</g>
</g>
</svg>
