<?xml version="1.0" encoding="UTF-8" standalone="no"?>
<!DOCTYPE svg PUBLIC "-//W3C//DTD SVG 1.1//EN"
 "http://www.w3.org/Graphics/SVG/1.1/DTD/svg11.dtd">
<!-- Generated by graphviz version 2.38.0 (20140413.2041)
 -->
<!-- Title: proofgraph Pages: 1 -->
<svg width="359pt" height="238pt"
 viewBox="0.00 0.00 359.00 238.00" xmlns="http://www.w3.org/2000/svg" xmlns:xlink="http://www.w3.org/1999/xlink">
<g id="graph0" class="graph" transform="scale(1 1) rotate(0) translate(4 234)">
<title>proofgraph</title>
<polygon fill="white" stroke="none" points="-4,4 -4,-234 355,-234 355,4 -4,4"/>
<!-- node_0 -->
<g id="node1" class="node"><title>node_0</title>
<polygon fill="none" stroke="#000000" points="121.5,-102 13.5,-102 13.5,-66 121.5,-66 121.5,-102"/>
<polygon fill="none" stroke="#000000" points="125.5,-106 9.5,-106 9.5,-62 125.5,-62 125.5,-106"/>
<text text-anchor="middle" x="67.5" y="-81.2" font-family="Consolas" font-size="11.00" fill="#000000">(cat&#45;nn e7 x1):0</text>
</g>
<!-- node_7 -->
<g id="node6" class="node"><title>node_7</title>
<polygon fill="none" stroke="#000000" points="349.5,-71 235.5,-71 235.5,-35 349.5,-35 349.5,-71"/>
<text text-anchor="middle" x="292.5" y="-50.2" font-family="Consolas" font-size="11.00" fill="#000000">(cat&#45;nn _u1 x2):7</text>
</g>
<!-- node_0&#45;&gt;node_7 -->
<g id="edge3" class="edge"><title>node_0&#45;&gt;node_7</title>
<path fill="none" stroke="#000000" stroke-dasharray="1,5" d="M125.638,-76.057C159.32,-71.3749 201.763,-65.4747 235.282,-60.815"/>
<text text-anchor="middle" x="184.5" y="-87" font-family="Consolas" font-size="10.00" fill="#000000">e7=_u1</text>
<text text-anchor="middle" x="184.5" y="-76" font-family="Consolas" font-size="10.00" fill="#000000">x1=x2</text>
</g>
<!-- node_1 -->
<g id="node2" class="node"><title>node_1</title>
<polygon fill="none" stroke="#000000" points="122,-164 13,-164 13,-128 122,-128 122,-164"/>
<polygon fill="none" stroke="#000000" points="126,-168 9,-168 9,-124 126,-124 126,-168"/>
<text text-anchor="middle" x="67.5" y="-143.2" font-family="Consolas" font-size="11.00" fill="#000000">(card e6 x1 2):1</text>
</g>
<!-- node_3 -->
<g id="node4" class="node"><title>node_3</title>
<polygon fill="none" stroke="#000000" points="347,-164 238,-164 238,-128 347,-128 347,-164"/>
<polygon fill="none" stroke="#000000" points="351,-168 234,-168 234,-124 351,-124 351,-168"/>
<text text-anchor="middle" x="292.5" y="-143.2" font-family="Consolas" font-size="11.00" fill="#000000">(card e4 x2 2):3</text>
</g>
<!-- node_1&#45;&gt;node_3 -->
<g id="edge2" class="edge"><title>node_1&#45;&gt;node_3</title>
<path fill="none" stroke="#000000" stroke-dasharray="1,5" d="M126.218,-146C159.255,-146 200.576,-146 233.637,-146"/>
<text text-anchor="middle" x="184.5" y="-160" font-family="Consolas" font-size="10.00" fill="#000000">x1=x2</text>
<text text-anchor="middle" x="184.5" y="-149" font-family="Consolas" font-size="10.00" fill="#000000">e6=e4</text>
</g>
<!-- node_2 -->
<g id="node3" class="node"><title>node_2</title>
<polygon fill="none" stroke="#000000" points="131,-40 4,-40 4,-4 131,-4 131,-40"/>
<polygon fill="none" stroke="#000000" points="135,-44 -2.84217e-14,-44 -1.42109e-14,-3.55271e-15 135,-3.55271e-15 135,-44"/>
<text text-anchor="middle" x="67.5" y="-19.2" font-family="Consolas" font-size="11.00" fill="#000000">(animal&#45;nn e5 x2):2</text>
</g>
<!-- node_2&#45;&gt;node_7 -->
<g id="edge1" class="edge"><title>node_2&#45;&gt;node_7</title>
<path fill="none" stroke="#000000" d="M145.011,-32.6361C174.677,-36.76 208.02,-41.3952 235.392,-45.2003"/>
<polygon fill="#000000" stroke="#000000" points="145.492,-29.1693 135.105,-31.259 144.528,-36.1027 145.492,-29.1693"/>
<text text-anchor="middle" x="184.5" y="-46" font-family="Consolas" font-size="10.00" fill="#000000">cat&#45;is&#45;animal</text>
</g>
<!-- node_6 -->
<g id="node5" class="node"><title>node_6</title>
<polygon fill="none" stroke="#000000" points="128.5,-226 6.5,-226 6.5,-190 128.5,-190 128.5,-226"/>
<polygon fill="none" stroke="#000000" points="132.5,-230 2.5,-230 2.5,-186 132.5,-186 132.5,-230"/>
<text text-anchor="middle" x="67.5" y="-205.2" font-family="Consolas" font-size="11.00" fill="#000000">(equal e3 x1 x2):6</text>
</g>
</g>
</svg>
