<?xml version="1.0" encoding="UTF-8" standalone="no"?>
<!DOCTYPE svg PUBLIC "-//W3C//DTD SVG 1.1//EN"
 "http://www.w3.org/Graphics/SVG/1.1/DTD/svg11.dtd">
<!-- Generated by graphviz version 2.38.0 (20140413.2041)
 -->
<!-- Title: proofgraph Pages: 1 -->
<svg width="338pt" height="424pt"
 viewBox="0.00 0.00 338.00 424.00" xmlns="http://www.w3.org/2000/svg" xmlns:xlink="http://www.w3.org/1999/xlink">
<g id="graph0" class="graph" transform="scale(1 1) rotate(0) translate(4 420)">
<title>proofgraph</title>
<polygon fill="white" stroke="none" points="-4,4 -4,-420 334,-420 334,4 -4,4"/>
<!-- node_0 -->
<g id="node1" class="node"><title>node_0</title>
<polygon fill="none" stroke="#000000" points="141,-40 20,-40 20,-4 141,-4 141,-40"/>
<polygon fill="none" stroke="#000000" points="145,-44 16,-44 16,-0 145,-0 145,-44"/>
<text text-anchor="middle" x="80.5" y="-19.2" font-family="Consolas" font-size="11.00" fill="#000000">(steve&#45;nn e8 x1):0</text>
</g>
<!-- node_1 -->
<g id="node2" class="node"><title>node_1</title>
<polygon fill="none" stroke="#000000" points="126.5,-102 34.5,-102 34.5,-66 126.5,-66 126.5,-102"/>
<polygon fill="none" stroke="#000000" points="130.5,-106 30.5,-106 30.5,-62 130.5,-62 130.5,-106"/>
<text text-anchor="middle" x="80.5" y="-81.2" font-family="Consolas" font-size="11.00" fill="#000000">(per e9 x1):1</text>
</g>
<!-- node_3 -->
<g id="node4" class="node"><title>node_3</title>
<polygon fill="none" stroke="#000000" points="326,-102 234,-102 234,-66 326,-66 326,-102"/>
<polygon fill="none" stroke="#000000" points="330,-106 230,-106 230,-62 330,-62 330,-106"/>
<text text-anchor="middle" x="280" y="-81.2" font-family="Consolas" font-size="11.00" fill="#000000">(per e7 x3):3</text>
</g>
<!-- node_1&#45;&gt;node_3 -->
<g id="edge1" class="edge"><title>node_1&#45;&gt;node_3</title>
<path fill="none" stroke="#000000" stroke-dasharray="1,5" d="M130.574,-84C160.848,-84 199.545,-84 229.836,-84"/>
<text text-anchor="middle" x="195.5" y="-98" font-family="Consolas" font-size="10.00" fill="#000000">x1=x3</text>
<text text-anchor="middle" x="195.5" y="-87" font-family="Consolas" font-size="10.00" fill="#000000">e9=e7</text>
</g>
<!-- node_2 -->
<g id="node3" class="node"><title>node_2</title>
<polygon fill="none" stroke="#000000" points="137,-164 24,-164 24,-128 137,-128 137,-164"/>
<polygon fill="none" stroke="#000000" points="141,-168 20,-168 20,-124 141,-124 141,-168"/>
<text text-anchor="middle" x="80.5" y="-143.2" font-family="Consolas" font-size="11.00" fill="#000000">(john&#45;nn e6 x3):2</text>
</g>
<!-- node_6 -->
<g id="node5" class="node"><title>node_6</title>
<polygon fill="none" stroke="#000000" points="141.5,-226 19.5,-226 19.5,-190 141.5,-190 141.5,-226"/>
<polygon fill="none" stroke="#000000" points="145.5,-230 15.5,-230 15.5,-186 145.5,-186 145.5,-230"/>
<text text-anchor="middle" x="80.5" y="-205.2" font-family="Consolas" font-size="11.00" fill="#000000">(equal e5 x2 x3):6</text>
</g>
<!-- node_7 -->
<g id="node6" class="node"><title>node_7</title>
<polygon fill="none" stroke="#000000" points="150,-288 11,-288 11,-252 150,-252 150,-288"/>
<polygon fill="none" stroke="#000000" points="154,-292 7,-292 7,-248 154,-248 154,-292"/>
<text text-anchor="middle" x="80.5" y="-267.2" font-family="Consolas" font-size="11.00" fill="#000000">(ingested&#45;adj s1 x2):7</text>
</g>
<!-- node_8 -->
<g id="node7" class="node"><title>node_8</title>
<polygon fill="none" stroke="#000000" points="143.5,-350 17.5,-350 17.5,-314 143.5,-314 143.5,-350"/>
<polygon fill="none" stroke="#000000" points="147.5,-354 13.5,-354 13.5,-310 147.5,-310 147.5,-354"/>
<text text-anchor="middle" x="80.5" y="-329.2" font-family="Consolas" font-size="11.00" fill="#000000">(poison&#45;nn e4 x2):8</text>
</g>
<!-- node_9 -->
<g id="node8" class="node"><title>node_9</title>
<polygon fill="none" stroke="#000000" points="157,-412 4,-412 4,-376 157,-376 157,-412"/>
<polygon fill="none" stroke="#000000" points="161,-416 0,-416 0,-372 161,-372 161,-416"/>
<text text-anchor="middle" x="80.5" y="-391.2" font-family="Consolas" font-size="11.00" fill="#000000">(think&#45;vb e1 x1 x2 u3):9</text>
</g>
</g>
</svg>
