<?xml version="1.0" encoding="UTF-8" standalone="no"?>
<!DOCTYPE svg PUBLIC "-//W3C//DTD SVG 1.1//EN"
 "http://www.w3.org/Graphics/SVG/1.1/DTD/svg11.dtd">
<!-- Generated by graphviz version 2.38.0 (20140413.2041)
 -->
<!-- Title: proofgraph Pages: 1 -->
<svg width="181pt" height="238pt"
 viewBox="0.00 0.00 181.00 238.00" xmlns="http://www.w3.org/2000/svg" xmlns:xlink="http://www.w3.org/1999/xlink">
<g id="graph0" class="graph" transform="scale(1 1) rotate(0) translate(4 234)">
<title>proofgraph</title>
<polygon fill="white" stroke="none" points="-4,4 -4,-234 177,-234 177,4 -4,4"/>
<!-- node_0 -->
<g id="node1" class="node"><title>node_0</title>
<polygon fill="none" stroke="#000000" points="145.5,-40 27.5,-40 27.5,-4 145.5,-4 145.5,-40"/>
<polygon fill="none" stroke="#000000" points="149.5,-44 23.5,-44 23.5,-0 149.5,-0 149.5,-44"/>
<text text-anchor="middle" x="86.5" y="-19.2" font-family="Consolas" font-size="11.00" fill="#000000">(plant&#45;nn e7 x1):0</text>
</g>
<!-- node_1 -->
<g id="node2" class="node"><title>node_1</title>
<polygon fill="none" stroke="#000000" points="153,-102 20,-102 20,-66 153,-66 153,-102"/>
<polygon fill="none" stroke="#000000" points="157,-106 16,-106 16,-62 157,-62 157,-106"/>
<text text-anchor="middle" x="86.5" y="-81.2" font-family="Consolas" font-size="11.00" fill="#000000">(sunlight&#45;nn e6 x2):1</text>
</g>
<!-- node_2 -->
<g id="node3" class="node"><title>node_2</title>
<polygon fill="none" stroke="#000000" points="163.5,-164 9.5,-164 9.5,-128 163.5,-128 163.5,-164"/>
<polygon fill="none" stroke="#000000" points="167.5,-168 5.5,-168 5.5,-124 167.5,-124 167.5,-168"/>
<text text-anchor="middle" x="86.5" y="-143.2" font-family="Consolas" font-size="11.00" fill="#000000">(grow&#45;vb e2 x2 u4 u5):2</text>
</g>
<!-- node_3 -->
<g id="node4" class="node"><title>node_3</title>
<polygon fill="none" stroke="#000000" points="169,-226 4,-226 4,-190 169,-190 169,-226"/>
<polygon fill="none" stroke="#000000" points="173,-230 0,-230 0,-186 173,-186 173,-230"/>
<text text-anchor="middle" x="86.5" y="-205.2" font-family="Consolas" font-size="11.00" fill="#000000">(require&#45;vb e1 x1 x2 e2):3</text>
</g>
</g>
</svg>
