<?xml version="1.0" encoding="UTF-8" standalone="no"?>
<!DOCTYPE svg PUBLIC "-//W3C//DTD SVG 1.1//EN"
 "http://www.w3.org/Graphics/SVG/1.1/DTD/svg11.dtd">
<!-- Generated by graphviz version 2.38.0 (20140413.2041)
 -->
<!-- Title: proofgraph Pages: 1 -->
<svg width="138pt" height="238pt"
 viewBox="0.00 0.00 138.00 238.00" xmlns="http://www.w3.org/2000/svg" xmlns:xlink="http://www.w3.org/1999/xlink">
<g id="graph0" class="graph" transform="scale(1 1) rotate(0) translate(4 234)">
<title>proofgraph</title>
<polygon fill="white" stroke="none" points="-4,4 -4,-234 134,-234 134,4 -4,4"/>
<!-- node_0 -->
<g id="node1" class="node"><title>node_0</title>
<polygon fill="none" stroke="#000000" points="125.5,-40 4.5,-40 4.5,-4 125.5,-4 125.5,-40"/>
<polygon fill="none" stroke="#000000" points="129.5,-44 0.5,-44 0.5,-0 129.5,-0 129.5,-44"/>
<text text-anchor="middle" x="65" y="-19.2" font-family="Consolas" font-size="11.00" fill="#000000">(percy&#45;nn e5 x1):0</text>
</g>
<!-- node_1 -->
<g id="node2" class="node"><title>node_1</title>
<polygon fill="none" stroke="#000000" points="111,-102 19,-102 19,-66 111,-66 111,-102"/>
<polygon fill="none" stroke="#000000" points="115,-106 15,-106 15,-62 115,-62 115,-106"/>
<text text-anchor="middle" x="65" y="-81.2" font-family="Consolas" font-size="11.00" fill="#000000">(per e6 x1):1</text>
</g>
<!-- node_2 -->
<g id="node3" class="node"><title>node_2</title>
<polygon fill="none" stroke="#000000" points="119,-164 11,-164 11,-128 119,-128 119,-164"/>
<polygon fill="none" stroke="#000000" points="123,-168 7,-168 7,-124 123,-124 123,-168"/>
<text text-anchor="middle" x="65" y="-143.2" font-family="Consolas" font-size="11.00" fill="#000000">(cat&#45;nn e4 x2):2</text>
</g>
<!-- node_3 -->
<g id="node4" class="node"><title>node_3</title>
<polygon fill="none" stroke="#000000" points="126,-226 4,-226 4,-190 126,-190 126,-226"/>
<polygon fill="none" stroke="#000000" points="130,-230 -1.42109e-14,-230 0,-186 130,-186 130,-230"/>
<text text-anchor="middle" x="65" y="-205.2" font-family="Consolas" font-size="11.00" fill="#000000">(equal e3 x1 x2):3</text>
</g>
</g>
</svg>
