<?xml version="1.0" encoding="UTF-8" standalone="no"?>
<!DOCTYPE svg PUBLIC "-//W3C//DTD SVG 1.1//EN"
 "http://www.w3.org/Graphics/SVG/1.1/DTD/svg11.dtd">
<!-- Generated by graphviz version 2.38.0 (20140413.2041)
 -->
<!-- Title: proofgraph Pages: 1 -->
<svg width="187pt" height="300pt"
 viewBox="0.00 0.00 187.00 300.00" xmlns="http://www.w3.org/2000/svg" xmlns:xlink="http://www.w3.org/1999/xlink">
<g id="graph0" class="graph" transform="scale(1 1) rotate(0) translate(4 296)">
<title>proofgraph</title>
<polygon fill="white" stroke="none" points="-4,4 -4,-296 183,-296 183,4 -4,4"/>
<!-- node_0 -->
<g id="node1" class="node"><title>node_0</title>
<polygon fill="none" stroke="#000000" points="147.5,-40 31.5,-40 31.5,-4 147.5,-4 147.5,-40"/>
<polygon fill="none" stroke="#000000" points="151.5,-44 27.5,-44 27.5,-0 151.5,-0 151.5,-44"/>
<text text-anchor="middle" x="89.5" y="-19.2" font-family="Consolas" font-size="11.00" fill="#000000">(laser&#45;nn e9 x1):0</text>
</g>
<!-- node_1 -->
<g id="node2" class="node"><title>node_1</title>
<polygon fill="none" stroke="#000000" points="162.5,-102 16.5,-102 16.5,-66 162.5,-66 162.5,-102"/>
<polygon fill="none" stroke="#000000" points="166.5,-106 12.5,-106 12.5,-62 166.5,-62 166.5,-106"/>
<text text-anchor="middle" x="89.5" y="-81.2" font-family="Consolas" font-size="11.00" fill="#000000">(use&#45;vb e1 u7 x1 u8):1</text>
</g>
<!-- node_2 -->
<g id="node3" class="node"><title>node_2</title>
<polygon fill="none" stroke="#000000" points="146,-164 33,-164 33,-128 146,-128 146,-164"/>
<polygon fill="none" stroke="#000000" points="150,-168 29,-168 29,-124 150,-124 150,-168"/>
<text text-anchor="middle" x="89.5" y="-143.2" font-family="Consolas" font-size="11.00" fill="#000000">(light&#45;nn e6 x3):2</text>
</g>
<!-- node_3 -->
<g id="node4" class="node"><title>node_3</title>
<polygon fill="none" stroke="#000000" points="175,-226 4,-226 4,-190 175,-190 175,-226"/>
<polygon fill="none" stroke="#000000" points="179,-230 0,-230 0,-186 179,-186 179,-230"/>
<text text-anchor="middle" x="89.5" y="-205.2" font-family="Consolas" font-size="11.00" fill="#000000">(produce&#45;vb e2 x2 x3 u5):3</text>
</g>
<!-- node_4 -->
<g id="node5" class="node"><title>node_4</title>
<polygon fill="none" stroke="#000000" points="148.5,-288 30.5,-288 30.5,-252 148.5,-252 148.5,-288"/>
<polygon fill="none" stroke="#000000" points="152.5,-292 26.5,-292 26.5,-248 152.5,-248 152.5,-292"/>
<text text-anchor="middle" x="89.5" y="-267.2" font-family="Consolas" font-size="11.00" fill="#000000">(for&#45;in e4 e1 e2):4</text>
</g>
</g>
</svg>
