<?xml version="1.0" encoding="UTF-8" standalone="no"?>
<!DOCTYPE svg PUBLIC "-//W3C//DTD SVG 1.1//EN"
 "http://www.w3.org/Graphics/SVG/1.1/DTD/svg11.dtd">
<!-- Generated by graphviz version 2.38.0 (20140413.2041)
 -->
<!-- Title: proofgraph Pages: 1 -->
<svg width="394pt" height="796pt"
 viewBox="0.00 0.00 394.00 796.00" xmlns="http://www.w3.org/2000/svg" xmlns:xlink="http://www.w3.org/1999/xlink">
<g id="graph0" class="graph" transform="scale(1 1) rotate(0) translate(4 792)">
<title>proofgraph</title>
<polygon fill="white" stroke="none" points="-4,4 -4,-792 390,-792 390,4 -4,4"/>
<!-- node_0 -->
<g id="node1" class="node"><title>node_0</title>
<polygon fill="none" stroke="#000000" points="159.5,-40 33.5,-40 33.5,-4 159.5,-4 159.5,-40"/>
<polygon fill="none" stroke="#000000" points="163.5,-44 29.5,-44 29.5,-0 163.5,-0 163.5,-44"/>
<text text-anchor="middle" x="96.5" y="-19.2" font-family="Consolas" font-size="11.00" fill="#000000">(imp e11 e12 e1):0</text>
</g>
<!-- node_1 -->
<g id="node2" class="node"><title>node_1</title>
<polygon fill="none" stroke="#000000" points="160,-102 33,-102 33,-66 160,-66 160,-102"/>
<polygon fill="none" stroke="#000000" points="164,-106 29,-106 29,-62 164,-62 164,-106"/>
<text text-anchor="middle" x="96.5" y="-81.2" font-family="Consolas" font-size="11.00" fill="#000000">(for&#45;in e17 x4 x3):1</text>
</g>
<!-- node_2 -->
<g id="node3" class="node"><title>node_2</title>
<polygon fill="none" stroke="#000000" points="181,-164 12,-164 12,-128 181,-128 181,-164"/>
<polygon fill="none" stroke="#000000" points="185,-168 8,-168 8,-124 185,-124 185,-168"/>
<text text-anchor="middle" x="96.5" y="-143.2" font-family="Consolas" font-size="11.00" fill="#000000">(refuse&#45;vb e1 x1 x4 u16):2</text>
</g>
<!-- node_3 -->
<g id="node4" class="node"><title>node_3</title>
<polygon fill="none" stroke="#000000" points="175,-226 18,-226 18,-190 175,-190 175,-226"/>
<polygon fill="none" stroke="#000000" points="179,-230 14,-230 14,-186 179,-186 179,-230"/>
<text text-anchor="middle" x="96.5" y="-205.2" font-family="Consolas" font-size="11.00" fill="#000000">(because&#45;in e15 e1 e2):3</text>
</g>
<!-- node_4 -->
<g id="node5" class="node"><title>node_4</title>
<polygon fill="none" stroke="#000000" points="167.5,-288 25.5,-288 25.5,-252 167.5,-252 167.5,-288"/>
<polygon fill="none" stroke="#000000" points="171.5,-292 21.5,-292 21.5,-248 171.5,-248 171.5,-292"/>
<text text-anchor="middle" x="96.5" y="-267.2" font-family="Consolas" font-size="11.00" fill="#000000">(violence&#45;nn e14 x5):4</text>
</g>
<!-- node_5 -->
<g id="node6" class="node"><title>node_5</title>
<polygon fill="none" stroke="#000000" points="189,-350 4,-350 4,-314 189,-314 189,-350"/>
<polygon fill="none" stroke="#000000" points="193,-354 0,-354 0,-310 193,-310 193,-354"/>
<text text-anchor="middle" x="96.5" y="-329.2" font-family="Consolas" font-size="11.00" fill="#000000">(advocate&#45;vb e2 x4 x5 u13):5</text>
</g>
<!-- node_6 -->
<g id="node7" class="node"><title>node_6</title>
<polygon fill="none" stroke="#000000" points="163.5,-412 29.5,-412 29.5,-376 163.5,-376 163.5,-412"/>
<polygon fill="none" stroke="#000000" points="167.5,-416 25.5,-416 25.5,-372 167.5,-372 167.5,-416"/>
<text text-anchor="middle" x="96.5" y="-391.2" font-family="Consolas" font-size="11.00" fill="#000000">(permit&#45;nn e12 x3):6</text>
</g>
<!-- node_7 -->
<g id="node8" class="node"><title>node_7</title>
<polygon fill="none" stroke="#000000" points="155,-474 38,-474 38,-438 155,-438 155,-474"/>
<polygon fill="none" stroke="#000000" points="159,-478 34,-478 34,-434 159,-434 159,-478"/>
<text text-anchor="middle" x="96.5" y="-453.2" font-family="Consolas" font-size="11.00" fill="#000000">(city&#45;nn e10 x2):7</text>
</g>
<!-- node_8 -->
<g id="node9" class="node"><title>node_8</title>
<polygon fill="none" stroke="#000000" points="154,-536 39,-536 39,-500 154,-500 154,-536"/>
<polygon fill="none" stroke="#000000" points="158,-540 35,-540 35,-496 158,-496 158,-540"/>
<text text-anchor="middle" x="96.5" y="-515.2" font-family="Consolas" font-size="11.00" fill="#000000">(of&#45;in e9 x1 x2):8</text>
</g>
<!-- node_9 -->
<g id="node10" class="node"><title>node_9</title>
<polygon fill="none" stroke="#000000" points="172.5,-598 20.5,-598 20.5,-562 172.5,-562 172.5,-598"/>
<polygon fill="none" stroke="#000000" points="176.5,-602 16.5,-602 16.5,-558 176.5,-558 176.5,-602"/>
<text text-anchor="middle" x="96.5" y="-577.2" font-family="Consolas" font-size="11.00" fill="#000000">(councilman&#45;nn e8 x1):9</text>
</g>
<!-- node_10 -->
<g id="node11" class="node"><title>node_10</title>
<polygon fill="none" stroke="#000000" points="154.5,-660 38.5,-660 38.5,-624 154.5,-624 154.5,-660"/>
<polygon fill="none" stroke="#000000" points="158.5,-664 34.5,-664 34.5,-620 158.5,-620 158.5,-664"/>
<text text-anchor="middle" x="96.5" y="-639.2" font-family="Consolas" font-size="11.00" fill="#000000">(card e7 x1 2):10</text>
</g>
<!-- node_12 -->
<g id="node13" class="node"><title>node_12</title>
<polygon fill="none" stroke="#000000" points="382,-660 266,-660 266,-624 382,-624 382,-660"/>
<polygon fill="none" stroke="#000000" points="386,-664 262,-664 262,-620 386,-620 386,-664"/>
<text text-anchor="middle" x="324" y="-639.2" font-family="Consolas" font-size="11.00" fill="#000000">(card e5 x4 2):12</text>
</g>
<!-- node_10&#45;&gt;node_12 -->
<g id="edge1" class="edge"><title>node_10&#45;&gt;node_12</title>
<path fill="none" stroke="#000000" stroke-dasharray="1,5" d="M158.524,-642C190.611,-642 229.833,-642 261.928,-642"/>
<text text-anchor="middle" x="227.5" y="-656" font-family="Consolas" font-size="10.00" fill="#000000">x4=x1</text>
<text text-anchor="middle" x="227.5" y="-645" font-family="Consolas" font-size="10.00" fill="#000000">e7=e5</text>
</g>
<!-- node_11 -->
<g id="node12" class="node"><title>node_11</title>
<polygon fill="none" stroke="#000000" points="183,-722 10,-722 10,-686 183,-686 183,-722"/>
<polygon fill="none" stroke="#000000" points="187,-726 6,-726 6,-682 187,-682 187,-726"/>
<text text-anchor="middle" x="96.5" y="-701.2" font-family="Consolas" font-size="11.00" fill="#000000">(demonstrator&#45;nn e6 x4):11</text>
</g>
<!-- node_15 -->
<g id="node14" class="node"><title>node_15</title>
<polygon fill="none" stroke="#000000" points="150.5,-784 42.5,-784 42.5,-748 150.5,-748 150.5,-784"/>
<polygon fill="none" stroke="#000000" points="154.5,-788 38.5,-788 38.5,-744 154.5,-744 154.5,-788"/>
<text text-anchor="middle" x="96.5" y="-763.2" font-family="Consolas" font-size="11.00" fill="#000000">(thing e4 x4):15</text>
</g>
</g>
</svg>
