<?xml version="1.0" encoding="UTF-8" standalone="no"?>
<!DOCTYPE svg PUBLIC "-//W3C//DTD SVG 1.1//EN"
 "http://www.w3.org/Graphics/SVG/1.1/DTD/svg11.dtd">
<!-- Generated by graphviz version 2.38.0 (20140413.2041)
 -->
<!-- Title: proofgraph Pages: 1 -->
<svg width="176pt" height="238pt"
 viewBox="0.00 0.00 176.00 238.00" xmlns="http://www.w3.org/2000/svg" xmlns:xlink="http://www.w3.org/1999/xlink">
<g id="graph0" class="graph" transform="scale(1 1) rotate(0) translate(4 234)">
<title>proofgraph</title>
<polygon fill="white" stroke="none" points="-4,4 -4,-234 172,-234 172,4 -4,4"/>
<!-- node_0 -->
<g id="node1" class="node"><title>node_0</title>
<polygon fill="none" stroke="#000000" points="140.5,-40 27.5,-40 27.5,-4 140.5,-4 140.5,-40"/>
<polygon fill="none" stroke="#000000" points="144.5,-44 23.5,-44 23.5,-0 144.5,-0 144.5,-44"/>
<text text-anchor="middle" x="84" y="-19.2" font-family="Consolas" font-size="11.00" fill="#000000">(john&#45;nn e5 x1):0</text>
</g>
<!-- node_1 -->
<g id="node2" class="node"><title>node_1</title>
<polygon fill="none" stroke="#000000" points="130,-102 38,-102 38,-66 130,-66 130,-102"/>
<polygon fill="none" stroke="#000000" points="134,-106 34,-106 34,-62 134,-62 134,-106"/>
<text text-anchor="middle" x="84" y="-81.2" font-family="Consolas" font-size="11.00" fill="#000000">(per e6 x1):1</text>
</g>
<!-- node_2 -->
<g id="node3" class="node"><title>node_2</title>
<polygon fill="none" stroke="#000000" points="147,-164 21,-164 21,-128 147,-128 147,-164"/>
<polygon fill="none" stroke="#000000" points="151,-168 17,-168 17,-124 151,-124 151,-168"/>
<text text-anchor="middle" x="84" y="-143.2" font-family="Consolas" font-size="11.00" fill="#000000">(poison&#45;nn e4 x2):2</text>
</g>
<!-- node_3 -->
<g id="node4" class="node"><title>node_3</title>
<polygon fill="none" stroke="#000000" points="164,-226 4,-226 4,-190 164,-190 164,-226"/>
<polygon fill="none" stroke="#000000" points="168,-230 0,-230 0,-186 168,-186 168,-230"/>
<text text-anchor="middle" x="84" y="-205.2" font-family="Consolas" font-size="11.00" fill="#000000">(ingest&#45;vb e1 x1 x2 u3):3</text>
</g>
</g>
</svg>
