<?xml version="1.0" encoding="UTF-8" standalone="no"?>
<!DOCTYPE svg PUBLIC "-//W3C//DTD SVG 1.1//EN"
 "http://www.w3.org/Graphics/SVG/1.1/DTD/svg11.dtd">
<!-- Generated by graphviz version 2.38.0 (20140413.2041)
 -->
<!-- Title: proofgraph Pages: 1 -->
<svg width="169pt" height="362pt"
 viewBox="0.00 0.00 169.00 362.00" xmlns="http://www.w3.org/2000/svg" xmlns:xlink="http://www.w3.org/1999/xlink">
<g id="graph0" class="graph" transform="scale(1 1) rotate(0) translate(4 358)">
<title>proofgraph</title>
<polygon fill="white" stroke="none" points="-4,4 -4,-358 165,-358 165,4 -4,4"/>
<!-- node_0 -->
<g id="node1" class="node"><title>node_0</title>
<polygon fill="none" stroke="#000000" points="131,-40 30,-40 30,-4 131,-4 131,-40"/>
<polygon fill="none" stroke="#000000" points="135,-44 26,-44 26,-0 135,-0 135,-44"/>
<text text-anchor="middle" x="80.5" y="-19.2" font-family="Consolas" font-size="11.00" fill="#000000">(thing e9 x1):0</text>
</g>
<!-- node_1 -->
<g id="node2" class="node"><title>node_1</title>
<polygon fill="none" stroke="#000000" points="150.5,-102 10.5,-102 10.5,-66 150.5,-66 150.5,-102"/>
<polygon fill="none" stroke="#000000" points="154.5,-106 6.5,-106 6.5,-62 154.5,-62 154.5,-106"/>
<text text-anchor="middle" x="80.5" y="-81.2" font-family="Consolas" font-size="11.00" fill="#000000">(do&#45;vb e1 x1 u8 e2):1</text>
</g>
<!-- node_2 -->
<g id="node3" class="node"><title>node_2</title>
<polygon fill="none" stroke="#000000" points="141,-164 20,-164 20,-128 141,-128 141,-164"/>
<polygon fill="none" stroke="#000000" points="145,-168 16,-168 16,-124 145,-124 145,-168"/>
<text text-anchor="middle" x="80.5" y="-143.2" font-family="Consolas" font-size="11.00" fill="#000000">(percy&#45;nn e6 x2):2</text>
</g>
<!-- node_3 -->
<g id="node4" class="node"><title>node_3</title>
<polygon fill="none" stroke="#000000" points="126.5,-226 34.5,-226 34.5,-190 126.5,-190 126.5,-226"/>
<polygon fill="none" stroke="#000000" points="130.5,-230 30.5,-230 30.5,-186 130.5,-186 130.5,-230"/>
<text text-anchor="middle" x="80.5" y="-205.2" font-family="Consolas" font-size="11.00" fill="#000000">(per e7 x2):3</text>
</g>
<!-- node_4 -->
<g id="node5" class="node"><title>node_4</title>
<polygon fill="none" stroke="#000000" points="139.5,-288 21.5,-288 21.5,-252 139.5,-252 139.5,-288"/>
<polygon fill="none" stroke="#000000" points="143.5,-292 17.5,-292 17.5,-248 143.5,-248 143.5,-292"/>
<text text-anchor="middle" x="80.5" y="-267.2" font-family="Consolas" font-size="11.00" fill="#000000">(head&#45;nn e5 x3):4</text>
</g>
<!-- node_5 -->
<g id="node6" class="node"><title>node_5</title>
<polygon fill="none" stroke="#000000" points="157,-350 4,-350 4,-314 157,-314 157,-350"/>
<polygon fill="none" stroke="#000000" points="161,-354 0,-354 0,-310 161,-310 161,-354"/>
<text text-anchor="middle" x="80.5" y="-329.2" font-family="Consolas" font-size="11.00" fill="#000000">(have&#45;vb e2 x2 x3 u4):5</text>
</g>
</g>
</svg>
