<?xml version="1.0" encoding="UTF-8" standalone="no"?>
<!DOCTYPE svg PUBLIC "-//W3C//DTD SVG 1.1//EN"
 "http://www.w3.org/Graphics/SVG/1.1/DTD/svg11.dtd">
<!-- Generated by graphviz version 2.38.0 (20140413.2041)
 -->
<!-- Title: proofgraph Pages: 1 -->
<svg width="163pt" height="734pt"
 viewBox="0.00 0.00 163.00 734.00" xmlns="http://www.w3.org/2000/svg" xmlns:xlink="http://www.w3.org/1999/xlink">
<g id="graph0" class="graph" transform="scale(1 1) rotate(0) translate(4 730)">
<title>proofgraph</title>
<polygon fill="white" stroke="none" points="-4,4 -4,-730 159,-730 159,4 -4,4"/>
<!-- node_0 -->
<g id="node1" class="node"><title>node_0</title>
<polygon fill="none" stroke="#000000" points="138.5,-40 16.5,-40 16.5,-4 138.5,-4 138.5,-40"/>
<polygon fill="none" stroke="#000000" points="142.5,-44 12.5,-44 12.5,-0 142.5,-0 142.5,-44"/>
<text text-anchor="middle" x="77.5" y="-19.2" font-family="Consolas" font-size="11.00" fill="#000000">(whq e7 e8 e11):0</text>
</g>
<!-- node_1 -->
<g id="node2" class="node"><title>node_1</title>
<polygon fill="none" stroke="#000000" points="142.5,-102 12.5,-102 12.5,-66 142.5,-66 142.5,-102"/>
<polygon fill="none" stroke="#000000" points="146.5,-106 8.5,-106 8.5,-62 146.5,-62 146.5,-106"/>
<text text-anchor="middle" x="77.5" y="-81.2" font-family="Consolas" font-size="11.00" fill="#000000">(texas&#45;nn e11 x3):1</text>
</g>
<!-- node_2 -->
<g id="node3" class="node"><title>node_2</title>
<polygon fill="none" stroke="#000000" points="125.5,-164 29.5,-164 29.5,-128 125.5,-128 125.5,-164"/>
<polygon fill="none" stroke="#000000" points="129.5,-168 25.5,-168 25.5,-124 129.5,-124 129.5,-168"/>
<text text-anchor="middle" x="77.5" y="-143.2" font-family="Consolas" font-size="11.00" fill="#000000">(loc e12 x3):2</text>
</g>
<!-- node_3 -->
<g id="node4" class="node"><title>node_3</title>
<polygon fill="none" stroke="#000000" points="138.5,-226 16.5,-226 16.5,-190 138.5,-190 138.5,-226"/>
<polygon fill="none" stroke="#000000" points="142.5,-230 12.5,-230 12.5,-186 142.5,-186 142.5,-230"/>
<text text-anchor="middle" x="77.5" y="-205.2" font-family="Consolas" font-size="11.00" fill="#000000">(of&#45;in e10 x2 x3):3</text>
</g>
<!-- node_4 -->
<g id="node5" class="node"><title>node_4</title>
<polygon fill="none" stroke="#000000" points="138.5,-288 16.5,-288 16.5,-252 138.5,-252 138.5,-288"/>
<polygon fill="none" stroke="#000000" points="142.5,-292 12.5,-292 12.5,-248 142.5,-248 142.5,-292"/>
<text text-anchor="middle" x="77.5" y="-267.2" font-family="Consolas" font-size="11.00" fill="#000000">(equal e9 x1 x2):4</text>
</g>
<!-- node_5 -->
<g id="node6" class="node"><title>node_5</title>
<polygon fill="none" stroke="#000000" points="128,-350 27,-350 27,-314 128,-314 128,-350"/>
<polygon fill="none" stroke="#000000" points="132,-354 23,-354 23,-310 132,-310 132,-354"/>
<text text-anchor="middle" x="77.5" y="-329.2" font-family="Consolas" font-size="11.00" fill="#000000">(thing e8 x1):5</text>
</g>
<!-- node_6 -->
<g id="node7" class="node"><title>node_6</title>
<polygon fill="none" stroke="#000000" points="136,-412 19,-412 19,-376 136,-376 136,-412"/>
<polygon fill="none" stroke="#000000" points="140,-416 15,-416 15,-372 140,-372 140,-416"/>
<text text-anchor="middle" x="77.5" y="-391.2" font-family="Consolas" font-size="11.00" fill="#000000">(total&#45;adj s1 x2):6</text>
</g>
<!-- node_7 -->
<g id="node8" class="node"><title>node_7</title>
<polygon fill="none" stroke="#000000" points="151,-474 4,-474 4,-438 151,-438 151,-474"/>
<polygon fill="none" stroke="#000000" points="155,-478 0,-478 0,-434 155,-434 155,-478"/>
<text text-anchor="middle" x="77.5" y="-453.2" font-family="Consolas" font-size="11.00" fill="#000000">(population&#45;nn e6 x2):7</text>
</g>
<!-- node_8 -->
<g id="node9" class="node"><title>node_8</title>
<polygon fill="none" stroke="#000000" points="137,-536 18,-536 18,-500 137,-500 137,-536"/>
<polygon fill="none" stroke="#000000" points="141,-540 14,-540 14,-496 141,-496 141,-540"/>
<text text-anchor="middle" x="77.5" y="-515.2" font-family="Consolas" font-size="11.00" fill="#000000">(state&#45;nn e5 x4):8</text>
</g>
<!-- node_9 -->
<g id="node10" class="node"><title>node_9</title>
<polygon fill="none" stroke="#000000" points="135,-598 20,-598 20,-562 135,-562 135,-598"/>
<polygon fill="none" stroke="#000000" points="139,-602 16,-602 16,-558 139,-558 139,-602"/>
<text text-anchor="middle" x="77.5" y="-577.2" font-family="Consolas" font-size="11.00" fill="#000000">(of&#45;in e4 x3 x4):9</text>
</g>
<!-- node_14 -->
<g id="node11" class="node"><title>node_14</title>
<polygon fill="none" stroke="#000000" points="135.5,-660 19.5,-660 19.5,-624 135.5,-624 135.5,-660"/>
<polygon fill="none" stroke="#000000" points="139.5,-664 15.5,-664 15.5,-620 139.5,-620 139.5,-664"/>
<text text-anchor="middle" x="77.5" y="-639.2" font-family="Consolas" font-size="11.00" fill="#000000">(that&#45;in s2 x3):14</text>
</g>
<!-- node_15 -->
<g id="node12" class="node"><title>node_15</title>
<polygon fill="none" stroke="#000000" points="144.5,-722 10.5,-722 10.5,-686 144.5,-686 144.5,-722"/>
<polygon fill="none" stroke="#000000" points="148.5,-726 6.5,-726 6.5,-682 148.5,-682 148.5,-726"/>
<text text-anchor="middle" x="77.5" y="-701.2" font-family="Consolas" font-size="11.00" fill="#000000">(border&#45;nn e3 x3):15</text>
</g>
</g>
</svg>
