<?xml version="1.0" encoding="UTF-8" standalone="no"?>
<!DOCTYPE svg PUBLIC "-//W3C//DTD SVG 1.1//EN"
 "http://www.w3.org/Graphics/SVG/1.1/DTD/svg11.dtd">
<!-- Generated by graphviz version 2.38.0 (20140413.2041)
 -->
<!-- Title: proofgraph Pages: 1 -->
<svg width="168pt" height="610pt"
 viewBox="0.00 0.00 168.00 610.00" xmlns="http://www.w3.org/2000/svg" xmlns:xlink="http://www.w3.org/1999/xlink">
<g id="graph0" class="graph" transform="scale(1 1) rotate(0) translate(4 606)">
<title>proofgraph</title>
<polygon fill="white" stroke="none" points="-4,4 -4,-606 164,-606 164,4 -4,4"/>
<!-- node_0 -->
<g id="node1" class="node"><title>node_0</title>
<polygon fill="none" stroke="#000000" points="125.5,-40 34.5,-40 34.5,-4 125.5,-4 125.5,-40"/>
<polygon fill="none" stroke="#000000" points="129.5,-44 30.5,-44 30.5,-0 129.5,-0 129.5,-44"/>
<text text-anchor="middle" x="80" y="-19.2" font-family="Consolas" font-size="11.00" fill="#000000">(not e7 e1):0</text>
</g>
<!-- node_1 -->
<g id="node2" class="node"><title>node_1</title>
<polygon fill="none" stroke="#000000" points="156,-102 4,-102 4,-66 156,-66 156,-102"/>
<polygon fill="none" stroke="#000000" points="160,-106 0,-106 0,-62 160,-62 160,-106"/>
<text text-anchor="middle" x="80" y="-81.2" font-family="Consolas" font-size="11.00" fill="#000000">(fit&#45;vb e1 x1 u11 u12):1</text>
</g>
<!-- node_2 -->
<g id="node3" class="node"><title>node_2</title>
<polygon fill="none" stroke="#000000" points="146,-164 14,-164 14,-128 146,-128 146,-164"/>
<polygon fill="none" stroke="#000000" points="150,-168 10,-168 10,-124 150,-124 150,-168"/>
<text text-anchor="middle" x="80" y="-143.2" font-family="Consolas" font-size="11.00" fill="#000000">(into&#45;in e10 e1 x2):2</text>
</g>
<!-- node_3 -->
<g id="node4" class="node"><title>node_3</title>
<polygon fill="none" stroke="#000000" points="154.5,-226 5.5,-226 5.5,-190 154.5,-190 154.5,-226"/>
<polygon fill="none" stroke="#000000" points="158.5,-230 1.5,-230 1.5,-186 158.5,-186 158.5,-230"/>
<text text-anchor="middle" x="80" y="-205.2" font-family="Consolas" font-size="11.00" fill="#000000">(because&#45;in e9 e1 e2):3</text>
</g>
<!-- node_4 -->
<g id="node5" class="node"><title>node_4</title>
<polygon fill="none" stroke="#000000" points="141,-288 19,-288 19,-252 141,-252 141,-288"/>
<polygon fill="none" stroke="#000000" points="145,-292 15,-292 15,-248 145,-248 145,-292"/>
<text text-anchor="middle" x="80" y="-267.2" font-family="Consolas" font-size="11.00" fill="#000000">(small&#45;adj e2 x2):4</text>
</g>
<!-- node_5 -->
<g id="node6" class="node"><title>node_5</title>
<polygon fill="none" stroke="#000000" points="135,-350 25,-350 25,-314 135,-314 135,-350"/>
<polygon fill="none" stroke="#000000" points="139,-354 21,-354 21,-310 139,-310 139,-354"/>
<text text-anchor="middle" x="80" y="-329.2" font-family="Consolas" font-size="11.00" fill="#000000">(too&#45;adj e8 e2):5</text>
</g>
<!-- node_6 -->
<g id="node7" class="node"><title>node_6</title>
<polygon fill="none" stroke="#000000" points="143,-412 17,-412 17,-376 143,-376 143,-412"/>
<polygon fill="none" stroke="#000000" points="147,-416 13,-416 13,-372 147,-372 147,-416"/>
<text text-anchor="middle" x="80" y="-391.2" font-family="Consolas" font-size="11.00" fill="#000000">(trophy&#45;nn e6 x1):6</text>
</g>
<!-- node_7 -->
<g id="node8" class="node"><title>node_7</title>
<polygon fill="none" stroke="#000000" points="143.5,-474 16.5,-474 16.5,-438 143.5,-438 143.5,-474"/>
<polygon fill="none" stroke="#000000" points="147.5,-478 12.5,-478 12.5,-434 147.5,-434 147.5,-478"/>
<text text-anchor="middle" x="80" y="-453.2" font-family="Consolas" font-size="11.00" fill="#000000">(brown&#45;adj s1 x2):7</text>
</g>
<!-- node_8 -->
<g id="node9" class="node"><title>node_8</title>
<polygon fill="none" stroke="#000000" points="148,-536 12,-536 12,-500 148,-500 148,-536"/>
<polygon fill="none" stroke="#000000" points="152,-540 8,-540 8,-496 152,-496 152,-540"/>
<text text-anchor="middle" x="80" y="-515.2" font-family="Consolas" font-size="11.00" fill="#000000">(suitcase&#45;nn e5 x2):8</text>
</g>
<!-- node_9 -->
<g id="node10" class="node"><title>node_9</title>
<polygon fill="none" stroke="#000000" points="130.5,-598 29.5,-598 29.5,-562 130.5,-562 130.5,-598"/>
<polygon fill="none" stroke="#000000" points="134.5,-602 25.5,-602 25.5,-558 134.5,-558 134.5,-602"/>
<text text-anchor="middle" x="80" y="-577.2" font-family="Consolas" font-size="11.00" fill="#000000">(thing e4 x2):9</text>
</g>
</g>
</svg>
