<?xml version="1.0" encoding="UTF-8" standalone="no"?>
<!DOCTYPE svg PUBLIC "-//W3C//DTD SVG 1.1//EN"
 "http://www.w3.org/Graphics/SVG/1.1/DTD/svg11.dtd">
<!-- Generated by graphviz version 2.38.0 (20140413.2041)
 -->
<!-- Title: proofgraph Pages: 1 -->
<svg width="614pt" height="300pt"
 viewBox="0.00 0.00 614.00 300.00" xmlns="http://www.w3.org/2000/svg" xmlns:xlink="http://www.w3.org/1999/xlink">
<g id="graph0" class="graph" transform="scale(1 1) rotate(0) translate(4 296)">
<title>proofgraph</title>
<polygon fill="white" stroke="none" points="-4,4 -4,-296 610,-296 610,4 -4,4"/>
<!-- node_0 -->
<g id="node1" class="node"><title>node_0</title>
<polygon fill="none" stroke="#000000" points="130.5,-40 21.5,-40 21.5,-4 130.5,-4 130.5,-40"/>
<polygon fill="none" stroke="#000000" points="134.5,-44 17.5,-44 17.5,-0 134.5,-0 134.5,-44"/>
<text text-anchor="middle" x="76" y="-19.2" font-family="Consolas" font-size="11.00" fill="#000000">(are&#45;nn e6 x1):0</text>
</g>
<!-- node_1 -->
<g id="node2" class="node"><title>node_1</title>
<polygon fill="none" stroke="#000000" points="125,-102 27,-102 27,-66 125,-66 125,-102"/>
<polygon fill="none" stroke="#000000" points="129,-106 23,-106 23,-62 129,-62 129,-106"/>
<text text-anchor="middle" x="76" y="-81.2" font-family="Consolas" font-size="11.00" fill="#000000">(nam e7 x1):1</text>
</g>
<!-- node_2 -->
<g id="node3" class="node"><title>node_2</title>
<polygon fill="none" stroke="#000000" points="139.5,-164 12.5,-164 12.5,-128 139.5,-128 139.5,-164"/>
<polygon fill="none" stroke="#000000" points="143.5,-168 8.5,-168 8.5,-124 143.5,-124 143.5,-168"/>
<text text-anchor="middle" x="76" y="-143.2" font-family="Consolas" font-size="11.00" fill="#000000">(animal&#45;nn e5 x2):2</text>
</g>
<!-- node_7 -->
<g id="node6" class="node"><title>node_7</title>
<polygon fill="none" stroke="#000000" points="371,-164 254,-164 254,-128 371,-128 371,-164"/>
<text text-anchor="middle" x="312.5" y="-143.2" font-family="Consolas" font-size="11.00" fill="#000000">(dog&#45;nn _u2 x2):7</text>
</g>
<!-- node_2&#45;&gt;node_7 -->
<g id="edge1" class="edge"><title>node_2&#45;&gt;node_7</title>
<path fill="none" stroke="#000000" d="M153.962,-146C186.524,-146 223.805,-146 253.924,-146"/>
<polygon fill="#000000" stroke="#000000" points="153.571,-142.5 143.571,-146 153.571,-149.5 153.571,-142.5"/>
<text text-anchor="middle" x="203" y="-149" font-family="Consolas" font-size="10.00" fill="#000000">dog&#45;is&#45;animal</text>
</g>
<!-- node_3 -->
<g id="node4" class="node"><title>node_3</title>
<polygon fill="none" stroke="#000000" points="130.5,-226 21.5,-226 21.5,-190 130.5,-190 130.5,-226"/>
<polygon fill="none" stroke="#000000" points="134.5,-230 17.5,-230 17.5,-186 134.5,-186 134.5,-230"/>
<text text-anchor="middle" x="76" y="-205.2" font-family="Consolas" font-size="11.00" fill="#000000">(card e4 x2 2):3</text>
</g>
<!-- node_4 -->
<g id="node5" class="node"><title>node_4</title>
<polygon fill="none" stroke="#000000" points="148,-288 4,-288 4,-252 148,-252 148,-288"/>
<polygon fill="none" stroke="#000000" points="152,-292 0,-292 0,-248 152,-248 152,-292"/>
<text text-anchor="middle" x="76" y="-267.2" font-family="Consolas" font-size="11.00" fill="#000000">(cat&#45;vb e1 x1 x2 u3):4</text>
</g>
<!-- node_8 -->
<g id="node7" class="node"><title>node_8</title>
<polygon fill="none" stroke="#000000" points="606,-164 473,-164 473,-128 606,-128 606,-164"/>
<text text-anchor="middle" x="539.5" y="-143.2" font-family="Consolas" font-size="11.00" fill="#000000">(poodle&#45;nn _u2 x2):8</text>
</g>
<!-- node_7&#45;&gt;node_8 -->
<g id="edge2" class="edge"><title>node_7&#45;&gt;node_8</title>
<path fill="none" stroke="#000000" d="M381.185,-146C410.158,-146 443.871,-146 472.64,-146"/>
<polygon fill="#000000" stroke="#000000" points="381.151,-142.5 371.151,-146 381.151,-149.5 381.151,-142.5"/>
<text text-anchor="middle" x="422" y="-149" font-family="Consolas" font-size="10.00" fill="#000000">poodle&#45;is&#45;dog</text>
</g>
</g>
</svg>
