<?xml version="1.0" encoding="UTF-8" standalone="no"?>
<!DOCTYPE svg PUBLIC "-//W3C//DTD SVG 1.1//EN"
 "http://www.w3.org/Graphics/SVG/1.1/DTD/svg11.dtd">
<!-- Generated by graphviz version 2.38.0 (20140413.2041)
 -->
<!-- Title: proofgraph Pages: 1 -->
<svg width="384pt" height="920pt"
 viewBox="0.00 0.00 384.00 920.00" xmlns="http://www.w3.org/2000/svg" xmlns:xlink="http://www.w3.org/1999/xlink">
<g id="graph0" class="graph" transform="scale(1 1) rotate(0) translate(4 916)">
<title>proofgraph</title>
<polygon fill="white" stroke="none" points="-4,4 -4,-916 380,-916 380,4 -4,4"/>
<!-- node_0 -->
<g id="node1" class="node"><title>node_0</title>
<polygon fill="none" stroke="#000000" points="136,-40 22,-40 22,-4 136,-4 136,-40"/>
<polygon fill="none" stroke="#000000" points="140,-44 18,-44 18,-3.55271e-15 140,-3.55271e-15 140,-44"/>
<text text-anchor="middle" x="79" y="-19.2" font-family="Consolas" font-size="11.00" fill="#000000">(whq e3 e4 e1):0</text>
</g>
<!-- node_1 -->
<g id="node2" class="node"><title>node_1</title>
<polygon fill="none" stroke="#000000" points="154,-102 4,-102 4,-66 154,-66 154,-102"/>
<polygon fill="none" stroke="#000000" points="158,-106 1.42109e-14,-106 1.42109e-14,-62 158,-62 158,-106"/>
<text text-anchor="middle" x="79" y="-81.2" font-family="Consolas" font-size="11.00" fill="#000000">(character&#45;nn e18 x2):1</text>
</g>
<!-- node_2 -->
<g id="node3" class="node"><title>node_2</title>
<polygon fill="none" stroke="#000000" points="146,-164 12,-164 12,-128 146,-128 146,-164"/>
<polygon fill="none" stroke="#000000" points="150,-168 8,-168 8,-124 150,-124 150,-168"/>
<text text-anchor="middle" x="79" y="-143.2" font-family="Consolas" font-size="11.00" fill="#000000">(natalie&#45;nn e16 x4):2</text>
</g>
<!-- node_3 -->
<g id="node4" class="node"><title>node_3</title>
<polygon fill="none" stroke="#000000" points="128.5,-226 29.5,-226 29.5,-190 128.5,-190 128.5,-226"/>
<polygon fill="none" stroke="#000000" points="132.5,-230 25.5,-230 25.5,-186 132.5,-186 132.5,-230"/>
<text text-anchor="middle" x="79" y="-205.2" font-family="Consolas" font-size="11.00" fill="#000000">(per e17 x4):3</text>
</g>
<!-- node_6 -->
<g id="node7" class="node"><title>node_6</title>
<polygon fill="none" stroke="#000000" points="357,-226 258,-226 258,-190 357,-190 357,-226"/>
<polygon fill="none" stroke="#000000" points="361,-230 254,-230 254,-186 361,-186 361,-230"/>
<text text-anchor="middle" x="307.5" y="-205.2" font-family="Consolas" font-size="11.00" fill="#000000">(per e14 x5):6</text>
</g>
<!-- node_3&#45;&gt;node_6 -->
<g id="edge1" class="edge"><title>node_3&#45;&gt;node_6</title>
<path fill="none" stroke="#000000" stroke-dasharray="1,5" d="M132.533,-208C168.994,-208 217.376,-208 253.86,-208"/>
<text text-anchor="middle" x="198.5" y="-222" font-family="Consolas" font-size="10.00" fill="#000000">x4=x5</text>
<text text-anchor="middle" x="198.5" y="-211" font-family="Consolas" font-size="10.00" fill="#000000">e17=e14</text>
</g>
<!-- node_4 -->
<g id="node5" class="node"><title>node_4</title>
<polygon fill="none" stroke="#000000" points="143.5,-288 14.5,-288 14.5,-252 143.5,-252 143.5,-288"/>
<polygon fill="none" stroke="#000000" points="147.5,-292 10.5,-292 10.5,-248 147.5,-248 147.5,-292"/>
<text text-anchor="middle" x="79" y="-267.2" font-family="Consolas" font-size="11.00" fill="#000000">(equal e15 x3 x4):4</text>
</g>
<!-- node_9 -->
<g id="node8" class="node"><title>node_9</title>
<polygon fill="none" stroke="#000000" points="372,-288 243,-288 243,-252 372,-252 372,-288"/>
<polygon fill="none" stroke="#000000" points="376,-292 239,-292 239,-248 376,-248 376,-292"/>
<text text-anchor="middle" x="307.5" y="-267.2" font-family="Consolas" font-size="11.00" fill="#000000">(equal e12 x3 x5):9</text>
</g>
<!-- node_4&#45;&gt;node_9 -->
<g id="edge2" class="edge"><title>node_4&#45;&gt;node_9</title>
<path fill="none" stroke="#000000" stroke-dasharray="1,5" d="M147.651,-270C176.459,-270 209.994,-270 238.807,-270"/>
<text text-anchor="middle" x="198.5" y="-284" font-family="Consolas" font-size="10.00" fill="#000000">x4=x5</text>
<text text-anchor="middle" x="198.5" y="-273" font-family="Consolas" font-size="10.00" fill="#000000">e15=e12</text>
</g>
<!-- node_5 -->
<g id="node6" class="node"><title>node_5</title>
<polygon fill="none" stroke="#000000" points="152,-350 6,-350 6,-314 152,-314 152,-350"/>
<polygon fill="none" stroke="#000000" points="156,-354 2,-354 2,-310 156,-310 156,-354"/>
<text text-anchor="middle" x="79" y="-329.2" font-family="Consolas" font-size="11.00" fill="#000000">(portman&#45;nn e13 x5):5</text>
</g>
<!-- node_11 -->
<g id="node9" class="node"><title>node_11</title>
<polygon fill="none" stroke="#000000" points="143,-412 15,-412 15,-376 143,-376 143,-412"/>
<polygon fill="none" stroke="#000000" points="147,-416 11,-416 11,-372 147,-372 147,-416"/>
<text text-anchor="middle" x="79" y="-391.2" font-family="Consolas" font-size="11.00" fill="#000000">(play&#45;nn e11 x3):11</text>
</g>
<!-- node_12 -->
<g id="node10" class="node"><title>node_12</title>
<polygon fill="none" stroke="#000000" points="142.5,-474 15.5,-474 15.5,-438 142.5,-438 142.5,-474"/>
<polygon fill="none" stroke="#000000" points="146.5,-478 11.5,-478 11.5,-434 146.5,-434 146.5,-478"/>
<text text-anchor="middle" x="79" y="-453.2" font-family="Consolas" font-size="11.00" fill="#000000">(star&#45;nn e10 x7):12</text>
</g>
<!-- node_13 -->
<g id="node11" class="node"><title>node_13</title>
<polygon fill="none" stroke="#000000" points="140,-536 18,-536 18,-500 140,-500 140,-536"/>
<polygon fill="none" stroke="#000000" points="144,-540 14,-540 14,-496 144,-496 144,-540"/>
<text text-anchor="middle" x="79" y="-515.2" font-family="Consolas" font-size="11.00" fill="#000000">(of&#45;in e9 x6 x7):13</text>
</g>
<!-- node_14 -->
<g id="node12" class="node"><title>node_14</title>
<polygon fill="none" stroke="#000000" points="138.5,-598 19.5,-598 19.5,-562 138.5,-562 138.5,-598"/>
<polygon fill="none" stroke="#000000" points="142.5,-602 15.5,-602 15.5,-558 142.5,-558 142.5,-602"/>
<text text-anchor="middle" x="79" y="-577.2" font-family="Consolas" font-size="11.00" fill="#000000">(war&#45;nn e8 x6):14</text>
</g>
<!-- node_15 -->
<g id="node13" class="node"><title>node_15</title>
<polygon fill="none" stroke="#000000" points="137,-660 21,-660 21,-624 137,-624 137,-660"/>
<polygon fill="none" stroke="#000000" points="141,-664 17,-664 17,-620 141,-620 141,-664"/>
<text text-anchor="middle" x="79" y="-639.2" font-family="Consolas" font-size="11.00" fill="#000000">(card e7 x6 2):15</text>
</g>
<!-- node_16 -->
<g id="node14" class="node"><title>node_16</title>
<polygon fill="none" stroke="#000000" points="140,-722 18,-722 18,-686 140,-686 140,-722"/>
<polygon fill="none" stroke="#000000" points="144,-726 14,-726 14,-682 144,-682 144,-726"/>
<text text-anchor="middle" x="79" y="-701.2" font-family="Consolas" font-size="11.00" fill="#000000">(in&#45;in e6 x3 x6):16</text>
</g>
<!-- node_17 -->
<g id="node15" class="node"><title>node_17</title>
<polygon fill="none" stroke="#000000" points="153.5,-784 4.5,-784 4.5,-748 153.5,-748 153.5,-784"/>
<polygon fill="none" stroke="#000000" points="157.5,-788 0.5,-788 0.5,-744 157.5,-744 157.5,-788"/>
<text text-anchor="middle" x="79" y="-763.2" font-family="Consolas" font-size="11.00" fill="#000000">(do&#45;vb e1 x2 x1 x3):17</text>
</g>
<!-- node_18 -->
<g id="node16" class="node"><title>node_18</title>
<polygon fill="none" stroke="#000000" points="132.5,-846 25.5,-846 25.5,-810 132.5,-810 132.5,-846"/>
<polygon fill="none" stroke="#000000" points="136.5,-850 21.5,-850 21.5,-806 136.5,-806 136.5,-850"/>
<text text-anchor="middle" x="79" y="-825.2" font-family="Consolas" font-size="11.00" fill="#000000">(topic x1 u5):18</text>
</g>
<!-- node_19 -->
<g id="node17" class="node"><title>node_19</title>
<polygon fill="none" stroke="#000000" points="133,-908 25,-908 25,-872 133,-872 133,-908"/>
<polygon fill="none" stroke="#000000" points="137,-912 21,-912 21,-868 137,-868 137,-912"/>
<text text-anchor="middle" x="79" y="-887.2" font-family="Consolas" font-size="11.00" fill="#000000">(thing e4 x1):19</text>
</g>
</g>
</svg>
