<?xml version="1.0" encoding="UTF-8" standalone="no"?>
<!DOCTYPE svg PUBLIC "-//W3C//DTD SVG 1.1//EN"
 "http://www.w3.org/Graphics/SVG/1.1/DTD/svg11.dtd">
<!-- Generated by graphviz version 2.38.0 (20140413.2041)
 -->
<!-- Title: proofgraph Pages: 1 -->
<svg width="186pt" height="238pt"
 viewBox="0.00 0.00 186.00 238.00" xmlns="http://www.w3.org/2000/svg" xmlns:xlink="http://www.w3.org/1999/xlink">
<g id="graph0" class="graph" transform="scale(1 1) rotate(0) translate(4 234)">
<title>proofgraph</title>
<polygon fill="white" stroke="none" points="-4,4 -4,-234 182,-234 182,4 -4,4"/>
<!-- node_0 -->
<g id="node1" class="node"><title>node_0</title>
<polygon fill="none" stroke="#000000" points="144.5,-40 33.5,-40 33.5,-4 144.5,-4 144.5,-40"/>
<polygon fill="none" stroke="#000000" points="148.5,-44 29.5,-44 29.5,-0 148.5,-0 148.5,-44"/>
<text text-anchor="middle" x="89" y="-19.2" font-family="Consolas" font-size="11.00" fill="#000000">(iron&#45;nn e5 x1):0</text>
</g>
<!-- node_1 -->
<g id="node2" class="node"><title>node_1</title>
<polygon fill="none" stroke="#000000" points="138,-102 40,-102 40,-66 138,-66 138,-102"/>
<polygon fill="none" stroke="#000000" points="142,-106 36,-106 36,-62 142,-62 142,-106"/>
<text text-anchor="middle" x="89" y="-81.2" font-family="Consolas" font-size="11.00" fill="#000000">(nam e6 x1):1</text>
</g>
<!-- node_2 -->
<g id="node3" class="node"><title>node_2</title>
<polygon fill="none" stroke="#000000" points="160.5,-164 17.5,-164 17.5,-128 160.5,-128 160.5,-164"/>
<polygon fill="none" stroke="#000000" points="164.5,-168 13.5,-168 13.5,-124 164.5,-124 164.5,-168"/>
<text text-anchor="middle" x="89" y="-143.2" font-family="Consolas" font-size="11.00" fill="#000000">(electricity&#45;nn e4 x2):2</text>
</g>
<!-- node_3 -->
<g id="node4" class="node"><title>node_3</title>
<polygon fill="none" stroke="#000000" points="174,-226 4,-226 4,-190 174,-190 174,-226"/>
<polygon fill="none" stroke="#000000" points="178,-230 0,-230 0,-186 178,-186 178,-230"/>
<text text-anchor="middle" x="89" y="-205.2" font-family="Consolas" font-size="11.00" fill="#000000">(conduct&#45;vb e1 x1 x2 u3):3</text>
</g>
</g>
</svg>
