<?xml version="1.0" encoding="UTF-8" standalone="no"?>
<!DOCTYPE svg PUBLIC "-//W3C//DTD SVG 1.1//EN"
 "http://www.w3.org/Graphics/SVG/1.1/DTD/svg11.dtd">
<!-- Generated by graphviz version 2.38.0 (20140413.2041)
 -->
<!-- Title: proofgraph Pages: 1 -->
<svg width="187pt" height="424pt"
 viewBox="0.00 0.00 187.00 424.00" xmlns="http://www.w3.org/2000/svg" xmlns:xlink="http://www.w3.org/1999/xlink">
<g id="graph0" class="graph" transform="scale(1 1) rotate(0) translate(4 420)">
<title>proofgraph</title>
<polygon fill="white" stroke="none" points="-4,4 -4,-420 183,-420 183,4 -4,4"/>
<!-- node_0 -->
<g id="node1" class="node"><title>node_0</title>
<polygon fill="none" stroke="#000000" points="147,-40 32,-40 32,-4 147,-4 147,-40"/>
<polygon fill="none" stroke="#000000" points="151,-44 28,-44 28,-0 151,-0 151,-44"/>
<text text-anchor="middle" x="89.5" y="-19.2" font-family="Consolas" font-size="11.00" fill="#000000">(light&#45;adj s1 x1):0</text>
</g>
<!-- node_1 -->
<g id="node2" class="node"><title>node_1</title>
<polygon fill="none" stroke="#000000" points="146,-102 33,-102 33,-66 146,-66 146,-102"/>
<polygon fill="none" stroke="#000000" points="150,-106 29,-106 29,-62 150,-62 150,-106"/>
<text text-anchor="middle" x="89.5" y="-81.2" font-family="Consolas" font-size="11.00" fill="#000000">(bulb&#45;nn e8 x1):1</text>
</g>
<!-- node_2 -->
<g id="node3" class="node"><title>node_2</title>
<polygon fill="none" stroke="#000000" points="159.5,-164 19.5,-164 19.5,-128 159.5,-128 159.5,-164"/>
<polygon fill="none" stroke="#000000" points="163.5,-168 15.5,-168 15.5,-124 163.5,-124 163.5,-168"/>
<text text-anchor="middle" x="89.5" y="-143.2" font-family="Consolas" font-size="11.00" fill="#000000">(electrical&#45;adj s2 x2):2</text>
</g>
<!-- node_3 -->
<g id="node4" class="node"><title>node_3</title>
<polygon fill="none" stroke="#000000" points="153.5,-226 25.5,-226 25.5,-190 153.5,-190 153.5,-226"/>
<polygon fill="none" stroke="#000000" points="157.5,-230 21.5,-230 21.5,-186 157.5,-186 157.5,-230"/>
<text text-anchor="middle" x="89.5" y="-205.2" font-family="Consolas" font-size="11.00" fill="#000000">(energy&#45;nn e7 x2):3</text>
</g>
<!-- node_4 -->
<g id="node5" class="node"><title>node_4</title>
<polygon fill="none" stroke="#000000" points="146,-288 33,-288 33,-252 146,-252 146,-288"/>
<polygon fill="none" stroke="#000000" points="150,-292 29,-292 29,-248 150,-248 150,-292"/>
<text text-anchor="middle" x="89.5" y="-267.2" font-family="Consolas" font-size="11.00" fill="#000000">(light&#45;nn e6 x3):4</text>
</g>
<!-- node_5 -->
<g id="node6" class="node"><title>node_5</title>
<polygon fill="none" stroke="#000000" points="175,-350 4,-350 4,-314 175,-314 175,-350"/>
<polygon fill="none" stroke="#000000" points="179,-354 0,-354 0,-310 179,-310 179,-354"/>
<text text-anchor="middle" x="89.5" y="-329.2" font-family="Consolas" font-size="11.00" fill="#000000">(produce&#45;vb e2 x2 x3 u5):5</text>
</g>
<!-- node_6 -->
<g id="node7" class="node"><title>node_6</title>
<polygon fill="none" stroke="#000000" points="172,-412 7,-412 7,-376 172,-376 172,-412"/>
<polygon fill="none" stroke="#000000" points="176,-416 3,-416 3,-372 176,-372 176,-416"/>
<text text-anchor="middle" x="89.5" y="-391.2" font-family="Consolas" font-size="11.00" fill="#000000">(require&#45;vb e1 x1 x2 u4):6</text>
</g>
</g>
</svg>
