<?xml version="1.0" encoding="UTF-8" standalone="no"?>
<!DOCTYPE svg PUBLIC "-//W3C//DTD SVG 1.1//EN"
 "http://www.w3.org/Graphics/SVG/1.1/DTD/svg11.dtd">
<!-- Generated by graphviz version 2.38.0 (20140413.2041)
 -->
<!-- Title: proofgraph Pages: 1 -->
<svg width="166pt" height="300pt"
 viewBox="0.00 0.00 166.00 300.00" xmlns="http://www.w3.org/2000/svg" xmlns:xlink="http://www.w3.org/1999/xlink">
<g id="graph0" class="graph" transform="scale(1 1) rotate(0) translate(4 296)">
<title>proofgraph</title>
<polygon fill="white" stroke="none" points="-4,4 -4,-296 162,-296 162,4 -4,4"/>
<!-- node_0 -->
<g id="node1" class="node"><title>node_0</title>
<polygon fill="none" stroke="#000000" points="135.5,-40 22.5,-40 22.5,-4 135.5,-4 135.5,-40"/>
<polygon fill="none" stroke="#000000" points="139.5,-44 18.5,-44 18.5,-0 139.5,-0 139.5,-44"/>
<text text-anchor="middle" x="79" y="-19.2" font-family="Consolas" font-size="11.00" fill="#000000">(john&#45;nn e7 x1):0</text>
</g>
<!-- node_1 -->
<g id="node2" class="node"><title>node_1</title>
<polygon fill="none" stroke="#000000" points="125,-102 33,-102 33,-66 125,-66 125,-102"/>
<polygon fill="none" stroke="#000000" points="129,-106 29,-106 29,-62 129,-62 129,-106"/>
<text text-anchor="middle" x="79" y="-81.2" font-family="Consolas" font-size="11.00" fill="#000000">(per e8 x1):1</text>
</g>
<!-- node_2 -->
<g id="node3" class="node"><title>node_2</title>
<polygon fill="none" stroke="#000000" points="154,-164 4,-164 4,-128 154,-128 154,-164"/>
<polygon fill="none" stroke="#000000" points="158,-168 0,-168 0,-124 158,-124 158,-168"/>
<text text-anchor="middle" x="79" y="-143.2" font-family="Consolas" font-size="11.00" fill="#000000">(bear&#45;vb e1 u5 x1 u6):2</text>
</g>
<!-- node_3 -->
<g id="node4" class="node"><title>node_3</title>
<polygon fill="none" stroke="#000000" points="148.5,-226 9.5,-226 9.5,-190 148.5,-190 148.5,-226"/>
<polygon fill="none" stroke="#000000" points="152.5,-230 5.5,-230 5.5,-186 152.5,-186 152.5,-230"/>
<text text-anchor="middle" x="79" y="-205.2" font-family="Consolas" font-size="11.00" fill="#000000">(t&#45;1990XXXX e4 x2):3</text>
</g>
<!-- node_4 -->
<g id="node5" class="node"><title>node_4</title>
<polygon fill="none" stroke="#000000" points="135.5,-288 22.5,-288 22.5,-252 135.5,-252 135.5,-288"/>
<polygon fill="none" stroke="#000000" points="139.5,-292 18.5,-292 18.5,-248 139.5,-248 139.5,-292"/>
<text text-anchor="middle" x="79" y="-267.2" font-family="Consolas" font-size="11.00" fill="#000000">(in&#45;in e3 e1 x2):4</text>
</g>
</g>
</svg>
