<?xml version="1.0" encoding="UTF-8" standalone="no"?>
<!DOCTYPE svg PUBLIC "-//W3C//DTD SVG 1.1//EN"
 "http://www.w3.org/Graphics/SVG/1.1/DTD/svg11.dtd">
<!-- Generated by graphviz version 2.38.0 (20140413.2041)
 -->
<!-- Title: proofgraph Pages: 1 -->
<svg width="389pt" height="362pt"
 viewBox="0.00 0.00 389.00 362.00" xmlns="http://www.w3.org/2000/svg" xmlns:xlink="http://www.w3.org/1999/xlink">
<g id="graph0" class="graph" transform="scale(1 1) rotate(0) translate(4 358)">
<title>proofgraph</title>
<polygon fill="white" stroke="none" points="-4,4 -4,-358 385,-358 385,4 -4,4"/>
<!-- node_0 -->
<g id="node1" class="node"><title>node_0</title>
<polygon fill="none" stroke="#000000" points="158,-40 18,-40 18,-4 158,-4 158,-40"/>
<polygon fill="none" stroke="#000000" points="162,-44 14,-44 14,-0 162,-0 162,-44"/>
<text text-anchor="middle" x="88" y="-19.2" font-family="Consolas" font-size="11.00" fill="#000000">(flashlight&#45;nn e7 x1):0</text>
</g>
<!-- node_1 -->
<g id="node2" class="node"><title>node_1</title>
<polygon fill="none" stroke="#000000" points="158,-102 18,-102 18,-66 158,-66 158,-102"/>
<polygon fill="none" stroke="#000000" points="162,-106 14,-106 14,-62 162,-62 162,-106"/>
<text text-anchor="middle" x="88" y="-81.2" font-family="Consolas" font-size="11.00" fill="#000000">(chemical&#45;adj s1 x2):1</text>
</g>
<!-- node_2 -->
<g id="node3" class="node"><title>node_2</title>
<polygon fill="none" stroke="#000000" points="152,-164 24,-164 24,-128 152,-128 152,-164"/>
<polygon fill="none" stroke="#000000" points="156,-168 20,-168 20,-124 156,-124 156,-168"/>
<text text-anchor="middle" x="88" y="-143.2" font-family="Consolas" font-size="11.00" fill="#000000">(energy&#45;nn e6 x2):2</text>
</g>
<!-- node_5 -->
<g id="node6" class="node"><title>node_5</title>
<polygon fill="none" stroke="#000000" points="377,-164 249,-164 249,-128 377,-128 377,-164"/>
<polygon fill="none" stroke="#000000" points="381,-168 245,-168 245,-124 381,-124 381,-168"/>
<text text-anchor="middle" x="313" y="-143.2" font-family="Consolas" font-size="11.00" fill="#000000">(energy&#45;nn e4 x3):5</text>
</g>
<!-- node_2&#45;&gt;node_5 -->
<g id="edge1" class="edge"><title>node_2&#45;&gt;node_5</title>
<path fill="none" stroke="#000000" stroke-dasharray="1,5" d="M156.21,-146C184.295,-146 216.857,-146 244.928,-146"/>
<text text-anchor="middle" x="210.5" y="-160" font-family="Consolas" font-size="10.00" fill="#000000">x2=x3</text>
<text text-anchor="middle" x="210.5" y="-149" font-family="Consolas" font-size="10.00" fill="#000000">e6=e4</text>
</g>
<!-- node_3 -->
<g id="node4" class="node"><title>node_3</title>
<polygon fill="none" stroke="#000000" points="172,-226 4,-226 4,-190 172,-190 172,-226"/>
<polygon fill="none" stroke="#000000" points="176,-230 1.42109e-14,-230 1.42109e-14,-186 176,-186 176,-230"/>
<text text-anchor="middle" x="88" y="-205.2" font-family="Consolas" font-size="11.00" fill="#000000">(convert&#45;vb e1 x1 x2 u5):3</text>
</g>
<!-- node_4 -->
<g id="node5" class="node"><title>node_4</title>
<polygon fill="none" stroke="#000000" points="145.5,-288 30.5,-288 30.5,-252 145.5,-252 145.5,-288"/>
<polygon fill="none" stroke="#000000" points="149.5,-292 26.5,-292 26.5,-248 149.5,-248 149.5,-292"/>
<text text-anchor="middle" x="88" y="-267.2" font-family="Consolas" font-size="11.00" fill="#000000">(light&#45;adj s2 x3):4</text>
</g>
<!-- node_8 -->
<g id="node7" class="node"><title>node_8</title>
<polygon fill="none" stroke="#000000" points="150.5,-350 25.5,-350 25.5,-314 150.5,-314 150.5,-350"/>
<polygon fill="none" stroke="#000000" points="154.5,-354 21.5,-354 21.5,-310 154.5,-310 154.5,-354"/>
<text text-anchor="middle" x="88" y="-329.2" font-family="Consolas" font-size="11.00" fill="#000000">(into&#45;in e3 e1 x3):8</text>
</g>
</g>
</svg>
