<?xml version="1.0" encoding="UTF-8" standalone="no"?>
<!DOCTYPE svg PUBLIC "-//W3C//DTD SVG 1.1//EN"
 "http://www.w3.org/Graphics/SVG/1.1/DTD/svg11.dtd">
<!-- Generated by graphviz version 2.38.0 (20140413.2041)
 -->
<!-- Title: proofgraph Pages: 1 -->
<svg width="365pt" height="610pt"
 viewBox="0.00 0.00 365.00 610.00" xmlns="http://www.w3.org/2000/svg" xmlns:xlink="http://www.w3.org/1999/xlink">
<g id="graph0" class="graph" transform="scale(1 1) rotate(0) translate(4 606)">
<title>proofgraph</title>
<polygon fill="white" stroke="none" points="-4,4 -4,-606 361,-606 361,4 -4,4"/>
<!-- node_0 -->
<g id="node1" class="node"><title>node_0</title>
<polygon fill="none" stroke="#000000" points="130.5,-40 8.5,-40 8.5,-4 130.5,-4 130.5,-40"/>
<polygon fill="none" stroke="#000000" points="134.5,-44 4.5,-44 4.5,-3.55271e-15 134.5,-3.55271e-15 134.5,-44"/>
<text text-anchor="middle" x="69.5" y="-19.2" font-family="Consolas" font-size="11.00" fill="#000000">(whq e4 e5 e13):0</text>
</g>
<!-- node_1 -->
<g id="node2" class="node"><title>node_1</title>
<polygon fill="none" stroke="#000000" points="133,-102 6,-102 6,-66 133,-66 133,-102"/>
<polygon fill="none" stroke="#000000" points="137,-106 2,-106 2,-62 137,-62 137,-106"/>
<text text-anchor="middle" x="69.5" y="-81.2" font-family="Consolas" font-size="11.00" fill="#000000">(justin&#45;nn e13 x4):1</text>
</g>
<!-- node_2 -->
<g id="node3" class="node"><title>node_2</title>
<polygon fill="none" stroke="#000000" points="119,-164 20,-164 20,-128 119,-128 119,-164"/>
<polygon fill="none" stroke="#000000" points="123,-168 16,-168 16,-124 123,-124 123,-168"/>
<text text-anchor="middle" x="69.5" y="-143.2" font-family="Consolas" font-size="11.00" fill="#000000">(per e14 x4):2</text>
</g>
<!-- node_5 -->
<g id="node6" class="node"><title>node_5</title>
<polygon fill="none" stroke="#000000" points="338,-164 239,-164 239,-128 338,-128 338,-164"/>
<polygon fill="none" stroke="#000000" points="342,-168 235,-168 235,-124 342,-124 342,-168"/>
<text text-anchor="middle" x="288.5" y="-143.2" font-family="Consolas" font-size="11.00" fill="#000000">(per e11 x3):5</text>
</g>
<!-- node_2&#45;&gt;node_5 -->
<g id="edge1" class="edge"><title>node_2&#45;&gt;node_5</title>
<path fill="none" stroke="#000000" stroke-dasharray="1,5" d="M123.03,-146C156.897,-146 200.782,-146 234.702,-146"/>
<text text-anchor="middle" x="179.5" y="-160" font-family="Consolas" font-size="10.00" fill="#000000">x4=x3</text>
<text text-anchor="middle" x="179.5" y="-149" font-family="Consolas" font-size="10.00" fill="#000000">e14=e11</text>
</g>
<!-- node_3 -->
<g id="node4" class="node"><title>node_3</title>
<polygon fill="none" stroke="#000000" points="134,-226 5,-226 5,-190 134,-190 134,-226"/>
<polygon fill="none" stroke="#000000" points="138,-230 1,-230 1,-186 138,-186 138,-230"/>
<text text-anchor="middle" x="69.5" y="-205.2" font-family="Consolas" font-size="11.00" fill="#000000">(equal e12 x3 x4):3</text>
</g>
<!-- node_17 -->
<g id="node10" class="node"><title>node_17</title>
<polygon fill="none" stroke="#000000" points="353,-226 224,-226 224,-190 353,-190 353,-226"/>
<polygon fill="none" stroke="#000000" points="357,-230 220,-230 220,-186 357,-186 357,-230"/>
<text text-anchor="middle" x="288.5" y="-205.2" font-family="Consolas" font-size="11.00" fill="#000000">(equal e6 x1 x2):17</text>
</g>
<!-- node_3&#45;&gt;node_17 -->
<g id="edge2" class="edge"><title>node_3&#45;&gt;node_17</title>
<path fill="none" stroke="#000000" stroke-dasharray="1,5" d="M138.268,-208C164.258,-208 193.896,-208 219.873,-208"/>
<text text-anchor="middle" x="179.5" y="-233" font-family="Consolas" font-size="10.00" fill="#000000">x4=x2</text>
<text text-anchor="middle" x="179.5" y="-222" font-family="Consolas" font-size="10.00" fill="#000000">e12=e6</text>
<text text-anchor="middle" x="179.5" y="-211" font-family="Consolas" font-size="10.00" fill="#000000">x3=x1</text>
</g>
<!-- node_4 -->
<g id="node5" class="node"><title>node_4</title>
<polygon fill="none" stroke="#000000" points="135,-288 4,-288 4,-252 135,-252 135,-288"/>
<polygon fill="none" stroke="#000000" points="139,-292 0,-292 0,-248 139,-248 139,-292"/>
<text text-anchor="middle" x="69.5" y="-267.2" font-family="Consolas" font-size="11.00" fill="#000000">(bieber&#45;nn e10 x3):4</text>
</g>
<!-- node_8 -->
<g id="node7" class="node"><title>node_8</title>
<polygon fill="none" stroke="#000000" points="127,-350 12,-350 12,-314 127,-314 127,-350"/>
<polygon fill="none" stroke="#000000" points="131,-354 8,-354 8,-310 131,-310 131,-354"/>
<text text-anchor="middle" x="69.5" y="-329.2" font-family="Consolas" font-size="11.00" fill="#000000">(of&#45;in e9 x5 x3):8</text>
</g>
<!-- node_9 -->
<g id="node8" class="node"><title>node_9</title>
<polygon fill="none" stroke="#000000" points="135,-412 4,-412 4,-376 135,-376 135,-412"/>
<polygon fill="none" stroke="#000000" points="139,-416 0,-416 0,-372 139,-372 139,-416"/>
<text text-anchor="middle" x="69.5" y="-391.2" font-family="Consolas" font-size="11.00" fill="#000000">(brother&#45;nn e8 x5):9</text>
</g>
<!-- node_10 -->
<g id="node9" class="node"><title>node_10</title>
<polygon fill="none" stroke="#000000" points="130.5,-474 8.5,-474 8.5,-438 130.5,-438 130.5,-474"/>
<polygon fill="none" stroke="#000000" points="134.5,-478 4.5,-478 4.5,-434 134.5,-434 134.5,-478"/>
<text text-anchor="middle" x="69.5" y="-453.2" font-family="Consolas" font-size="11.00" fill="#000000">(of&#45;in e7 x2 x5):10</text>
</g>
<!-- node_23 -->
<g id="node11" class="node"><title>node_23</title>
<polygon fill="none" stroke="#000000" points="123.5,-536 15.5,-536 15.5,-500 123.5,-500 123.5,-536"/>
<polygon fill="none" stroke="#000000" points="127.5,-540 11.5,-540 11.5,-496 127.5,-496 127.5,-540"/>
<text text-anchor="middle" x="69.5" y="-515.2" font-family="Consolas" font-size="11.00" fill="#000000">(thing e5 x1):23</text>
</g>
<!-- node_24 -->
<g id="node12" class="node"><title>node_24</title>
<polygon fill="none" stroke="#000000" points="134.5,-598 4.5,-598 4.5,-562 134.5,-562 134.5,-598"/>
<polygon fill="none" stroke="#000000" points="138.5,-602 0.5,-602 0.5,-558 138.5,-558 138.5,-602"/>
<text text-anchor="middle" x="69.5" y="-577.2" font-family="Consolas" font-size="11.00" fill="#000000">(name&#45;nn e3 x2):24</text>
</g>
</g>
</svg>
